<mxfile host="app.diagrams.net" modified="2023-05-12T10:52:50.580Z" agent="5.0 (Macintosh; Intel Mac OS X 10_15_7) AppleWebKit/537.36 (KHTML, like Gecko) Chrome/112.0.0.0 Safari/537.36" etag="V-Tvs12ZLPeUAn0e-0mn" version="21.0.8" type="github" pages="5">
  <diagram id="2-hrm1N1ebwm_3weLaVp" name="Page-1">
    <mxGraphModel dx="1306" dy="836" grid="1" gridSize="10" guides="1" tooltips="1" connect="1" arrows="1" fold="1" page="1" pageScale="1" pageWidth="1169" pageHeight="1654" math="0" shadow="0">
      <root>
        <mxCell id="0" />
        <mxCell id="1" parent="0" />
        <mxCell id="FAEC4lMXxit8sSSjVPcY-95" value="" style="rounded=1;whiteSpace=wrap;html=1;fillColor=#E7F9E6;strokeColor=#FCFCFC;" parent="1" vertex="1">
          <mxGeometry x="420" y="310" width="450" height="210" as="geometry" />
        </mxCell>
        <mxCell id="XFXk-plWXWxICO0-8bLS-1" value="" style="rounded=0;whiteSpace=wrap;html=1;fillColor=#fff2cc;strokeColor=#d6b656;" parent="1" vertex="1">
          <mxGeometry x="107" y="130" width="313" height="81.25" as="geometry" />
        </mxCell>
        <mxCell id="FAEC4lMXxit8sSSjVPcY-64" style="edgeStyle=elbowEdgeStyle;rounded=1;jumpStyle=arc;orthogonalLoop=1;jettySize=auto;elbow=vertical;html=1;exitX=0.5;exitY=1;exitDx=0;exitDy=0;entryX=0.75;entryY=0;entryDx=0;entryDy=0;" parent="1" source="XFXk-plWXWxICO0-8bLS-3" target="FAEC4lMXxit8sSSjVPcY-62" edge="1">
          <mxGeometry relative="1" as="geometry" />
        </mxCell>
        <mxCell id="XFXk-plWXWxICO0-8bLS-3" value="" style="rounded=0;whiteSpace=wrap;html=1;fillColor=#fff2cc;strokeColor=#d6b656;" parent="1" vertex="1">
          <mxGeometry x="124.5" y="600" width="100" height="70" as="geometry" />
        </mxCell>
        <mxCell id="FAEC4lMXxit8sSSjVPcY-65" style="edgeStyle=elbowEdgeStyle;rounded=1;jumpStyle=arc;orthogonalLoop=1;jettySize=auto;elbow=vertical;html=1;exitX=0.75;exitY=0;exitDx=0;exitDy=0;entryX=0.5;entryY=1;entryDx=0;entryDy=0;entryPerimeter=0;" parent="1" source="XFXk-plWXWxICO0-8bLS-4" target="XFXk-plWXWxICO0-8bLS-79" edge="1">
          <mxGeometry relative="1" as="geometry" />
        </mxCell>
        <mxCell id="FAEC4lMXxit8sSSjVPcY-67" style="edgeStyle=elbowEdgeStyle;rounded=1;jumpStyle=arc;orthogonalLoop=1;jettySize=auto;elbow=vertical;html=1;exitX=1;exitY=0.5;exitDx=0;exitDy=0;entryX=0;entryY=0.5;entryDx=0;entryDy=0;" parent="1" source="XFXk-plWXWxICO0-8bLS-4" target="XFXk-plWXWxICO0-8bLS-93" edge="1">
          <mxGeometry relative="1" as="geometry" />
        </mxCell>
        <mxCell id="FAEC4lMXxit8sSSjVPcY-86" style="edgeStyle=elbowEdgeStyle;rounded=1;jumpStyle=arc;orthogonalLoop=1;jettySize=auto;elbow=vertical;html=1;exitX=0;exitY=0.5;exitDx=0;exitDy=0;entryX=0;entryY=0.5;entryDx=0;entryDy=0;" parent="1" source="XFXk-plWXWxICO0-8bLS-4" target="XFXk-plWXWxICO0-8bLS-46" edge="1">
          <mxGeometry relative="1" as="geometry">
            <Array as="points">
              <mxPoint x="110" y="560" />
            </Array>
          </mxGeometry>
        </mxCell>
        <mxCell id="XFXk-plWXWxICO0-8bLS-4" value="" style="rounded=0;whiteSpace=wrap;html=1;fillColor=#fff2cc;strokeColor=#d6b656;" parent="1" vertex="1">
          <mxGeometry x="120" y="711" width="190" height="70" as="geometry" />
        </mxCell>
        <mxCell id="FAEC4lMXxit8sSSjVPcY-77" style="edgeStyle=elbowEdgeStyle;rounded=1;jumpStyle=arc;orthogonalLoop=1;jettySize=auto;elbow=vertical;html=1;exitX=0.5;exitY=0;exitDx=0;exitDy=0;entryX=0.5;entryY=1;entryDx=0;entryDy=0;" parent="1" source="XFXk-plWXWxICO0-8bLS-5" target="XFXk-plWXWxICO0-8bLS-63" edge="1">
          <mxGeometry relative="1" as="geometry">
            <Array as="points">
              <mxPoint x="560" y="650" />
            </Array>
          </mxGeometry>
        </mxCell>
        <mxCell id="FAEC4lMXxit8sSSjVPcY-83" style="edgeStyle=elbowEdgeStyle;rounded=1;jumpStyle=arc;orthogonalLoop=1;jettySize=auto;elbow=vertical;html=1;exitX=1;exitY=0.5;exitDx=0;exitDy=0;entryX=0;entryY=0.25;entryDx=0;entryDy=0;" parent="1" source="XFXk-plWXWxICO0-8bLS-5" target="XFXk-plWXWxICO0-8bLS-16" edge="1">
          <mxGeometry relative="1" as="geometry" />
        </mxCell>
        <mxCell id="XFXk-plWXWxICO0-8bLS-5" value="" style="rounded=0;whiteSpace=wrap;html=1;fillColor=#fff2cc;strokeColor=#d6b656;" parent="1" vertex="1">
          <mxGeometry x="391" y="680" width="222.75" height="110.99" as="geometry" />
        </mxCell>
        <mxCell id="XFXk-plWXWxICO0-8bLS-126" style="edgeStyle=elbowEdgeStyle;rounded=1;orthogonalLoop=1;jettySize=auto;html=1;exitX=0;exitY=0.25;exitDx=0;exitDy=0;entryX=0.5;entryY=1;entryDx=0;entryDy=0;entryPerimeter=0;" parent="1" source="XFXk-plWXWxICO0-8bLS-6" target="XFXk-plWXWxICO0-8bLS-104" edge="1">
          <mxGeometry relative="1" as="geometry">
            <Array as="points">
              <mxPoint x="470" y="480" />
              <mxPoint x="500" y="480" />
            </Array>
          </mxGeometry>
        </mxCell>
        <mxCell id="FAEC4lMXxit8sSSjVPcY-42" style="edgeStyle=orthogonalEdgeStyle;rounded=1;orthogonalLoop=1;jettySize=auto;html=1;exitX=0.5;exitY=0;exitDx=0;exitDy=0;entryX=0.5;entryY=1;entryDx=0;entryDy=0;entryPerimeter=0;" parent="1" source="XFXk-plWXWxICO0-8bLS-6" target="XFXk-plWXWxICO0-8bLS-107" edge="1">
          <mxGeometry relative="1" as="geometry">
            <mxPoint x="646.25" y="520" as="targetPoint" />
          </mxGeometry>
        </mxCell>
        <mxCell id="XFXk-plWXWxICO0-8bLS-6" value="" style="rounded=0;whiteSpace=wrap;html=1;fillColor=#fff2cc;strokeColor=#d6b656;" parent="1" vertex="1">
          <mxGeometry x="558.75" y="540" width="176.25" height="70" as="geometry" />
        </mxCell>
        <mxCell id="XFXk-plWXWxICO0-8bLS-97" style="edgeStyle=orthogonalEdgeStyle;rounded=1;orthogonalLoop=1;jettySize=auto;html=1;exitX=1;exitY=0.5;exitDx=0;exitDy=0;entryX=0.5;entryY=1;entryDx=0;entryDy=0;entryPerimeter=0;" parent="1" source="XFXk-plWXWxICO0-8bLS-7" target="XFXk-plWXWxICO0-8bLS-96" edge="1">
          <mxGeometry relative="1" as="geometry" />
        </mxCell>
        <mxCell id="XFXk-plWXWxICO0-8bLS-124" style="edgeStyle=elbowEdgeStyle;rounded=1;orthogonalLoop=1;jettySize=auto;html=1;exitX=0.25;exitY=0;exitDx=0;exitDy=0;entryX=0.5;entryY=0;entryDx=0;entryDy=0;" parent="1" source="XFXk-plWXWxICO0-8bLS-7" target="XFXk-plWXWxICO0-8bLS-63" edge="1">
          <mxGeometry relative="1" as="geometry">
            <Array as="points">
              <mxPoint x="756" y="690" />
              <mxPoint x="730" y="690" />
            </Array>
          </mxGeometry>
        </mxCell>
        <mxCell id="XFXk-plWXWxICO0-8bLS-131" style="edgeStyle=elbowEdgeStyle;rounded=1;orthogonalLoop=1;jettySize=auto;html=1;exitX=0.5;exitY=0;exitDx=0;exitDy=0;entryX=0.5;entryY=1;entryDx=0;entryDy=0;entryPerimeter=0;" parent="1" source="XFXk-plWXWxICO0-8bLS-7" target="XFXk-plWXWxICO0-8bLS-129" edge="1">
          <mxGeometry relative="1" as="geometry" />
        </mxCell>
        <mxCell id="XFXk-plWXWxICO0-8bLS-7" value="" style="rounded=0;whiteSpace=wrap;html=1;fillColor=#fff2cc;strokeColor=#d6b656;" parent="1" vertex="1">
          <mxGeometry x="712.5" y="710" width="175" height="60" as="geometry" />
        </mxCell>
        <mxCell id="XFXk-plWXWxICO0-8bLS-81" style="edgeStyle=orthogonalEdgeStyle;rounded=0;orthogonalLoop=1;jettySize=auto;html=1;exitX=1;exitY=0.5;exitDx=0;exitDy=0;entryX=0;entryY=0.5;entryDx=0;entryDy=0;" parent="1" source="XFXk-plWXWxICO0-8bLS-16" target="XFXk-plWXWxICO0-8bLS-7" edge="1">
          <mxGeometry relative="1" as="geometry" />
        </mxCell>
        <mxCell id="XFXk-plWXWxICO0-8bLS-16" value="" style="shape=process;whiteSpace=wrap;html=1;backgroundOutline=1;" parent="1" vertex="1">
          <mxGeometry x="642" y="728.48" width="40" height="22.51" as="geometry" />
        </mxCell>
        <mxCell id="XFXk-plWXWxICO0-8bLS-37" value="supplier-service&lt;br&gt;动态信息查询" style="rounded=0;whiteSpace=wrap;html=1;fillColor=#f8cecc;strokeColor=#b85450;" parent="1" vertex="1">
          <mxGeometry x="880" y="340" width="120" height="60" as="geometry" />
        </mxCell>
        <mxCell id="XFXk-plWXWxICO0-8bLS-46" value="supplier-service&lt;br&gt;" style="rounded=0;whiteSpace=wrap;html=1;fillColor=#f8cecc;strokeColor=#b85450;" parent="1" vertex="1">
          <mxGeometry x="124.5" y="510" width="120.5" height="60" as="geometry" />
        </mxCell>
        <mxCell id="FAEC4lMXxit8sSSjVPcY-78" style="edgeStyle=elbowEdgeStyle;rounded=1;jumpStyle=arc;orthogonalLoop=1;jettySize=auto;elbow=vertical;html=1;exitX=0;exitY=0.5;exitDx=0;exitDy=0;entryX=0.5;entryY=1;entryDx=0;entryDy=0;" parent="1" source="XFXk-plWXWxICO0-8bLS-63" target="XFXk-plWXWxICO0-8bLS-6" edge="1">
          <mxGeometry relative="1" as="geometry" />
        </mxCell>
        <mxCell id="XFXk-plWXWxICO0-8bLS-63" value="" style="shape=process;whiteSpace=wrap;html=1;backgroundOutline=1;rotation=90;" parent="1" vertex="1">
          <mxGeometry x="631.87" y="625" width="30" height="49.99" as="geometry" />
        </mxCell>
        <mxCell id="XFXk-plWXWxICO0-8bLS-79" value="hbase" style="shape=cylinder3;whiteSpace=wrap;html=1;boundedLbl=1;backgroundOutline=1;size=15;fillColor=#d5e8d4;strokeColor=#82b366;" parent="1" vertex="1">
          <mxGeometry x="250" y="595" width="60" height="70" as="geometry" />
        </mxCell>
        <mxCell id="XFXk-plWXWxICO0-8bLS-96" value="s3" style="shape=cylinder3;whiteSpace=wrap;html=1;boundedLbl=1;backgroundOutline=1;size=15;fillColor=#d5e8d4;strokeColor=#82b366;" parent="1" vertex="1">
          <mxGeometry x="930" y="620" width="60" height="70" as="geometry" />
        </mxCell>
        <mxCell id="XFXk-plWXWxICO0-8bLS-104" value="ES" style="shape=cylinder3;whiteSpace=wrap;html=1;boundedLbl=1;backgroundOutline=1;size=15;fillColor=#d5e8d4;strokeColor=#82b366;" parent="1" vertex="1">
          <mxGeometry x="440" y="345" width="60" height="70" as="geometry" />
        </mxCell>
        <mxCell id="FAEC4lMXxit8sSSjVPcY-43" style="edgeStyle=orthogonalEdgeStyle;rounded=1;orthogonalLoop=1;jettySize=auto;html=1;exitX=0.5;exitY=0;exitDx=0;exitDy=0;exitPerimeter=0;entryX=0.5;entryY=1;entryDx=0;entryDy=0;entryPerimeter=0;" parent="1" source="XFXk-plWXWxICO0-8bLS-107" target="XFXk-plWXWxICO0-8bLS-109" edge="1">
          <mxGeometry relative="1" as="geometry" />
        </mxCell>
        <mxCell id="XFXk-plWXWxICO0-8bLS-107" value="DB" style="shape=cylinder3;whiteSpace=wrap;html=1;boundedLbl=1;backgroundOutline=1;size=15;fillColor=#d5e8d4;strokeColor=#82b366;" parent="1" vertex="1">
          <mxGeometry x="616.25" y="430" width="60" height="60" as="geometry" />
        </mxCell>
        <mxCell id="FAEC4lMXxit8sSSjVPcY-92" style="edgeStyle=elbowEdgeStyle;rounded=1;jumpStyle=arc;orthogonalLoop=1;jettySize=auto;elbow=vertical;html=1;exitX=0.25;exitY=0;exitDx=0;exitDy=0;entryX=0;entryY=0.5;entryDx=0;entryDy=0;entryPerimeter=0;" parent="1" source="FAEC4lMXxit8sSSjVPcY-87" target="XFXk-plWXWxICO0-8bLS-109" edge="1">
          <mxGeometry relative="1" as="geometry">
            <Array as="points">
              <mxPoint x="598" y="380" />
            </Array>
          </mxGeometry>
        </mxCell>
        <mxCell id="XFXk-plWXWxICO0-8bLS-109" value="Redis" style="shape=cylinder3;whiteSpace=wrap;html=1;boundedLbl=1;backgroundOutline=1;size=15;fillColor=#d5e8d4;strokeColor=#82b366;" parent="1" vertex="1">
          <mxGeometry x="613.75" y="345" width="60" height="60" as="geometry" />
        </mxCell>
        <mxCell id="XFXk-plWXWxICO0-8bLS-129" value="CDN files" style="shape=cylinder3;whiteSpace=wrap;html=1;boundedLbl=1;backgroundOutline=1;size=15;fillColor=#d5e8d4;strokeColor=#82b366;" parent="1" vertex="1">
          <mxGeometry x="770" y="335" width="60" height="70" as="geometry" />
        </mxCell>
        <mxCell id="XFXk-plWXWxICO0-8bLS-132" value="RawMQ" style="text;html=1;align=center;verticalAlign=middle;resizable=0;points=[];autosize=1;strokeColor=none;fillColor=none;" parent="1" vertex="1">
          <mxGeometry x="314.5" y="698.73" width="70" height="30" as="geometry" />
        </mxCell>
        <mxCell id="XFXk-plWXWxICO0-8bLS-133" value="PictureMQ" style="text;html=1;align=center;verticalAlign=middle;resizable=0;points=[];autosize=1;strokeColor=none;fillColor=none;" parent="1" vertex="1">
          <mxGeometry x="620" y="690" width="80" height="30" as="geometry" />
        </mxCell>
        <mxCell id="XFXk-plWXWxICO0-8bLS-134" value="ProcessedMQ" style="text;html=1;align=center;verticalAlign=middle;resizable=0;points=[];autosize=1;strokeColor=none;fillColor=none;" parent="1" vertex="1">
          <mxGeometry x="535" y="610" width="100" height="30" as="geometry" />
        </mxCell>
        <mxCell id="FAEC4lMXxit8sSSjVPcY-19" style="edgeStyle=orthogonalEdgeStyle;rounded=1;orthogonalLoop=1;jettySize=auto;html=1;exitX=0.5;exitY=1;exitDx=0;exitDy=0;entryX=0.145;entryY=0;entryDx=0;entryDy=4.35;entryPerimeter=0;" parent="1" source="FAEC4lMXxit8sSSjVPcY-2" target="XFXk-plWXWxICO0-8bLS-104" edge="1">
          <mxGeometry relative="1" as="geometry" />
        </mxCell>
        <mxCell id="FAEC4lMXxit8sSSjVPcY-2" value="current_city&lt;br&gt;匹配" style="rounded=1;whiteSpace=wrap;html=1;" parent="1" vertex="1">
          <mxGeometry x="124.5" y="153.75" width="80" height="47.5" as="geometry" />
        </mxCell>
        <mxCell id="FAEC4lMXxit8sSSjVPcY-22" style="edgeStyle=orthogonalEdgeStyle;rounded=1;orthogonalLoop=1;jettySize=auto;html=1;exitX=0.5;exitY=1;exitDx=0;exitDy=0;entryX=0.855;entryY=0;entryDx=0;entryDy=4.35;entryPerimeter=0;" parent="1" source="FAEC4lMXxit8sSSjVPcY-4" target="XFXk-plWXWxICO0-8bLS-104" edge="1">
          <mxGeometry relative="1" as="geometry">
            <Array as="points">
              <mxPoint x="350" y="240" />
              <mxPoint x="491" y="240" />
            </Array>
          </mxGeometry>
        </mxCell>
        <mxCell id="FAEC4lMXxit8sSSjVPcY-25" style="edgeStyle=orthogonalEdgeStyle;rounded=1;orthogonalLoop=1;jettySize=auto;html=1;exitX=0.5;exitY=1;exitDx=0;exitDy=0;entryX=0.5;entryY=0;entryDx=0;entryDy=0;jumpStyle=arc;" parent="1" source="FAEC4lMXxit8sSSjVPcY-4" target="FAEC4lMXxit8sSSjVPcY-15" edge="1">
          <mxGeometry relative="1" as="geometry">
            <Array as="points">
              <mxPoint x="350" y="240" />
              <mxPoint x="190" y="240" />
            </Array>
          </mxGeometry>
        </mxCell>
        <mxCell id="FAEC4lMXxit8sSSjVPcY-48" style="edgeStyle=elbowEdgeStyle;rounded=1;jumpStyle=arc;orthogonalLoop=1;jettySize=auto;elbow=vertical;html=1;exitX=0.5;exitY=1;exitDx=0;exitDy=0;entryX=0.5;entryY=0;entryDx=0;entryDy=0;" parent="1" source="FAEC4lMXxit8sSSjVPcY-4" target="FAEC4lMXxit8sSSjVPcY-16" edge="1">
          <mxGeometry relative="1" as="geometry" />
        </mxCell>
        <mxCell id="FAEC4lMXxit8sSSjVPcY-4" value="search&lt;br&gt;酒店搜索" style="rounded=1;whiteSpace=wrap;html=1;" parent="1" vertex="1">
          <mxGeometry x="304.5" y="153.75" width="90" height="47.5" as="geometry" />
        </mxCell>
        <mxCell id="FAEC4lMXxit8sSSjVPcY-21" style="edgeStyle=orthogonalEdgeStyle;rounded=1;orthogonalLoop=1;jettySize=auto;html=1;exitX=0.5;exitY=1;exitDx=0;exitDy=0;entryX=0.5;entryY=0;entryDx=0;entryDy=0;entryPerimeter=0;jumpStyle=arc;" parent="1" source="FAEC4lMXxit8sSSjVPcY-5" target="XFXk-plWXWxICO0-8bLS-104" edge="1">
          <mxGeometry relative="1" as="geometry">
            <Array as="points">
              <mxPoint x="255" y="260" />
              <mxPoint x="470" y="260" />
            </Array>
          </mxGeometry>
        </mxCell>
        <mxCell id="FAEC4lMXxit8sSSjVPcY-5" value="keywords&lt;br&gt;目的地推荐" style="rounded=1;whiteSpace=wrap;html=1;" parent="1" vertex="1">
          <mxGeometry x="214.5" y="153.75" width="80" height="47.5" as="geometry" />
        </mxCell>
        <mxCell id="FAEC4lMXxit8sSSjVPcY-6" value="" style="rounded=0;whiteSpace=wrap;html=1;fillColor=#fff2cc;strokeColor=#d6b656;" parent="1" vertex="1">
          <mxGeometry x="450" y="130" width="550" height="80" as="geometry" />
        </mxCell>
        <mxCell id="FAEC4lMXxit8sSSjVPcY-47" style="edgeStyle=elbowEdgeStyle;rounded=1;jumpStyle=arc;orthogonalLoop=1;jettySize=auto;elbow=vertical;html=1;exitX=0.5;exitY=1;exitDx=0;exitDy=0;entryX=0.145;entryY=0;entryDx=0;entryDy=4.35;entryPerimeter=0;" parent="1" source="FAEC4lMXxit8sSSjVPcY-7" target="XFXk-plWXWxICO0-8bLS-109" edge="1">
          <mxGeometry relative="1" as="geometry">
            <Array as="points">
              <mxPoint x="640" y="280" />
              <mxPoint x="560" y="280" />
            </Array>
          </mxGeometry>
        </mxCell>
        <mxCell id="FAEC4lMXxit8sSSjVPcY-7" value="details&lt;br&gt;详情" style="rounded=1;whiteSpace=wrap;html=1;" parent="1" vertex="1">
          <mxGeometry x="467.5" y="153.75" width="80" height="47.5" as="geometry" />
        </mxCell>
        <mxCell id="FAEC4lMXxit8sSSjVPcY-26" style="edgeStyle=orthogonalEdgeStyle;rounded=1;orthogonalLoop=1;jettySize=auto;html=1;exitX=0.5;exitY=1;exitDx=0;exitDy=0;entryX=0.75;entryY=0;entryDx=0;entryDy=0;" parent="1" source="FAEC4lMXxit8sSSjVPcY-8" target="XFXk-plWXWxICO0-8bLS-37" edge="1">
          <mxGeometry relative="1" as="geometry">
            <Array as="points">
              <mxPoint x="693" y="260" />
              <mxPoint x="960" y="260" />
            </Array>
          </mxGeometry>
        </mxCell>
        <mxCell id="FAEC4lMXxit8sSSjVPcY-8" value="Precheck&lt;br&gt;酒店搜索" style="rounded=1;whiteSpace=wrap;html=1;" parent="1" vertex="1">
          <mxGeometry x="642" y="152.75" width="90" height="47.5" as="geometry" />
        </mxCell>
        <mxCell id="FAEC4lMXxit8sSSjVPcY-24" style="edgeStyle=orthogonalEdgeStyle;rounded=1;orthogonalLoop=1;jettySize=auto;html=1;exitX=0.5;exitY=1;exitDx=0;exitDy=0;entryX=0.5;entryY=0;entryDx=0;entryDy=0;" parent="1" source="FAEC4lMXxit8sSSjVPcY-9" target="XFXk-plWXWxICO0-8bLS-37" edge="1">
          <mxGeometry relative="1" as="geometry" />
        </mxCell>
        <mxCell id="FAEC4lMXxit8sSSjVPcY-9" value="extraInfo&lt;br&gt;房型详情" style="rounded=1;whiteSpace=wrap;html=1;" parent="1" vertex="1">
          <mxGeometry x="557" y="152.75" width="80" height="47.5" as="geometry" />
        </mxCell>
        <mxCell id="FAEC4lMXxit8sSSjVPcY-27" style="edgeStyle=orthogonalEdgeStyle;orthogonalLoop=1;jettySize=auto;html=1;exitX=0.5;exitY=1;exitDx=0;exitDy=0;entryX=0.855;entryY=0;entryDx=0;entryDy=4.35;entryPerimeter=0;jumpStyle=arc;rounded=1;" parent="1" source="FAEC4lMXxit8sSSjVPcY-10" target="XFXk-plWXWxICO0-8bLS-109" edge="1">
          <mxGeometry relative="1" as="geometry">
            <Array as="points">
              <mxPoint x="790" y="280" />
              <mxPoint x="636" y="280" />
            </Array>
          </mxGeometry>
        </mxCell>
        <mxCell id="FAEC4lMXxit8sSSjVPcY-10" value="FullfillmentInfo&lt;br&gt;发货信息" style="rounded=1;whiteSpace=wrap;html=1;" parent="1" vertex="1">
          <mxGeometry x="740" y="152.75" width="81" height="47.25" as="geometry" />
        </mxCell>
        <mxCell id="FAEC4lMXxit8sSSjVPcY-28" style="edgeStyle=elbowEdgeStyle;rounded=1;orthogonalLoop=1;jettySize=auto;html=1;exitX=0.5;exitY=1;exitDx=0;exitDy=0;entryX=1;entryY=0.5;entryDx=0;entryDy=0;entryPerimeter=0;elbow=vertical;jumpStyle=arc;" parent="1" source="FAEC4lMXxit8sSSjVPcY-13" target="XFXk-plWXWxICO0-8bLS-107" edge="1">
          <mxGeometry relative="1" as="geometry">
            <Array as="points">
              <mxPoint x="810" y="460" />
            </Array>
          </mxGeometry>
        </mxCell>
        <mxCell id="FAEC4lMXxit8sSSjVPcY-13" value="reviews" style="rounded=1;whiteSpace=wrap;html=1;" parent="1" vertex="1">
          <mxGeometry x="831" y="152.75" width="70" height="47.25" as="geometry" />
        </mxCell>
        <mxCell id="FAEC4lMXxit8sSSjVPcY-30" style="edgeStyle=orthogonalEdgeStyle;rounded=1;orthogonalLoop=1;jettySize=auto;html=1;exitX=1;exitY=0.5;exitDx=0;exitDy=0;entryX=1;entryY=1;entryDx=0;entryDy=-15;entryPerimeter=0;jumpStyle=arc;" parent="1" source="FAEC4lMXxit8sSSjVPcY-14" target="XFXk-plWXWxICO0-8bLS-107" edge="1">
          <mxGeometry relative="1" as="geometry" />
        </mxCell>
        <mxCell id="FAEC4lMXxit8sSSjVPcY-14" value="Gallery" style="rounded=1;whiteSpace=wrap;html=1;" parent="1" vertex="1">
          <mxGeometry x="920" y="153.75" width="70" height="46.25" as="geometry" />
        </mxCell>
        <mxCell id="FAEC4lMXxit8sSSjVPcY-15" value="supplier-service&lt;br&gt;动态信息查询" style="rounded=0;whiteSpace=wrap;html=1;fillColor=#f8cecc;strokeColor=#b85450;" parent="1" vertex="1">
          <mxGeometry x="130" y="340" width="120" height="60" as="geometry" />
        </mxCell>
        <mxCell id="FAEC4lMXxit8sSSjVPcY-16" value="" style="rounded=0;whiteSpace=wrap;html=1;fillColor=#fff2cc;strokeColor=#d6b656;" parent="1" vertex="1">
          <mxGeometry x="289.5" y="340" width="120" height="60" as="geometry" />
        </mxCell>
        <mxCell id="FAEC4lMXxit8sSSjVPcY-34" value="listing-server" style="text;html=1;strokeColor=none;fillColor=none;align=center;verticalAlign=middle;whiteSpace=wrap;rounded=0;" parent="1" vertex="1">
          <mxGeometry x="110" y="130" width="100" height="20" as="geometry" />
        </mxCell>
        <mxCell id="FAEC4lMXxit8sSSjVPcY-36" value="item-server" style="text;html=1;strokeColor=none;fillColor=none;align=center;verticalAlign=middle;whiteSpace=wrap;rounded=0;" parent="1" vertex="1">
          <mxGeometry x="455" y="130" width="100" height="20" as="geometry" />
        </mxCell>
        <mxCell id="FAEC4lMXxit8sSSjVPcY-50" value="元数据映射" style="rounded=1;whiteSpace=wrap;html=1;" parent="1" vertex="1">
          <mxGeometry x="317" y="360" width="65" height="30" as="geometry" />
        </mxCell>
        <mxCell id="FAEC4lMXxit8sSSjVPcY-52" value="metadata-server" style="text;html=1;strokeColor=none;fillColor=none;align=center;verticalAlign=middle;whiteSpace=wrap;rounded=0;" parent="1" vertex="1">
          <mxGeometry x="294.5" y="340" width="105" height="20" as="geometry" />
        </mxCell>
        <mxCell id="FAEC4lMXxit8sSSjVPcY-54" value="cron定时任务管理" style="rounded=1;whiteSpace=wrap;html=1;" parent="1" vertex="1">
          <mxGeometry x="139.5" y="625" width="70" height="40" as="geometry" />
        </mxCell>
        <mxCell id="FAEC4lMXxit8sSSjVPcY-55" value="listing-cron" style="text;html=1;strokeColor=none;fillColor=none;align=center;verticalAlign=middle;whiteSpace=wrap;rounded=0;" parent="1" vertex="1">
          <mxGeometry x="129.5" y="598.5" width="90" height="23" as="geometry" />
        </mxCell>
        <mxCell id="FAEC4lMXxit8sSSjVPcY-57" value="供应商数据下载" style="rounded=1;whiteSpace=wrap;html=1;" parent="1" vertex="1">
          <mxGeometry x="130" y="741" width="95" height="30" as="geometry" />
        </mxCell>
        <mxCell id="FAEC4lMXxit8sSSjVPcY-59" value="适配adaptor" style="rounded=1;whiteSpace=wrap;html=1;" parent="1" vertex="1">
          <mxGeometry x="229.5" y="741" width="75" height="30" as="geometry" />
        </mxCell>
        <mxCell id="FAEC4lMXxit8sSSjVPcY-62" value="itemfetch-server" style="text;html=1;strokeColor=none;fillColor=none;align=center;verticalAlign=middle;whiteSpace=wrap;rounded=0;" parent="1" vertex="1">
          <mxGeometry x="132.5" y="710" width="90" height="31" as="geometry" />
        </mxCell>
        <mxCell id="FAEC4lMXxit8sSSjVPcY-75" style="edgeStyle=elbowEdgeStyle;rounded=1;jumpStyle=arc;orthogonalLoop=1;jettySize=auto;elbow=vertical;html=1;exitX=1;exitY=0.5;exitDx=0;exitDy=0;entryX=-0.004;entryY=0.595;entryDx=0;entryDy=0;entryPerimeter=0;" parent="1" source="XFXk-plWXWxICO0-8bLS-93" target="XFXk-plWXWxICO0-8bLS-5" edge="1">
          <mxGeometry relative="1" as="geometry" />
        </mxCell>
        <mxCell id="XFXk-plWXWxICO0-8bLS-93" value="" style="shape=process;whiteSpace=wrap;html=1;backgroundOutline=1;fillColor=#f5f5f5;fontColor=#333333;strokeColor=#666666;" parent="1" vertex="1">
          <mxGeometry x="329.5" y="734.74" width="40" height="22.51" as="geometry" />
        </mxCell>
        <mxCell id="FAEC4lMXxit8sSSjVPcY-68" value="Hotel mapping" style="rounded=1;whiteSpace=wrap;html=1;" parent="1" vertex="1">
          <mxGeometry x="401.5" y="750.99" width="102.25" height="32.26" as="geometry" />
        </mxCell>
        <mxCell id="FAEC4lMXxit8sSSjVPcY-69" value="Room Mapping" style="rounded=1;whiteSpace=wrap;html=1;" parent="1" vertex="1">
          <mxGeometry x="511.25" y="750.99" width="90" height="32.26" as="geometry" />
        </mxCell>
        <mxCell id="FAEC4lMXxit8sSSjVPcY-71" value="area mapping" style="rounded=1;whiteSpace=wrap;html=1;" parent="1" vertex="1">
          <mxGeometry x="401.5" y="710.99" width="102.25" height="32.25" as="geometry" />
        </mxCell>
        <mxCell id="FAEC4lMXxit8sSSjVPcY-72" value="meta mapping" style="rounded=1;whiteSpace=wrap;html=1;" parent="1" vertex="1">
          <mxGeometry x="508.75" y="711.97" width="95" height="29.02" as="geometry" />
        </mxCell>
        <mxCell id="FAEC4lMXxit8sSSjVPcY-74" value="realtime-computing-server" style="text;html=1;strokeColor=none;fillColor=none;align=center;verticalAlign=middle;whiteSpace=wrap;rounded=0;" parent="1" vertex="1">
          <mxGeometry x="400.25" y="685.99" width="151" height="18" as="geometry" />
        </mxCell>
        <mxCell id="FAEC4lMXxit8sSSjVPcY-84" value="图片下载、裁剪、上传" style="rounded=1;whiteSpace=wrap;html=1;" parent="1" vertex="1">
          <mxGeometry x="729.75" y="734.74" width="140.5" height="30" as="geometry" />
        </mxCell>
        <mxCell id="FAEC4lMXxit8sSSjVPcY-85" value="&lt;meta charset=&quot;utf-8&quot;&gt;&lt;span style=&quot;color: rgb(0, 0, 0); font-family: Helvetica; font-size: 12px; font-style: normal; font-variant-ligatures: normal; font-variant-caps: normal; font-weight: 400; letter-spacing: normal; orphans: 2; text-align: center; text-indent: 0px; text-transform: none; widows: 2; word-spacing: 0px; -webkit-text-stroke-width: 0px; background-color: rgb(248, 249, 250); text-decoration-thickness: initial; text-decoration-style: initial; text-decoration-color: initial; float: none; display: inline !important;&quot;&gt;imageprocessing-server&lt;/span&gt;" style="text;whiteSpace=wrap;html=1;" parent="1" vertex="1">
          <mxGeometry x="720" y="710" width="160" height="40" as="geometry" />
        </mxCell>
        <mxCell id="FAEC4lMXxit8sSSjVPcY-87" value="&lt;meta charset=&quot;utf-8&quot;&gt;&lt;span style=&quot;color: rgb(0, 0, 0); font-family: Helvetica; font-size: 12px; font-style: normal; font-variant-ligatures: normal; font-variant-caps: normal; font-weight: 400; letter-spacing: normal; orphans: 2; text-align: center; text-indent: 0px; text-transform: none; widows: 2; word-spacing: 0px; -webkit-text-stroke-width: 0px; background-color: rgb(248, 249, 250); text-decoration-thickness: initial; text-decoration-style: initial; text-decoration-color: initial; float: none; display: inline !important;&quot;&gt;onelinedatasync-server&lt;/span&gt;" style="text;whiteSpace=wrap;html=1;" parent="1" vertex="1">
          <mxGeometry x="563.75" y="540" width="136.25" height="33" as="geometry" />
        </mxCell>
        <mxCell id="FAEC4lMXxit8sSSjVPcY-89" value="数据消费，同步" style="rounded=1;whiteSpace=wrap;html=1;" parent="1" vertex="1">
          <mxGeometry x="593.75" y="570" width="106.25" height="30" as="geometry" />
        </mxCell>
      </root>
    </mxGraphModel>
  </diagram>
  <diagram id="rgbmW1cwhyhcrCg5ORDj" name="Page-2">
    <mxGraphModel dx="1306" dy="836" grid="1" gridSize="10" guides="1" tooltips="1" connect="1" arrows="1" fold="1" page="1" pageScale="1" pageWidth="827" pageHeight="1169" math="0" shadow="0">
      <root>
        <mxCell id="_sT6Pis9OAbUE3QjG6fV-0" />
        <mxCell id="_sT6Pis9OAbUE3QjG6fV-1" parent="_sT6Pis9OAbUE3QjG6fV-0" />
        <mxCell id="_sT6Pis9OAbUE3QjG6fV-2" value="" style="rounded=0;whiteSpace=wrap;html=1;dashed=1;" parent="_sT6Pis9OAbUE3QjG6fV-1" vertex="1">
          <mxGeometry x="624" y="160" width="466" height="350" as="geometry" />
        </mxCell>
        <mxCell id="_sT6Pis9OAbUE3QjG6fV-3" style="edgeStyle=orthogonalEdgeStyle;curved=1;rounded=1;orthogonalLoop=1;jettySize=auto;html=1;exitX=0;exitY=0.5;exitDx=0;exitDy=0;entryX=0;entryY=0.5;entryDx=0;entryDy=0;dashed=1;fillColor=#e1d5e7;strokeColor=#9673a6;" parent="_sT6Pis9OAbUE3QjG6fV-1" source="_sT6Pis9OAbUE3QjG6fV-5" target="_sT6Pis9OAbUE3QjG6fV-75" edge="1">
          <mxGeometry relative="1" as="geometry" />
        </mxCell>
        <mxCell id="_sT6Pis9OAbUE3QjG6fV-4" value="room" style="edgeLabel;html=1;align=center;verticalAlign=middle;resizable=0;points=[];" parent="_sT6Pis9OAbUE3QjG6fV-3" vertex="1" connectable="0">
          <mxGeometry x="0.17" y="31" relative="1" as="geometry">
            <mxPoint x="9" y="14" as="offset" />
          </mxGeometry>
        </mxCell>
        <mxCell id="_sT6Pis9OAbUE3QjG6fV-5" value="" style="rounded=1;whiteSpace=wrap;html=1;fillColor=#dae8fc;strokeColor=#6c8ebf;" parent="_sT6Pis9OAbUE3QjG6fV-1" vertex="1">
          <mxGeometry x="160" y="435" width="420" height="55" as="geometry" />
        </mxCell>
        <mxCell id="_sT6Pis9OAbUE3QjG6fV-6" style="edgeStyle=orthogonalEdgeStyle;curved=1;rounded=1;orthogonalLoop=1;jettySize=auto;html=1;exitX=0;exitY=0.5;exitDx=0;exitDy=0;entryX=0;entryY=0.75;entryDx=0;entryDy=0;fillColor=#d5e8d4;strokeColor=#82b366;" parent="_sT6Pis9OAbUE3QjG6fV-1" source="_sT6Pis9OAbUE3QjG6fV-8" target="_sT6Pis9OAbUE3QjG6fV-76" edge="1">
          <mxGeometry relative="1" as="geometry" />
        </mxCell>
        <mxCell id="_sT6Pis9OAbUE3QjG6fV-7" value="room type" style="edgeLabel;html=1;align=center;verticalAlign=middle;resizable=0;points=[];" parent="_sT6Pis9OAbUE3QjG6fV-6" vertex="1" connectable="0">
          <mxGeometry x="0.5518" y="42" relative="1" as="geometry">
            <mxPoint x="12" as="offset" />
          </mxGeometry>
        </mxCell>
        <mxCell id="_sT6Pis9OAbUE3QjG6fV-8" value="" style="rounded=1;whiteSpace=wrap;html=1;fillColor=#d5e8d4;strokeColor=#82b366;" parent="_sT6Pis9OAbUE3QjG6fV-1" vertex="1">
          <mxGeometry x="160" y="345" width="420" height="55" as="geometry" />
        </mxCell>
        <mxCell id="_sT6Pis9OAbUE3QjG6fV-9" style="edgeStyle=orthogonalEdgeStyle;orthogonalLoop=1;jettySize=auto;html=1;exitX=0;exitY=0.5;exitDx=0;exitDy=0;entryX=0;entryY=0.5;entryDx=0;entryDy=0;rounded=1;curved=1;fillColor=#fff2cc;strokeColor=#d6b656;" parent="_sT6Pis9OAbUE3QjG6fV-1" source="_sT6Pis9OAbUE3QjG6fV-11" target="_sT6Pis9OAbUE3QjG6fV-77" edge="1">
          <mxGeometry relative="1" as="geometry">
            <Array as="points">
              <mxPoint x="130" y="293" />
              <mxPoint x="130" y="630" />
            </Array>
          </mxGeometry>
        </mxCell>
        <mxCell id="_sT6Pis9OAbUE3QjG6fV-10" value="hotel" style="edgeLabel;html=1;align=center;verticalAlign=middle;resizable=0;points=[];" parent="_sT6Pis9OAbUE3QjG6fV-9" vertex="1" connectable="0">
          <mxGeometry x="0.5967" y="23" relative="1" as="geometry">
            <mxPoint as="offset" />
          </mxGeometry>
        </mxCell>
        <mxCell id="_sT6Pis9OAbUE3QjG6fV-11" value="" style="rounded=1;whiteSpace=wrap;html=1;fillColor=#fff2cc;strokeColor=#d6b656;" parent="_sT6Pis9OAbUE3QjG6fV-1" vertex="1">
          <mxGeometry x="160" y="265" width="420" height="55" as="geometry" />
        </mxCell>
        <mxCell id="_sT6Pis9OAbUE3QjG6fV-12" style="edgeStyle=none;orthogonalLoop=1;jettySize=auto;html=1;exitX=0.5;exitY=1;exitDx=0;exitDy=0;entryX=0.5;entryY=0;entryDx=0;entryDy=0;" parent="_sT6Pis9OAbUE3QjG6fV-1" source="_sT6Pis9OAbUE3QjG6fV-15" target="_sT6Pis9OAbUE3QjG6fV-17" edge="1">
          <mxGeometry relative="1" as="geometry" />
        </mxCell>
        <mxCell id="_sT6Pis9OAbUE3QjG6fV-13" style="edgeStyle=none;orthogonalLoop=1;jettySize=auto;html=1;exitX=0.5;exitY=1;exitDx=0;exitDy=0;entryX=0.5;entryY=0;entryDx=0;entryDy=0;" parent="_sT6Pis9OAbUE3QjG6fV-1" source="_sT6Pis9OAbUE3QjG6fV-15" target="_sT6Pis9OAbUE3QjG6fV-20" edge="1">
          <mxGeometry relative="1" as="geometry" />
        </mxCell>
        <mxCell id="_sT6Pis9OAbUE3QjG6fV-14" style="edgeStyle=none;orthogonalLoop=1;jettySize=auto;html=1;exitX=0.5;exitY=1;exitDx=0;exitDy=0;entryX=0.5;entryY=0;entryDx=0;entryDy=0;" parent="_sT6Pis9OAbUE3QjG6fV-1" source="_sT6Pis9OAbUE3QjG6fV-15" target="_sT6Pis9OAbUE3QjG6fV-22" edge="1">
          <mxGeometry relative="1" as="geometry" />
        </mxCell>
        <mxCell id="_sT6Pis9OAbUE3QjG6fV-15" value="Supplier(Agoda)" style="rounded=0;whiteSpace=wrap;html=1;fillColor=#f5f5f5;fontColor=#333333;strokeColor=#666666;" parent="_sT6Pis9OAbUE3QjG6fV-1" vertex="1">
          <mxGeometry x="160" y="190" width="410" height="40" as="geometry" />
        </mxCell>
        <mxCell id="_sT6Pis9OAbUE3QjG6fV-16" style="edgeStyle=orthogonalEdgeStyle;rounded=1;orthogonalLoop=1;jettySize=auto;html=1;exitX=0.5;exitY=1;exitDx=0;exitDy=0;entryX=0.5;entryY=0;entryDx=0;entryDy=0;" parent="_sT6Pis9OAbUE3QjG6fV-1" source="_sT6Pis9OAbUE3QjG6fV-17" target="_sT6Pis9OAbUE3QjG6fV-25" edge="1">
          <mxGeometry relative="1" as="geometry" />
        </mxCell>
        <mxCell id="_sT6Pis9OAbUE3QjG6fV-17" value="hotel1" style="rounded=0;whiteSpace=wrap;html=1;" parent="_sT6Pis9OAbUE3QjG6fV-1" vertex="1">
          <mxGeometry x="168" y="280" width="70" height="30" as="geometry" />
        </mxCell>
        <mxCell id="_sT6Pis9OAbUE3QjG6fV-18" style="rounded=1;orthogonalLoop=1;jettySize=auto;html=1;exitX=0.5;exitY=1;exitDx=0;exitDy=0;entryX=0.5;entryY=0;entryDx=0;entryDy=0;" parent="_sT6Pis9OAbUE3QjG6fV-1" source="_sT6Pis9OAbUE3QjG6fV-20" target="_sT6Pis9OAbUE3QjG6fV-27" edge="1">
          <mxGeometry relative="1" as="geometry" />
        </mxCell>
        <mxCell id="_sT6Pis9OAbUE3QjG6fV-19" style="rounded=1;orthogonalLoop=1;jettySize=auto;html=1;exitX=0.5;exitY=1;exitDx=0;exitDy=0;entryX=0.5;entryY=0;entryDx=0;entryDy=0;" parent="_sT6Pis9OAbUE3QjG6fV-1" source="_sT6Pis9OAbUE3QjG6fV-20" target="_sT6Pis9OAbUE3QjG6fV-29" edge="1">
          <mxGeometry relative="1" as="geometry" />
        </mxCell>
        <mxCell id="_sT6Pis9OAbUE3QjG6fV-20" value="hotel2" style="rounded=0;whiteSpace=wrap;html=1;" parent="_sT6Pis9OAbUE3QjG6fV-1" vertex="1">
          <mxGeometry x="319" y="280" width="70" height="30" as="geometry" />
        </mxCell>
        <mxCell id="_sT6Pis9OAbUE3QjG6fV-21" style="edgeStyle=orthogonalEdgeStyle;rounded=1;orthogonalLoop=1;jettySize=auto;html=1;exitX=0.5;exitY=1;exitDx=0;exitDy=0;entryX=0.5;entryY=0;entryDx=0;entryDy=0;" parent="_sT6Pis9OAbUE3QjG6fV-1" source="_sT6Pis9OAbUE3QjG6fV-22" target="_sT6Pis9OAbUE3QjG6fV-32" edge="1">
          <mxGeometry relative="1" as="geometry" />
        </mxCell>
        <mxCell id="_sT6Pis9OAbUE3QjG6fV-22" value="hotel3" style="rounded=0;whiteSpace=wrap;html=1;" parent="_sT6Pis9OAbUE3QjG6fV-1" vertex="1">
          <mxGeometry x="485" y="280" width="72.5" height="30" as="geometry" />
        </mxCell>
        <mxCell id="_sT6Pis9OAbUE3QjG6fV-23" style="rounded=1;orthogonalLoop=1;jettySize=auto;html=1;exitX=0.5;exitY=1;exitDx=0;exitDy=0;entryX=0.5;entryY=0;entryDx=0;entryDy=0;" parent="_sT6Pis9OAbUE3QjG6fV-1" source="_sT6Pis9OAbUE3QjG6fV-25" target="_sT6Pis9OAbUE3QjG6fV-33" edge="1">
          <mxGeometry relative="1" as="geometry" />
        </mxCell>
        <mxCell id="_sT6Pis9OAbUE3QjG6fV-24" style="rounded=1;orthogonalLoop=1;jettySize=auto;html=1;exitX=0.5;exitY=1;exitDx=0;exitDy=0;entryX=0.5;entryY=0;entryDx=0;entryDy=0;" parent="_sT6Pis9OAbUE3QjG6fV-1" source="_sT6Pis9OAbUE3QjG6fV-25" target="_sT6Pis9OAbUE3QjG6fV-34" edge="1">
          <mxGeometry relative="1" as="geometry" />
        </mxCell>
        <mxCell id="_sT6Pis9OAbUE3QjG6fV-25" value="room_type1" style="rounded=0;whiteSpace=wrap;html=1;" parent="_sT6Pis9OAbUE3QjG6fV-1" vertex="1">
          <mxGeometry x="167.5" y="360" width="82.5" height="30" as="geometry" />
        </mxCell>
        <mxCell id="_sT6Pis9OAbUE3QjG6fV-26" style="rounded=1;orthogonalLoop=1;jettySize=auto;html=1;exitX=0.5;exitY=1;exitDx=0;exitDy=0;entryX=0.5;entryY=0;entryDx=0;entryDy=0;" parent="_sT6Pis9OAbUE3QjG6fV-1" source="_sT6Pis9OAbUE3QjG6fV-27" target="_sT6Pis9OAbUE3QjG6fV-35" edge="1">
          <mxGeometry relative="1" as="geometry" />
        </mxCell>
        <mxCell id="_sT6Pis9OAbUE3QjG6fV-27" value="room_type2" style="rounded=0;whiteSpace=wrap;html=1;" parent="_sT6Pis9OAbUE3QjG6fV-1" vertex="1">
          <mxGeometry x="272" y="360" width="82.5" height="30" as="geometry" />
        </mxCell>
        <mxCell id="_sT6Pis9OAbUE3QjG6fV-28" style="orthogonalLoop=1;jettySize=auto;html=1;exitX=0.5;exitY=1;exitDx=0;exitDy=0;entryX=0.5;entryY=0;entryDx=0;entryDy=0;" parent="_sT6Pis9OAbUE3QjG6fV-1" source="_sT6Pis9OAbUE3QjG6fV-29" target="_sT6Pis9OAbUE3QjG6fV-36" edge="1">
          <mxGeometry relative="1" as="geometry" />
        </mxCell>
        <mxCell id="_sT6Pis9OAbUE3QjG6fV-29" value="room_type3" style="rounded=0;whiteSpace=wrap;html=1;" parent="_sT6Pis9OAbUE3QjG6fV-1" vertex="1">
          <mxGeometry x="376" y="360" width="82.5" height="30" as="geometry" />
        </mxCell>
        <mxCell id="_sT6Pis9OAbUE3QjG6fV-30" style="rounded=1;orthogonalLoop=1;jettySize=auto;html=1;exitX=0.5;exitY=1;exitDx=0;exitDy=0;entryX=0.5;entryY=0;entryDx=0;entryDy=0;" parent="_sT6Pis9OAbUE3QjG6fV-1" source="_sT6Pis9OAbUE3QjG6fV-32" target="_sT6Pis9OAbUE3QjG6fV-37" edge="1">
          <mxGeometry relative="1" as="geometry" />
        </mxCell>
        <mxCell id="_sT6Pis9OAbUE3QjG6fV-31" style="rounded=1;orthogonalLoop=1;jettySize=auto;html=1;exitX=0.5;exitY=1;exitDx=0;exitDy=0;entryX=0.75;entryY=0;entryDx=0;entryDy=0;" parent="_sT6Pis9OAbUE3QjG6fV-1" source="_sT6Pis9OAbUE3QjG6fV-32" target="_sT6Pis9OAbUE3QjG6fV-38" edge="1">
          <mxGeometry relative="1" as="geometry" />
        </mxCell>
        <mxCell id="_sT6Pis9OAbUE3QjG6fV-32" value="room_type4" style="rounded=0;whiteSpace=wrap;html=1;" parent="_sT6Pis9OAbUE3QjG6fV-1" vertex="1">
          <mxGeometry x="482.5" y="360" width="77.5" height="30" as="geometry" />
        </mxCell>
        <mxCell id="_sT6Pis9OAbUE3QjG6fV-33" value="rom1" style="rounded=0;whiteSpace=wrap;html=1;" parent="_sT6Pis9OAbUE3QjG6fV-1" vertex="1">
          <mxGeometry x="168" y="450" width="52" height="30" as="geometry" />
        </mxCell>
        <mxCell id="_sT6Pis9OAbUE3QjG6fV-34" value="rom2" style="rounded=0;whiteSpace=wrap;html=1;" parent="_sT6Pis9OAbUE3QjG6fV-1" vertex="1">
          <mxGeometry x="233" y="450" width="60" height="30" as="geometry" />
        </mxCell>
        <mxCell id="_sT6Pis9OAbUE3QjG6fV-35" value="rom3" style="rounded=0;whiteSpace=wrap;html=1;" parent="_sT6Pis9OAbUE3QjG6fV-1" vertex="1">
          <mxGeometry x="302" y="450" width="60" height="30" as="geometry" />
        </mxCell>
        <mxCell id="_sT6Pis9OAbUE3QjG6fV-36" value="rom4" style="rounded=0;whiteSpace=wrap;html=1;" parent="_sT6Pis9OAbUE3QjG6fV-1" vertex="1">
          <mxGeometry x="372" y="450" width="58.5" height="30" as="geometry" />
        </mxCell>
        <mxCell id="_sT6Pis9OAbUE3QjG6fV-37" value="rom5" style="rounded=0;whiteSpace=wrap;html=1;" parent="_sT6Pis9OAbUE3QjG6fV-1" vertex="1">
          <mxGeometry x="441" y="450" width="60" height="30" as="geometry" />
        </mxCell>
        <mxCell id="_sT6Pis9OAbUE3QjG6fV-38" value="rom6" style="rounded=0;whiteSpace=wrap;html=1;" parent="_sT6Pis9OAbUE3QjG6fV-1" vertex="1">
          <mxGeometry x="510" y="450" width="60" height="30" as="geometry" />
        </mxCell>
        <mxCell id="_sT6Pis9OAbUE3QjG6fV-39" style="edgeStyle=orthogonalEdgeStyle;curved=1;rounded=1;orthogonalLoop=1;jettySize=auto;html=1;exitX=1;exitY=0.5;exitDx=0;exitDy=0;entryX=1;entryY=0.5;entryDx=0;entryDy=0;dashed=1;" parent="_sT6Pis9OAbUE3QjG6fV-1" source="_sT6Pis9OAbUE3QjG6fV-41" target="_sT6Pis9OAbUE3QjG6fV-75" edge="1">
          <mxGeometry relative="1" as="geometry" />
        </mxCell>
        <mxCell id="_sT6Pis9OAbUE3QjG6fV-40" value="room" style="edgeLabel;html=1;align=center;verticalAlign=middle;resizable=0;points=[];" parent="_sT6Pis9OAbUE3QjG6fV-39" vertex="1" connectable="0">
          <mxGeometry x="0.513" y="-22" relative="1" as="geometry">
            <mxPoint as="offset" />
          </mxGeometry>
        </mxCell>
        <mxCell id="_sT6Pis9OAbUE3QjG6fV-41" value="" style="rounded=1;whiteSpace=wrap;html=1;fillColor=#dae8fc;strokeColor=#6c8ebf;" parent="_sT6Pis9OAbUE3QjG6fV-1" vertex="1">
          <mxGeometry x="650" y="435" width="420" height="55" as="geometry" />
        </mxCell>
        <mxCell id="_sT6Pis9OAbUE3QjG6fV-42" style="edgeStyle=orthogonalEdgeStyle;curved=1;rounded=1;orthogonalLoop=1;jettySize=auto;html=1;exitX=1;exitY=0.5;exitDx=0;exitDy=0;entryX=1;entryY=0.5;entryDx=0;entryDy=0;dashed=1;fillColor=#d5e8d4;strokeColor=#82b366;" parent="_sT6Pis9OAbUE3QjG6fV-1" source="_sT6Pis9OAbUE3QjG6fV-44" target="_sT6Pis9OAbUE3QjG6fV-76" edge="1">
          <mxGeometry relative="1" as="geometry" />
        </mxCell>
        <mxCell id="_sT6Pis9OAbUE3QjG6fV-43" value="room type" style="edgeLabel;html=1;align=center;verticalAlign=middle;resizable=0;points=[];" parent="_sT6Pis9OAbUE3QjG6fV-42" vertex="1" connectable="0">
          <mxGeometry x="0.5332" y="-21" relative="1" as="geometry">
            <mxPoint x="1" as="offset" />
          </mxGeometry>
        </mxCell>
        <mxCell id="_sT6Pis9OAbUE3QjG6fV-44" value="" style="rounded=1;whiteSpace=wrap;html=1;fillColor=#d5e8d4;strokeColor=#82b366;" parent="_sT6Pis9OAbUE3QjG6fV-1" vertex="1">
          <mxGeometry x="650" y="345" width="420" height="55" as="geometry" />
        </mxCell>
        <mxCell id="_sT6Pis9OAbUE3QjG6fV-45" style="edgeStyle=orthogonalEdgeStyle;curved=1;rounded=1;orthogonalLoop=1;jettySize=auto;html=1;exitX=1;exitY=0.5;exitDx=0;exitDy=0;entryX=1;entryY=0.5;entryDx=0;entryDy=0;dashed=1;fillColor=#fff2cc;strokeColor=#d6b656;" parent="_sT6Pis9OAbUE3QjG6fV-1" source="_sT6Pis9OAbUE3QjG6fV-47" target="_sT6Pis9OAbUE3QjG6fV-77" edge="1">
          <mxGeometry relative="1" as="geometry" />
        </mxCell>
        <mxCell id="_sT6Pis9OAbUE3QjG6fV-46" value="hotel" style="edgeLabel;html=1;align=center;verticalAlign=middle;resizable=0;points=[];" parent="_sT6Pis9OAbUE3QjG6fV-45" vertex="1" connectable="0">
          <mxGeometry x="0.5466" y="-19" relative="1" as="geometry">
            <mxPoint x="1" as="offset" />
          </mxGeometry>
        </mxCell>
        <mxCell id="_sT6Pis9OAbUE3QjG6fV-47" value="" style="rounded=1;whiteSpace=wrap;html=1;fillColor=#fff2cc;strokeColor=#d6b656;" parent="_sT6Pis9OAbUE3QjG6fV-1" vertex="1">
          <mxGeometry x="650" y="265" width="420" height="55" as="geometry" />
        </mxCell>
        <mxCell id="_sT6Pis9OAbUE3QjG6fV-48" style="edgeStyle=none;orthogonalLoop=1;jettySize=auto;html=1;exitX=0.5;exitY=1;exitDx=0;exitDy=0;entryX=0.5;entryY=0;entryDx=0;entryDy=0;" parent="_sT6Pis9OAbUE3QjG6fV-1" source="_sT6Pis9OAbUE3QjG6fV-51" target="_sT6Pis9OAbUE3QjG6fV-53" edge="1">
          <mxGeometry relative="1" as="geometry" />
        </mxCell>
        <mxCell id="_sT6Pis9OAbUE3QjG6fV-49" style="edgeStyle=none;orthogonalLoop=1;jettySize=auto;html=1;exitX=0.5;exitY=1;exitDx=0;exitDy=0;entryX=0.5;entryY=0;entryDx=0;entryDy=0;" parent="_sT6Pis9OAbUE3QjG6fV-1" source="_sT6Pis9OAbUE3QjG6fV-51" target="_sT6Pis9OAbUE3QjG6fV-56" edge="1">
          <mxGeometry relative="1" as="geometry" />
        </mxCell>
        <mxCell id="_sT6Pis9OAbUE3QjG6fV-50" style="edgeStyle=none;orthogonalLoop=1;jettySize=auto;html=1;exitX=0.5;exitY=1;exitDx=0;exitDy=0;entryX=0.5;entryY=0;entryDx=0;entryDy=0;" parent="_sT6Pis9OAbUE3QjG6fV-1" source="_sT6Pis9OAbUE3QjG6fV-51" target="_sT6Pis9OAbUE3QjG6fV-58" edge="1">
          <mxGeometry relative="1" as="geometry" />
        </mxCell>
        <mxCell id="_sT6Pis9OAbUE3QjG6fV-51" value="SupplierX" style="rounded=0;whiteSpace=wrap;html=1;fillColor=#f5f5f5;fontColor=#333333;strokeColor=#666666;" parent="_sT6Pis9OAbUE3QjG6fV-1" vertex="1">
          <mxGeometry x="650" y="190" width="410" height="40" as="geometry" />
        </mxCell>
        <mxCell id="_sT6Pis9OAbUE3QjG6fV-52" style="rounded=1;orthogonalLoop=1;jettySize=auto;html=1;exitX=0.5;exitY=1;exitDx=0;exitDy=0;entryX=0.5;entryY=0;entryDx=0;entryDy=0;" parent="_sT6Pis9OAbUE3QjG6fV-1" source="_sT6Pis9OAbUE3QjG6fV-53" target="_sT6Pis9OAbUE3QjG6fV-61" edge="1">
          <mxGeometry relative="1" as="geometry" />
        </mxCell>
        <mxCell id="_sT6Pis9OAbUE3QjG6fV-53" value="hotelA" style="rounded=0;whiteSpace=wrap;html=1;" parent="_sT6Pis9OAbUE3QjG6fV-1" vertex="1">
          <mxGeometry x="658" y="280" width="70" height="30" as="geometry" />
        </mxCell>
        <mxCell id="_sT6Pis9OAbUE3QjG6fV-54" style="rounded=1;orthogonalLoop=1;jettySize=auto;html=1;exitX=0.5;exitY=1;exitDx=0;exitDy=0;entryX=0.5;entryY=0;entryDx=0;entryDy=0;" parent="_sT6Pis9OAbUE3QjG6fV-1" source="_sT6Pis9OAbUE3QjG6fV-56" target="_sT6Pis9OAbUE3QjG6fV-63" edge="1">
          <mxGeometry relative="1" as="geometry" />
        </mxCell>
        <mxCell id="_sT6Pis9OAbUE3QjG6fV-55" style="rounded=1;orthogonalLoop=1;jettySize=auto;html=1;exitX=0.5;exitY=1;exitDx=0;exitDy=0;entryX=0.5;entryY=0;entryDx=0;entryDy=0;" parent="_sT6Pis9OAbUE3QjG6fV-1" source="_sT6Pis9OAbUE3QjG6fV-56" target="_sT6Pis9OAbUE3QjG6fV-65" edge="1">
          <mxGeometry relative="1" as="geometry" />
        </mxCell>
        <mxCell id="_sT6Pis9OAbUE3QjG6fV-56" value="hotelB" style="rounded=0;whiteSpace=wrap;html=1;" parent="_sT6Pis9OAbUE3QjG6fV-1" vertex="1">
          <mxGeometry x="809" y="280" width="70" height="30" as="geometry" />
        </mxCell>
        <mxCell id="_sT6Pis9OAbUE3QjG6fV-57" style="edgeStyle=orthogonalEdgeStyle;rounded=1;orthogonalLoop=1;jettySize=auto;html=1;exitX=0.5;exitY=1;exitDx=0;exitDy=0;entryX=0.5;entryY=0;entryDx=0;entryDy=0;" parent="_sT6Pis9OAbUE3QjG6fV-1" source="_sT6Pis9OAbUE3QjG6fV-58" target="_sT6Pis9OAbUE3QjG6fV-68" edge="1">
          <mxGeometry relative="1" as="geometry" />
        </mxCell>
        <mxCell id="_sT6Pis9OAbUE3QjG6fV-58" value="hotelC" style="rounded=0;whiteSpace=wrap;html=1;" parent="_sT6Pis9OAbUE3QjG6fV-1" vertex="1">
          <mxGeometry x="975" y="280" width="72.5" height="30" as="geometry" />
        </mxCell>
        <mxCell id="_sT6Pis9OAbUE3QjG6fV-59" style="rounded=1;orthogonalLoop=1;jettySize=auto;html=1;exitX=0.5;exitY=1;exitDx=0;exitDy=0;entryX=0.5;entryY=0;entryDx=0;entryDy=0;" parent="_sT6Pis9OAbUE3QjG6fV-1" source="_sT6Pis9OAbUE3QjG6fV-61" target="_sT6Pis9OAbUE3QjG6fV-69" edge="1">
          <mxGeometry relative="1" as="geometry" />
        </mxCell>
        <mxCell id="_sT6Pis9OAbUE3QjG6fV-60" style="rounded=1;orthogonalLoop=1;jettySize=auto;html=1;exitX=0.5;exitY=1;exitDx=0;exitDy=0;entryX=0.5;entryY=0;entryDx=0;entryDy=0;" parent="_sT6Pis9OAbUE3QjG6fV-1" source="_sT6Pis9OAbUE3QjG6fV-61" target="_sT6Pis9OAbUE3QjG6fV-70" edge="1">
          <mxGeometry relative="1" as="geometry" />
        </mxCell>
        <mxCell id="_sT6Pis9OAbUE3QjG6fV-61" value="room_typeA" style="rounded=0;whiteSpace=wrap;html=1;" parent="_sT6Pis9OAbUE3QjG6fV-1" vertex="1">
          <mxGeometry x="657.5" y="360" width="82.5" height="30" as="geometry" />
        </mxCell>
        <mxCell id="_sT6Pis9OAbUE3QjG6fV-62" style="rounded=1;orthogonalLoop=1;jettySize=auto;html=1;exitX=0.5;exitY=1;exitDx=0;exitDy=0;entryX=0.5;entryY=0;entryDx=0;entryDy=0;" parent="_sT6Pis9OAbUE3QjG6fV-1" source="_sT6Pis9OAbUE3QjG6fV-63" target="_sT6Pis9OAbUE3QjG6fV-71" edge="1">
          <mxGeometry relative="1" as="geometry" />
        </mxCell>
        <mxCell id="_sT6Pis9OAbUE3QjG6fV-63" value="room_typeB" style="rounded=0;whiteSpace=wrap;html=1;" parent="_sT6Pis9OAbUE3QjG6fV-1" vertex="1">
          <mxGeometry x="762" y="360" width="82.5" height="30" as="geometry" />
        </mxCell>
        <mxCell id="_sT6Pis9OAbUE3QjG6fV-64" style="orthogonalLoop=1;jettySize=auto;html=1;exitX=0.5;exitY=1;exitDx=0;exitDy=0;entryX=0.5;entryY=0;entryDx=0;entryDy=0;" parent="_sT6Pis9OAbUE3QjG6fV-1" source="_sT6Pis9OAbUE3QjG6fV-65" target="_sT6Pis9OAbUE3QjG6fV-72" edge="1">
          <mxGeometry relative="1" as="geometry" />
        </mxCell>
        <mxCell id="_sT6Pis9OAbUE3QjG6fV-65" value="room_typeC" style="rounded=0;whiteSpace=wrap;html=1;" parent="_sT6Pis9OAbUE3QjG6fV-1" vertex="1">
          <mxGeometry x="866" y="360" width="82.5" height="30" as="geometry" />
        </mxCell>
        <mxCell id="_sT6Pis9OAbUE3QjG6fV-66" style="rounded=1;orthogonalLoop=1;jettySize=auto;html=1;exitX=0.5;exitY=1;exitDx=0;exitDy=0;entryX=0.5;entryY=0;entryDx=0;entryDy=0;" parent="_sT6Pis9OAbUE3QjG6fV-1" source="_sT6Pis9OAbUE3QjG6fV-68" target="_sT6Pis9OAbUE3QjG6fV-73" edge="1">
          <mxGeometry relative="1" as="geometry" />
        </mxCell>
        <mxCell id="_sT6Pis9OAbUE3QjG6fV-67" style="rounded=1;orthogonalLoop=1;jettySize=auto;html=1;exitX=0.5;exitY=1;exitDx=0;exitDy=0;entryX=0.75;entryY=0;entryDx=0;entryDy=0;" parent="_sT6Pis9OAbUE3QjG6fV-1" source="_sT6Pis9OAbUE3QjG6fV-68" target="_sT6Pis9OAbUE3QjG6fV-74" edge="1">
          <mxGeometry relative="1" as="geometry" />
        </mxCell>
        <mxCell id="_sT6Pis9OAbUE3QjG6fV-68" value="room_typeD" style="rounded=0;whiteSpace=wrap;html=1;" parent="_sT6Pis9OAbUE3QjG6fV-1" vertex="1">
          <mxGeometry x="972.5" y="360" width="77.5" height="30" as="geometry" />
        </mxCell>
        <mxCell id="_sT6Pis9OAbUE3QjG6fV-69" value="romA" style="rounded=0;whiteSpace=wrap;html=1;" parent="_sT6Pis9OAbUE3QjG6fV-1" vertex="1">
          <mxGeometry x="658" y="450" width="52" height="30" as="geometry" />
        </mxCell>
        <mxCell id="_sT6Pis9OAbUE3QjG6fV-70" value="romB" style="rounded=0;whiteSpace=wrap;html=1;" parent="_sT6Pis9OAbUE3QjG6fV-1" vertex="1">
          <mxGeometry x="723" y="450" width="60" height="30" as="geometry" />
        </mxCell>
        <mxCell id="_sT6Pis9OAbUE3QjG6fV-71" value="romC" style="rounded=0;whiteSpace=wrap;html=1;" parent="_sT6Pis9OAbUE3QjG6fV-1" vertex="1">
          <mxGeometry x="792" y="450" width="60" height="30" as="geometry" />
        </mxCell>
        <mxCell id="_sT6Pis9OAbUE3QjG6fV-72" value="romD" style="rounded=0;whiteSpace=wrap;html=1;" parent="_sT6Pis9OAbUE3QjG6fV-1" vertex="1">
          <mxGeometry x="862" y="450" width="58.5" height="30" as="geometry" />
        </mxCell>
        <mxCell id="_sT6Pis9OAbUE3QjG6fV-73" value="romE" style="rounded=0;whiteSpace=wrap;html=1;" parent="_sT6Pis9OAbUE3QjG6fV-1" vertex="1">
          <mxGeometry x="931" y="450" width="60" height="30" as="geometry" />
        </mxCell>
        <mxCell id="_sT6Pis9OAbUE3QjG6fV-74" value="romF" style="rounded=0;whiteSpace=wrap;html=1;" parent="_sT6Pis9OAbUE3QjG6fV-1" vertex="1">
          <mxGeometry x="1000" y="450" width="60" height="30" as="geometry" />
        </mxCell>
        <mxCell id="_sT6Pis9OAbUE3QjG6fV-75" value="" style="rounded=1;whiteSpace=wrap;html=1;fillColor=#dae8fc;strokeColor=#6c8ebf;" parent="_sT6Pis9OAbUE3QjG6fV-1" vertex="1">
          <mxGeometry x="303" y="770" width="549" height="60" as="geometry" />
        </mxCell>
        <mxCell id="_sT6Pis9OAbUE3QjG6fV-76" value="" style="rounded=1;whiteSpace=wrap;html=1;fillColor=#d5e8d4;strokeColor=#82b366;" parent="_sT6Pis9OAbUE3QjG6fV-1" vertex="1">
          <mxGeometry x="303" y="680" width="549" height="60" as="geometry" />
        </mxCell>
        <mxCell id="_sT6Pis9OAbUE3QjG6fV-77" value="" style="rounded=1;whiteSpace=wrap;html=1;fillColor=#fff2cc;strokeColor=#d6b656;" parent="_sT6Pis9OAbUE3QjG6fV-1" vertex="1">
          <mxGeometry x="303" y="600" width="549" height="60" as="geometry" />
        </mxCell>
        <mxCell id="_sT6Pis9OAbUE3QjG6fV-78" style="edgeStyle=orthogonalEdgeStyle;rounded=1;orthogonalLoop=1;jettySize=auto;html=1;exitX=0.5;exitY=1;exitDx=0;exitDy=0;entryX=0.5;entryY=0;entryDx=0;entryDy=0;" parent="_sT6Pis9OAbUE3QjG6fV-1" source="_sT6Pis9OAbUE3QjG6fV-79" target="_sT6Pis9OAbUE3QjG6fV-87" edge="1">
          <mxGeometry relative="1" as="geometry" />
        </mxCell>
        <mxCell id="_sT6Pis9OAbUE3QjG6fV-79" value="hotel1" style="rounded=0;whiteSpace=wrap;html=1;" parent="_sT6Pis9OAbUE3QjG6fV-1" vertex="1">
          <mxGeometry x="316.75" y="615" width="70" height="30" as="geometry" />
        </mxCell>
        <mxCell id="_sT6Pis9OAbUE3QjG6fV-80" style="rounded=1;orthogonalLoop=1;jettySize=auto;html=1;exitX=0.5;exitY=1;exitDx=0;exitDy=0;entryX=0.5;entryY=0;entryDx=0;entryDy=0;" parent="_sT6Pis9OAbUE3QjG6fV-1" source="_sT6Pis9OAbUE3QjG6fV-82" target="_sT6Pis9OAbUE3QjG6fV-89" edge="1">
          <mxGeometry relative="1" as="geometry" />
        </mxCell>
        <mxCell id="_sT6Pis9OAbUE3QjG6fV-81" style="rounded=1;orthogonalLoop=1;jettySize=auto;html=1;exitX=0.5;exitY=1;exitDx=0;exitDy=0;entryX=0.5;entryY=0;entryDx=0;entryDy=0;" parent="_sT6Pis9OAbUE3QjG6fV-1" source="_sT6Pis9OAbUE3QjG6fV-82" target="_sT6Pis9OAbUE3QjG6fV-91" edge="1">
          <mxGeometry relative="1" as="geometry" />
        </mxCell>
        <mxCell id="_sT6Pis9OAbUE3QjG6fV-82" value="hotel2" style="rounded=0;whiteSpace=wrap;html=1;" parent="_sT6Pis9OAbUE3QjG6fV-1" vertex="1">
          <mxGeometry x="462" y="615" width="70" height="30" as="geometry" />
        </mxCell>
        <mxCell id="_sT6Pis9OAbUE3QjG6fV-83" style="edgeStyle=orthogonalEdgeStyle;rounded=1;orthogonalLoop=1;jettySize=auto;html=1;exitX=0.5;exitY=1;exitDx=0;exitDy=0;entryX=0.5;entryY=0;entryDx=0;entryDy=0;" parent="_sT6Pis9OAbUE3QjG6fV-1" source="_sT6Pis9OAbUE3QjG6fV-84" target="_sT6Pis9OAbUE3QjG6fV-94" edge="1">
          <mxGeometry relative="1" as="geometry" />
        </mxCell>
        <mxCell id="_sT6Pis9OAbUE3QjG6fV-84" value="hotel3" style="rounded=0;whiteSpace=wrap;html=1;" parent="_sT6Pis9OAbUE3QjG6fV-1" vertex="1">
          <mxGeometry x="628" y="615" width="72.5" height="30" as="geometry" />
        </mxCell>
        <mxCell id="_sT6Pis9OAbUE3QjG6fV-85" style="rounded=1;orthogonalLoop=1;jettySize=auto;html=1;exitX=0.5;exitY=1;exitDx=0;exitDy=0;entryX=0.5;entryY=0;entryDx=0;entryDy=0;" parent="_sT6Pis9OAbUE3QjG6fV-1" source="_sT6Pis9OAbUE3QjG6fV-87" target="_sT6Pis9OAbUE3QjG6fV-95" edge="1">
          <mxGeometry relative="1" as="geometry" />
        </mxCell>
        <mxCell id="_sT6Pis9OAbUE3QjG6fV-86" style="rounded=1;orthogonalLoop=1;jettySize=auto;html=1;exitX=0.5;exitY=1;exitDx=0;exitDy=0;entryX=0.5;entryY=0;entryDx=0;entryDy=0;" parent="_sT6Pis9OAbUE3QjG6fV-1" source="_sT6Pis9OAbUE3QjG6fV-87" target="_sT6Pis9OAbUE3QjG6fV-96" edge="1">
          <mxGeometry relative="1" as="geometry" />
        </mxCell>
        <mxCell id="_sT6Pis9OAbUE3QjG6fV-87" value="room_type1" style="rounded=0;whiteSpace=wrap;html=1;" parent="_sT6Pis9OAbUE3QjG6fV-1" vertex="1">
          <mxGeometry x="310.5" y="695" width="82.5" height="30" as="geometry" />
        </mxCell>
        <mxCell id="_sT6Pis9OAbUE3QjG6fV-88" style="rounded=1;orthogonalLoop=1;jettySize=auto;html=1;exitX=0.5;exitY=1;exitDx=0;exitDy=0;entryX=0.5;entryY=0;entryDx=0;entryDy=0;" parent="_sT6Pis9OAbUE3QjG6fV-1" source="_sT6Pis9OAbUE3QjG6fV-89" target="_sT6Pis9OAbUE3QjG6fV-97" edge="1">
          <mxGeometry relative="1" as="geometry" />
        </mxCell>
        <mxCell id="_sT6Pis9OAbUE3QjG6fV-89" value="room_type2" style="rounded=0;whiteSpace=wrap;html=1;" parent="_sT6Pis9OAbUE3QjG6fV-1" vertex="1">
          <mxGeometry x="415" y="695" width="82.5" height="30" as="geometry" />
        </mxCell>
        <mxCell id="_sT6Pis9OAbUE3QjG6fV-90" style="orthogonalLoop=1;jettySize=auto;html=1;exitX=0.5;exitY=1;exitDx=0;exitDy=0;entryX=0.5;entryY=0;entryDx=0;entryDy=0;" parent="_sT6Pis9OAbUE3QjG6fV-1" source="_sT6Pis9OAbUE3QjG6fV-91" target="_sT6Pis9OAbUE3QjG6fV-98" edge="1">
          <mxGeometry relative="1" as="geometry" />
        </mxCell>
        <mxCell id="_sT6Pis9OAbUE3QjG6fV-91" value="room_type3" style="rounded=0;whiteSpace=wrap;html=1;" parent="_sT6Pis9OAbUE3QjG6fV-1" vertex="1">
          <mxGeometry x="519" y="695" width="82.5" height="30" as="geometry" />
        </mxCell>
        <mxCell id="_sT6Pis9OAbUE3QjG6fV-92" style="rounded=1;orthogonalLoop=1;jettySize=auto;html=1;exitX=0.5;exitY=1;exitDx=0;exitDy=0;entryX=0.5;entryY=0;entryDx=0;entryDy=0;" parent="_sT6Pis9OAbUE3QjG6fV-1" source="_sT6Pis9OAbUE3QjG6fV-94" target="_sT6Pis9OAbUE3QjG6fV-99" edge="1">
          <mxGeometry relative="1" as="geometry" />
        </mxCell>
        <mxCell id="_sT6Pis9OAbUE3QjG6fV-93" style="rounded=1;orthogonalLoop=1;jettySize=auto;html=1;exitX=0.5;exitY=1;exitDx=0;exitDy=0;entryX=0.75;entryY=0;entryDx=0;entryDy=0;" parent="_sT6Pis9OAbUE3QjG6fV-1" source="_sT6Pis9OAbUE3QjG6fV-94" target="_sT6Pis9OAbUE3QjG6fV-100" edge="1">
          <mxGeometry relative="1" as="geometry" />
        </mxCell>
        <mxCell id="_sT6Pis9OAbUE3QjG6fV-94" value="room_type4" style="rounded=0;whiteSpace=wrap;html=1;" parent="_sT6Pis9OAbUE3QjG6fV-1" vertex="1">
          <mxGeometry x="625.5" y="695" width="77.5" height="30" as="geometry" />
        </mxCell>
        <mxCell id="_sT6Pis9OAbUE3QjG6fV-95" value="rom1" style="rounded=0;whiteSpace=wrap;html=1;" parent="_sT6Pis9OAbUE3QjG6fV-1" vertex="1">
          <mxGeometry x="311" y="785" width="52" height="30" as="geometry" />
        </mxCell>
        <mxCell id="_sT6Pis9OAbUE3QjG6fV-96" value="rom2" style="rounded=0;whiteSpace=wrap;html=1;" parent="_sT6Pis9OAbUE3QjG6fV-1" vertex="1">
          <mxGeometry x="376" y="785" width="60" height="30" as="geometry" />
        </mxCell>
        <mxCell id="_sT6Pis9OAbUE3QjG6fV-97" value="rom3" style="rounded=0;whiteSpace=wrap;html=1;" parent="_sT6Pis9OAbUE3QjG6fV-1" vertex="1">
          <mxGeometry x="445" y="785" width="60" height="30" as="geometry" />
        </mxCell>
        <mxCell id="_sT6Pis9OAbUE3QjG6fV-98" value="rom4" style="rounded=0;whiteSpace=wrap;html=1;" parent="_sT6Pis9OAbUE3QjG6fV-1" vertex="1">
          <mxGeometry x="515" y="785" width="58.5" height="30" as="geometry" />
        </mxCell>
        <mxCell id="_sT6Pis9OAbUE3QjG6fV-99" value="rom5" style="rounded=0;whiteSpace=wrap;html=1;" parent="_sT6Pis9OAbUE3QjG6fV-1" vertex="1">
          <mxGeometry x="584" y="785" width="60" height="30" as="geometry" />
        </mxCell>
        <mxCell id="_sT6Pis9OAbUE3QjG6fV-100" value="rom6" style="rounded=0;whiteSpace=wrap;html=1;" parent="_sT6Pis9OAbUE3QjG6fV-1" vertex="1">
          <mxGeometry x="666" y="785" width="60" height="30" as="geometry" />
        </mxCell>
        <mxCell id="_sT6Pis9OAbUE3QjG6fV-101" style="edgeStyle=none;orthogonalLoop=1;jettySize=auto;html=1;exitX=0.5;exitY=1;exitDx=0;exitDy=0;entryX=0.5;entryY=0;entryDx=0;entryDy=0;" parent="_sT6Pis9OAbUE3QjG6fV-1" source="_sT6Pis9OAbUE3QjG6fV-102" target="_sT6Pis9OAbUE3QjG6fV-104" edge="1">
          <mxGeometry relative="1" as="geometry" />
        </mxCell>
        <mxCell id="_sT6Pis9OAbUE3QjG6fV-102" value="hotel4" style="rounded=0;whiteSpace=wrap;html=1;" parent="_sT6Pis9OAbUE3QjG6fV-1" vertex="1">
          <mxGeometry x="752" y="615" width="72.5" height="30" as="geometry" />
        </mxCell>
        <mxCell id="_sT6Pis9OAbUE3QjG6fV-103" style="edgeStyle=none;orthogonalLoop=1;jettySize=auto;html=1;exitX=0.5;exitY=1;exitDx=0;exitDy=0;entryX=0.5;entryY=0;entryDx=0;entryDy=0;" parent="_sT6Pis9OAbUE3QjG6fV-1" source="_sT6Pis9OAbUE3QjG6fV-104" target="_sT6Pis9OAbUE3QjG6fV-105" edge="1">
          <mxGeometry relative="1" as="geometry" />
        </mxCell>
        <mxCell id="_sT6Pis9OAbUE3QjG6fV-104" value="room_type5" style="rounded=0;whiteSpace=wrap;html=1;" parent="_sT6Pis9OAbUE3QjG6fV-1" vertex="1">
          <mxGeometry x="749.5" y="695" width="77.5" height="30" as="geometry" />
        </mxCell>
        <mxCell id="_sT6Pis9OAbUE3QjG6fV-105" value="rom7" style="rounded=0;whiteSpace=wrap;html=1;" parent="_sT6Pis9OAbUE3QjG6fV-1" vertex="1">
          <mxGeometry x="758.25" y="785" width="60" height="30" as="geometry" />
        </mxCell>
        <mxCell id="_sT6Pis9OAbUE3QjG6fV-106" style="edgeStyle=none;orthogonalLoop=1;jettySize=auto;html=1;exitX=0.75;exitY=0;exitDx=0;exitDy=0;" parent="_sT6Pis9OAbUE3QjG6fV-1" source="_sT6Pis9OAbUE3QjG6fV-79" target="_sT6Pis9OAbUE3QjG6fV-79" edge="1">
          <mxGeometry relative="1" as="geometry" />
        </mxCell>
      </root>
    </mxGraphModel>
  </diagram>
  <diagram id="oNy6mEtIyOLjq3KeyYH_" name="agoda_content">
    <mxGraphModel dx="1306" dy="836" grid="1" gridSize="10" guides="1" tooltips="1" connect="1" arrows="1" fold="1" page="1" pageScale="1" pageWidth="827" pageHeight="1169" math="0" shadow="0">
      <root>
        <mxCell id="Ztl-mkWy_UMbe0xCkITb-0" />
        <mxCell id="Ztl-mkWy_UMbe0xCkITb-1" parent="Ztl-mkWy_UMbe0xCkITb-0" />
        <mxCell id="Ztl-mkWy_UMbe0xCkITb-2" value="" style="rounded=0;whiteSpace=wrap;html=1;strokeColor=#d6b656;fillColor=#fff2cc;" parent="Ztl-mkWy_UMbe0xCkITb-1" vertex="1">
          <mxGeometry x="1315" y="510" width="150" height="270" as="geometry" />
        </mxCell>
        <mxCell id="Ztl-mkWy_UMbe0xCkITb-3" style="edgeStyle=orthogonalEdgeStyle;rounded=1;jumpStyle=arc;orthogonalLoop=1;jettySize=auto;html=1;exitX=1;exitY=0.5;exitDx=0;exitDy=0;entryX=0;entryY=0.75;entryDx=0;entryDy=0;" parent="Ztl-mkWy_UMbe0xCkITb-1" source="Ztl-mkWy_UMbe0xCkITb-75" target="Ztl-mkWy_UMbe0xCkITb-72" edge="1">
          <mxGeometry relative="1" as="geometry" />
        </mxCell>
        <mxCell id="Ztl-mkWy_UMbe0xCkITb-4" value="" style="rounded=0;whiteSpace=wrap;html=1;fillColor=#f8cecc;strokeColor=#b85450;" parent="Ztl-mkWy_UMbe0xCkITb-1" vertex="1">
          <mxGeometry x="835" y="280" width="155" height="250" as="geometry" />
        </mxCell>
        <mxCell id="Ztl-mkWy_UMbe0xCkITb-5" value="" style="rounded=0;whiteSpace=wrap;html=1;fillColor=#fff2cc;strokeColor=#d6b656;" parent="Ztl-mkWy_UMbe0xCkITb-1" vertex="1">
          <mxGeometry x="600" y="250" width="200" height="700" as="geometry" />
        </mxCell>
        <mxCell id="Ztl-mkWy_UMbe0xCkITb-6" value="" style="rounded=0;whiteSpace=wrap;html=1;fillColor=#fff2cc;strokeColor=#d6b656;" parent="Ztl-mkWy_UMbe0xCkITb-1" vertex="1">
          <mxGeometry x="340" y="155" width="180" height="725" as="geometry" />
        </mxCell>
        <mxCell id="Ztl-mkWy_UMbe0xCkITb-7" value="hbase" style="shape=cylinder3;whiteSpace=wrap;html=1;boundedLbl=1;backgroundOutline=1;size=15;" parent="Ztl-mkWy_UMbe0xCkITb-1" vertex="1">
          <mxGeometry x="610" y="140" width="60" height="80" as="geometry" />
        </mxCell>
        <mxCell id="Ztl-mkWy_UMbe0xCkITb-8" style="edgeStyle=orthogonalEdgeStyle;rounded=0;orthogonalLoop=1;jettySize=auto;html=1;exitX=0.5;exitY=1;exitDx=0;exitDy=0;entryX=0.5;entryY=0;entryDx=0;entryDy=0;" parent="Ztl-mkWy_UMbe0xCkITb-1" source="Ztl-mkWy_UMbe0xCkITb-10" target="Ztl-mkWy_UMbe0xCkITb-12" edge="1">
          <mxGeometry relative="1" as="geometry" />
        </mxCell>
        <mxCell id="Ztl-mkWy_UMbe0xCkITb-9" style="edgeStyle=orthogonalEdgeStyle;rounded=1;orthogonalLoop=1;jettySize=auto;html=1;exitX=1;exitY=0.5;exitDx=0;exitDy=0;entryX=0;entryY=0;entryDx=0;entryDy=52.5;entryPerimeter=0;" parent="Ztl-mkWy_UMbe0xCkITb-1" source="Ztl-mkWy_UMbe0xCkITb-10" target="Ztl-mkWy_UMbe0xCkITb-7" edge="1">
          <mxGeometry relative="1" as="geometry" />
        </mxCell>
        <mxCell id="Ztl-mkWy_UMbe0xCkITb-10" value="获取全量area" style="rounded=1;whiteSpace=wrap;html=1;" parent="Ztl-mkWy_UMbe0xCkITb-1" vertex="1">
          <mxGeometry x="370.5" y="220" width="119.5" height="40" as="geometry" />
        </mxCell>
        <mxCell id="Ztl-mkWy_UMbe0xCkITb-11" style="edgeStyle=orthogonalEdgeStyle;rounded=1;orthogonalLoop=1;jettySize=auto;html=1;exitX=0.5;exitY=1;exitDx=0;exitDy=0;entryX=0.5;entryY=0;entryDx=0;entryDy=0;" parent="Ztl-mkWy_UMbe0xCkITb-1" source="Ztl-mkWy_UMbe0xCkITb-12" target="Ztl-mkWy_UMbe0xCkITb-15" edge="1">
          <mxGeometry relative="1" as="geometry" />
        </mxCell>
        <mxCell id="Ztl-mkWy_UMbe0xCkITb-12" value="断点续传&lt;br&gt;lastSyncedRowKey" style="rounded=1;whiteSpace=wrap;html=1;" parent="Ztl-mkWy_UMbe0xCkITb-1" vertex="1">
          <mxGeometry x="370.5" y="277" width="120" height="50" as="geometry" />
        </mxCell>
        <mxCell id="Ztl-mkWy_UMbe0xCkITb-13" style="edgeStyle=orthogonalEdgeStyle;rounded=1;orthogonalLoop=1;jettySize=auto;html=1;exitX=1;exitY=0.5;exitDx=0;exitDy=0;entryX=0;entryY=0.5;entryDx=0;entryDy=0;" parent="Ztl-mkWy_UMbe0xCkITb-1" source="Ztl-mkWy_UMbe0xCkITb-15" target="Ztl-mkWy_UMbe0xCkITb-17" edge="1">
          <mxGeometry relative="1" as="geometry" />
        </mxCell>
        <mxCell id="Ztl-mkWy_UMbe0xCkITb-14" style="edgeStyle=orthogonalEdgeStyle;rounded=1;orthogonalLoop=1;jettySize=auto;html=1;exitX=0.5;exitY=1;exitDx=0;exitDy=0;entryX=0.5;entryY=0;entryDx=0;entryDy=0;" parent="Ztl-mkWy_UMbe0xCkITb-1" source="Ztl-mkWy_UMbe0xCkITb-15" target="Ztl-mkWy_UMbe0xCkITb-20" edge="1">
          <mxGeometry relative="1" as="geometry" />
        </mxCell>
        <mxCell id="Ztl-mkWy_UMbe0xCkITb-15" value="traverse area&amp;nbsp;&lt;br&gt;get hotel list by feed5&amp;nbsp;" style="rounded=1;whiteSpace=wrap;html=1;" parent="Ztl-mkWy_UMbe0xCkITb-1" vertex="1">
          <mxGeometry x="369.5" y="347" width="120.5" height="43" as="geometry" />
        </mxCell>
        <mxCell id="Ztl-mkWy_UMbe0xCkITb-16" style="edgeStyle=orthogonalEdgeStyle;rounded=1;orthogonalLoop=1;jettySize=auto;html=1;exitX=1;exitY=0.5;exitDx=0;exitDy=0;entryX=0;entryY=0.5;entryDx=0;entryDy=0;" parent="Ztl-mkWy_UMbe0xCkITb-1" source="Ztl-mkWy_UMbe0xCkITb-17" target="Ztl-mkWy_UMbe0xCkITb-26" edge="1">
          <mxGeometry relative="1" as="geometry" />
        </mxCell>
        <mxCell id="Ztl-mkWy_UMbe0xCkITb-17" value="GetHotelList" style="rounded=1;whiteSpace=wrap;html=1;" parent="Ztl-mkWy_UMbe0xCkITb-1" vertex="1">
          <mxGeometry x="625" y="280" width="110" height="40" as="geometry" />
        </mxCell>
        <mxCell id="Ztl-mkWy_UMbe0xCkITb-18" value="" style="rounded=1;whiteSpace=wrap;html=1;" parent="Ztl-mkWy_UMbe0xCkITb-1" vertex="1">
          <mxGeometry x="620" y="350" width="140" height="430" as="geometry" />
        </mxCell>
        <mxCell id="Ztl-mkWy_UMbe0xCkITb-19" style="edgeStyle=orthogonalEdgeStyle;rounded=1;orthogonalLoop=1;jettySize=auto;html=1;exitX=1;exitY=0.5;exitDx=0;exitDy=0;" parent="Ztl-mkWy_UMbe0xCkITb-1" source="Ztl-mkWy_UMbe0xCkITb-20" target="Ztl-mkWy_UMbe0xCkITb-18" edge="1">
          <mxGeometry relative="1" as="geometry" />
        </mxCell>
        <mxCell id="Ztl-mkWy_UMbe0xCkITb-20" value="sync each hotel" style="rounded=1;whiteSpace=wrap;html=1;" parent="Ztl-mkWy_UMbe0xCkITb-1" vertex="1">
          <mxGeometry x="369.5" y="420" width="120" height="50" as="geometry" />
        </mxCell>
        <mxCell id="Ztl-mkWy_UMbe0xCkITb-21" style="edgeStyle=orthogonalEdgeStyle;rounded=1;orthogonalLoop=1;jettySize=auto;html=1;exitX=0.5;exitY=1;exitDx=0;exitDy=0;entryX=0.5;entryY=0;entryDx=0;entryDy=0;" parent="Ztl-mkWy_UMbe0xCkITb-1" source="Ztl-mkWy_UMbe0xCkITb-22" target="Ztl-mkWy_UMbe0xCkITb-25" edge="1">
          <mxGeometry relative="1" as="geometry" />
        </mxCell>
        <mxCell id="Ztl-mkWy_UMbe0xCkITb-22" value="遍历多语言" style="rounded=1;whiteSpace=wrap;html=1;" parent="Ztl-mkWy_UMbe0xCkITb-1" vertex="1">
          <mxGeometry x="645" y="390" width="90" height="30" as="geometry" />
        </mxCell>
        <mxCell id="Ztl-mkWy_UMbe0xCkITb-23" style="edgeStyle=orthogonalEdgeStyle;rounded=1;orthogonalLoop=1;jettySize=auto;html=1;exitX=0.5;exitY=1;exitDx=0;exitDy=0;entryX=0.5;entryY=0;entryDx=0;entryDy=0;" parent="Ztl-mkWy_UMbe0xCkITb-1" source="Ztl-mkWy_UMbe0xCkITb-25" target="Ztl-mkWy_UMbe0xCkITb-30" edge="1">
          <mxGeometry relative="1" as="geometry" />
        </mxCell>
        <mxCell id="Ztl-mkWy_UMbe0xCkITb-24" style="edgeStyle=orthogonalEdgeStyle;rounded=1;orthogonalLoop=1;jettySize=auto;html=1;exitX=1;exitY=0.5;exitDx=0;exitDy=0;entryX=0;entryY=0.5;entryDx=0;entryDy=0;" parent="Ztl-mkWy_UMbe0xCkITb-1" source="Ztl-mkWy_UMbe0xCkITb-25" target="Ztl-mkWy_UMbe0xCkITb-27" edge="1">
          <mxGeometry relative="1" as="geometry" />
        </mxCell>
        <mxCell id="Ztl-mkWy_UMbe0xCkITb-25" value="下载静态信息" style="rounded=1;whiteSpace=wrap;html=1;" parent="Ztl-mkWy_UMbe0xCkITb-1" vertex="1">
          <mxGeometry x="645" y="440" width="90" height="30" as="geometry" />
        </mxCell>
        <mxCell id="Ztl-mkWy_UMbe0xCkITb-26" value="feed5" style="rounded=1;whiteSpace=wrap;html=1;" parent="Ztl-mkWy_UMbe0xCkITb-1" vertex="1">
          <mxGeometry x="860" y="330" width="110" height="40" as="geometry" />
        </mxCell>
        <mxCell id="Ztl-mkWy_UMbe0xCkITb-27" value="feed19" style="rounded=1;whiteSpace=wrap;html=1;" parent="Ztl-mkWy_UMbe0xCkITb-1" vertex="1">
          <mxGeometry x="860" y="395" width="110" height="35" as="geometry" />
        </mxCell>
        <mxCell id="Ztl-mkWy_UMbe0xCkITb-28" style="edgeStyle=orthogonalEdgeStyle;rounded=1;orthogonalLoop=1;jettySize=auto;html=1;exitX=1;exitY=0.5;exitDx=0;exitDy=0;entryX=0;entryY=0.75;entryDx=0;entryDy=0;" parent="Ztl-mkWy_UMbe0xCkITb-1" source="Ztl-mkWy_UMbe0xCkITb-30" target="Ztl-mkWy_UMbe0xCkITb-31" edge="1">
          <mxGeometry relative="1" as="geometry" />
        </mxCell>
        <mxCell id="Ztl-mkWy_UMbe0xCkITb-29" style="edgeStyle=orthogonalEdgeStyle;rounded=1;orthogonalLoop=1;jettySize=auto;html=1;exitX=0.5;exitY=1;exitDx=0;exitDy=0;" parent="Ztl-mkWy_UMbe0xCkITb-1" source="Ztl-mkWy_UMbe0xCkITb-30" target="Ztl-mkWy_UMbe0xCkITb-35" edge="1">
          <mxGeometry relative="1" as="geometry" />
        </mxCell>
        <mxCell id="Ztl-mkWy_UMbe0xCkITb-30" value="下载附近信息" style="rounded=1;whiteSpace=wrap;html=1;" parent="Ztl-mkWy_UMbe0xCkITb-1" vertex="1">
          <mxGeometry x="645" y="492" width="90" height="30" as="geometry" />
        </mxCell>
        <mxCell id="Ztl-mkWy_UMbe0xCkITb-31" value="feed31" style="rounded=1;whiteSpace=wrap;html=1;" parent="Ztl-mkWy_UMbe0xCkITb-1" vertex="1">
          <mxGeometry x="860" y="440" width="110" height="35" as="geometry" />
        </mxCell>
        <mxCell id="Ztl-mkWy_UMbe0xCkITb-32" style="edgeStyle=orthogonalEdgeStyle;rounded=1;orthogonalLoop=1;jettySize=auto;html=1;exitX=1;exitY=0.5;exitDx=0;exitDy=0;entryX=0;entryY=0.5;entryDx=0;entryDy=0;entryPerimeter=0;" parent="Ztl-mkWy_UMbe0xCkITb-1" source="Ztl-mkWy_UMbe0xCkITb-35" target="Ztl-mkWy_UMbe0xCkITb-36" edge="1">
          <mxGeometry relative="1" as="geometry">
            <mxPoint x="940" y="650" as="targetPoint" />
          </mxGeometry>
        </mxCell>
        <mxCell id="Ztl-mkWy_UMbe0xCkITb-33" value="补充area" style="edgeLabel;html=1;align=center;verticalAlign=middle;resizable=0;points=[];" parent="Ztl-mkWy_UMbe0xCkITb-32" vertex="1" connectable="0">
          <mxGeometry x="0.2561" y="1" relative="1" as="geometry">
            <mxPoint x="1" as="offset" />
          </mxGeometry>
        </mxCell>
        <mxCell id="Ztl-mkWy_UMbe0xCkITb-34" style="edgeStyle=orthogonalEdgeStyle;rounded=1;orthogonalLoop=1;jettySize=auto;html=1;exitX=0.5;exitY=1;exitDx=0;exitDy=0;entryX=0.5;entryY=0;entryDx=0;entryDy=0;" parent="Ztl-mkWy_UMbe0xCkITb-1" source="Ztl-mkWy_UMbe0xCkITb-35" target="Ztl-mkWy_UMbe0xCkITb-41" edge="1">
          <mxGeometry relative="1" as="geometry" />
        </mxCell>
        <mxCell id="Ztl-mkWy_UMbe0xCkITb-35" value="解析适配下载信息&lt;br&gt;" style="rounded=1;whiteSpace=wrap;html=1;" parent="Ztl-mkWy_UMbe0xCkITb-1" vertex="1">
          <mxGeometry x="635" y="560" width="110" height="35" as="geometry" />
        </mxCell>
        <mxCell id="Ztl-mkWy_UMbe0xCkITb-36" value="hbase" style="shape=cylinder3;whiteSpace=wrap;html=1;boundedLbl=1;backgroundOutline=1;size=15;" parent="Ztl-mkWy_UMbe0xCkITb-1" vertex="1">
          <mxGeometry x="880" y="580" width="60" height="80" as="geometry" />
        </mxCell>
        <mxCell id="Ztl-mkWy_UMbe0xCkITb-37" style="edgeStyle=orthogonalEdgeStyle;rounded=1;orthogonalLoop=1;jettySize=auto;html=1;exitX=1;exitY=0.5;exitDx=0;exitDy=0;entryX=0;entryY=1;entryDx=0;entryDy=-15;entryPerimeter=0;" parent="Ztl-mkWy_UMbe0xCkITb-1" source="Ztl-mkWy_UMbe0xCkITb-39" target="Ztl-mkWy_UMbe0xCkITb-36" edge="1">
          <mxGeometry relative="1" as="geometry" />
        </mxCell>
        <mxCell id="Ztl-mkWy_UMbe0xCkITb-38" style="edgeStyle=orthogonalEdgeStyle;rounded=1;orthogonalLoop=1;jettySize=auto;html=1;exitX=0.5;exitY=1;exitDx=0;exitDy=0;entryX=0.5;entryY=0;entryDx=0;entryDy=0;" parent="Ztl-mkWy_UMbe0xCkITb-1" source="Ztl-mkWy_UMbe0xCkITb-39" target="Ztl-mkWy_UMbe0xCkITb-43" edge="1">
          <mxGeometry relative="1" as="geometry" />
        </mxCell>
        <mxCell id="Ztl-mkWy_UMbe0xCkITb-39" value="与hbase做diff&lt;br&gt;upsert&amp;nbsp;" style="rounded=1;whiteSpace=wrap;html=1;" parent="Ztl-mkWy_UMbe0xCkITb-1" vertex="1">
          <mxGeometry x="630" y="670" width="120" height="40" as="geometry" />
        </mxCell>
        <mxCell id="Ztl-mkWy_UMbe0xCkITb-40" style="edgeStyle=orthogonalEdgeStyle;rounded=1;orthogonalLoop=1;jettySize=auto;html=1;exitX=0.5;exitY=1;exitDx=0;exitDy=0;entryX=0.5;entryY=0;entryDx=0;entryDy=0;" parent="Ztl-mkWy_UMbe0xCkITb-1" target="Ztl-mkWy_UMbe0xCkITb-39" edge="1">
          <mxGeometry relative="1" as="geometry">
            <mxPoint x="690" y="640" as="sourcePoint" />
          </mxGeometry>
        </mxCell>
        <mxCell id="Ztl-mkWy_UMbe0xCkITb-41" value="过滤&lt;br&gt;非MasterRoom" style="rounded=1;whiteSpace=wrap;html=1;" parent="Ztl-mkWy_UMbe0xCkITb-1" vertex="1">
          <mxGeometry x="630" y="610" width="120" height="40" as="geometry" />
        </mxCell>
        <mxCell id="Ztl-mkWy_UMbe0xCkITb-42" style="edgeStyle=orthogonalEdgeStyle;rounded=1;orthogonalLoop=1;jettySize=auto;html=1;exitX=1;exitY=0.5;exitDx=0;exitDy=0;entryX=0;entryY=0.5;entryDx=0;entryDy=0;" parent="Ztl-mkWy_UMbe0xCkITb-1" source="Ztl-mkWy_UMbe0xCkITb-43" target="Ztl-mkWy_UMbe0xCkITb-53" edge="1">
          <mxGeometry relative="1" as="geometry" />
        </mxCell>
        <mxCell id="Ztl-mkWy_UMbe0xCkITb-43" value="写入raw MQ" style="rounded=1;whiteSpace=wrap;html=1;" parent="Ztl-mkWy_UMbe0xCkITb-1" vertex="1">
          <mxGeometry x="635" y="730" width="110" height="28" as="geometry" />
        </mxCell>
        <mxCell id="Ztl-mkWy_UMbe0xCkITb-44" value="SynHotel" style="text;html=1;strokeColor=none;fillColor=none;align=center;verticalAlign=middle;whiteSpace=wrap;rounded=0;" parent="Ztl-mkWy_UMbe0xCkITb-1" vertex="1">
          <mxGeometry x="640" y="350" width="60" height="30" as="geometry" />
        </mxCell>
        <mxCell id="Ztl-mkWy_UMbe0xCkITb-45" value="listingcron-server" style="text;html=1;strokeColor=none;fillColor=none;align=center;verticalAlign=middle;whiteSpace=wrap;rounded=0;" parent="Ztl-mkWy_UMbe0xCkITb-1" vertex="1">
          <mxGeometry x="360" y="160" width="100" height="20" as="geometry" />
        </mxCell>
        <mxCell id="Ztl-mkWy_UMbe0xCkITb-46" style="edgeStyle=orthogonalEdgeStyle;rounded=1;orthogonalLoop=1;jettySize=auto;html=1;exitX=0.5;exitY=1;exitDx=0;exitDy=0;entryX=0.5;entryY=0;entryDx=0;entryDy=0;" parent="Ztl-mkWy_UMbe0xCkITb-1" source="Ztl-mkWy_UMbe0xCkITb-48" target="Ztl-mkWy_UMbe0xCkITb-55" edge="1">
          <mxGeometry relative="1" as="geometry" />
        </mxCell>
        <mxCell id="Ztl-mkWy_UMbe0xCkITb-47" style="edgeStyle=orthogonalEdgeStyle;rounded=1;orthogonalLoop=1;jettySize=auto;html=1;exitX=1;exitY=0.5;exitDx=0;exitDy=0;entryX=0;entryY=0.5;entryDx=0;entryDy=0;jumpStyle=arc;fillColor=#dae8fc;strokeColor=#6c8ebf;" parent="Ztl-mkWy_UMbe0xCkITb-1" source="Ztl-mkWy_UMbe0xCkITb-48" target="Ztl-mkWy_UMbe0xCkITb-56" edge="1">
          <mxGeometry relative="1" as="geometry" />
        </mxCell>
        <mxCell id="Ztl-mkWy_UMbe0xCkITb-48" value="FetchChangedHotels" style="rounded=1;whiteSpace=wrap;html=1;fillColor=#dae8fc;strokeColor=#6c8ebf;" parent="Ztl-mkWy_UMbe0xCkITb-1" vertex="1">
          <mxGeometry x="630" y="810" width="125" height="40" as="geometry" />
        </mxCell>
        <mxCell id="Ztl-mkWy_UMbe0xCkITb-49" style="edgeStyle=orthogonalEdgeStyle;rounded=1;orthogonalLoop=1;jettySize=auto;html=1;exitX=1;exitY=0.5;exitDx=0;exitDy=0;entryX=0;entryY=0.5;entryDx=0;entryDy=0;fillColor=#dae8fc;strokeColor=#6c8ebf;" parent="Ztl-mkWy_UMbe0xCkITb-1" source="Ztl-mkWy_UMbe0xCkITb-51" target="Ztl-mkWy_UMbe0xCkITb-48" edge="1">
          <mxGeometry relative="1" as="geometry" />
        </mxCell>
        <mxCell id="Ztl-mkWy_UMbe0xCkITb-50" style="edgeStyle=orthogonalEdgeStyle;rounded=1;jumpStyle=arc;orthogonalLoop=1;jettySize=auto;html=1;exitX=0.5;exitY=1;exitDx=0;exitDy=0;" parent="Ztl-mkWy_UMbe0xCkITb-1" source="Ztl-mkWy_UMbe0xCkITb-51" edge="1">
          <mxGeometry relative="1" as="geometry">
            <mxPoint x="424" y="680" as="targetPoint" />
          </mxGeometry>
        </mxCell>
        <mxCell id="Ztl-mkWy_UMbe0xCkITb-51" value="拉取变换&lt;br&gt;hotellist" style="rounded=1;whiteSpace=wrap;html=1;fillColor=#dae8fc;strokeColor=#6c8ebf;" parent="Ztl-mkWy_UMbe0xCkITb-1" vertex="1">
          <mxGeometry x="369.5" y="610" width="110.5" height="45" as="geometry" />
        </mxCell>
        <mxCell id="Ztl-mkWy_UMbe0xCkITb-52" style="edgeStyle=orthogonalEdgeStyle;rounded=1;jumpStyle=arc;orthogonalLoop=1;jettySize=auto;html=1;exitX=1;exitY=0.5;exitDx=0;exitDy=0;entryX=0;entryY=0.5;entryDx=0;entryDy=0;" parent="Ztl-mkWy_UMbe0xCkITb-1" source="Ztl-mkWy_UMbe0xCkITb-53" target="Ztl-mkWy_UMbe0xCkITb-75" edge="1">
          <mxGeometry relative="1" as="geometry" />
        </mxCell>
        <mxCell id="Ztl-mkWy_UMbe0xCkITb-53" value="Raw MQ" style="shape=process;whiteSpace=wrap;html=1;backgroundOutline=1;" parent="Ztl-mkWy_UMbe0xCkITb-1" vertex="1">
          <mxGeometry x="875" y="740" width="85" height="50" as="geometry" />
        </mxCell>
        <mxCell id="Ztl-mkWy_UMbe0xCkITb-54" style="edgeStyle=orthogonalEdgeStyle;rounded=1;orthogonalLoop=1;jettySize=auto;html=1;exitX=1;exitY=0.5;exitDx=0;exitDy=0;entryX=0;entryY=0.75;entryDx=0;entryDy=0;fillColor=#dae8fc;strokeColor=#6c8ebf;" parent="Ztl-mkWy_UMbe0xCkITb-1" source="Ztl-mkWy_UMbe0xCkITb-55" target="Ztl-mkWy_UMbe0xCkITb-53" edge="1">
          <mxGeometry relative="1" as="geometry" />
        </mxCell>
        <mxCell id="Ztl-mkWy_UMbe0xCkITb-55" value="遍历下线的hotel" style="rounded=1;whiteSpace=wrap;html=1;fillColor=#dae8fc;strokeColor=#6c8ebf;" parent="Ztl-mkWy_UMbe0xCkITb-1" vertex="1">
          <mxGeometry x="630" y="880" width="125" height="40" as="geometry" />
        </mxCell>
        <mxCell id="Ztl-mkWy_UMbe0xCkITb-56" value="feed32" style="rounded=1;whiteSpace=wrap;html=1;fillColor=#dae8fc;strokeColor=#6c8ebf;" parent="Ztl-mkWy_UMbe0xCkITb-1" vertex="1">
          <mxGeometry x="860" y="485" width="110" height="35" as="geometry" />
        </mxCell>
        <mxCell id="Ztl-mkWy_UMbe0xCkITb-57" style="edgeStyle=orthogonalEdgeStyle;rounded=1;jumpStyle=arc;orthogonalLoop=1;jettySize=auto;html=1;exitX=1;exitY=0.5;exitDx=0;exitDy=0;entryX=0.007;entryY=0.598;entryDx=0;entryDy=0;entryPerimeter=0;fillColor=#dae8fc;strokeColor=#6c8ebf;" parent="Ztl-mkWy_UMbe0xCkITb-1" source="Ztl-mkWy_UMbe0xCkITb-58" target="Ztl-mkWy_UMbe0xCkITb-18" edge="1">
          <mxGeometry relative="1" as="geometry" />
        </mxCell>
        <mxCell id="Ztl-mkWy_UMbe0xCkITb-58" value="异步同步&lt;br&gt;updated 和 new hotel" style="rounded=1;whiteSpace=wrap;html=1;fillColor=#dae8fc;strokeColor=#6c8ebf;" parent="Ztl-mkWy_UMbe0xCkITb-1" vertex="1">
          <mxGeometry x="370.5" y="760" width="109" height="52" as="geometry" />
        </mxCell>
        <mxCell id="Ztl-mkWy_UMbe0xCkITb-59" style="edgeStyle=orthogonalEdgeStyle;rounded=1;jumpStyle=arc;orthogonalLoop=1;jettySize=auto;html=1;exitX=0.5;exitY=1;exitDx=0;exitDy=0;" parent="Ztl-mkWy_UMbe0xCkITb-1" source="Ztl-mkWy_UMbe0xCkITb-60" target="Ztl-mkWy_UMbe0xCkITb-58" edge="1">
          <mxGeometry relative="1" as="geometry" />
        </mxCell>
        <mxCell id="Ztl-mkWy_UMbe0xCkITb-60" value="遍历changed&amp;nbsp;&lt;br&gt;hotellist" style="rounded=1;whiteSpace=wrap;html=1;fillColor=#dae8fc;strokeColor=#6c8ebf;" parent="Ztl-mkWy_UMbe0xCkITb-1" vertex="1">
          <mxGeometry x="371" y="680" width="109" height="50" as="geometry" />
        </mxCell>
        <mxCell id="Ztl-mkWy_UMbe0xCkITb-61" value="IncrementSyncHotels：" style="text;html=1;strokeColor=none;fillColor=none;align=center;verticalAlign=middle;whiteSpace=wrap;rounded=0;" parent="Ztl-mkWy_UMbe0xCkITb-1" vertex="1">
          <mxGeometry x="360" y="570" width="110" height="30" as="geometry" />
        </mxCell>
        <mxCell id="Ztl-mkWy_UMbe0xCkITb-62" value="&lt;span style=&quot;color: rgb(0, 0, 0); font-family: Helvetica; font-size: 12px; font-style: normal; font-variant-ligatures: normal; font-variant-caps: normal; font-weight: 400; letter-spacing: normal; orphans: 2; text-align: center; text-indent: 0px; text-transform: none; widows: 2; word-spacing: 0px; -webkit-text-stroke-width: 0px; background-color: rgb(248, 249, 250); text-decoration-thickness: initial; text-decoration-style: initial; text-decoration-color: initial; float: none; display: inline !important;&quot;&gt;FullSyncHotels：&lt;/span&gt;" style="text;whiteSpace=wrap;html=1;" parent="Ztl-mkWy_UMbe0xCkITb-1" vertex="1">
          <mxGeometry x="350" y="190" width="90" height="30" as="geometry" />
        </mxCell>
        <mxCell id="Ztl-mkWy_UMbe0xCkITb-63" value="&lt;span style=&quot;color: rgb(0, 0, 0); font-family: Helvetica; font-size: 12px; font-style: normal; font-variant-ligatures: normal; font-variant-caps: normal; font-weight: 400; letter-spacing: normal; orphans: 2; text-align: center; text-indent: 0px; text-transform: none; widows: 2; word-spacing: 0px; -webkit-text-stroke-width: 0px; background-color: rgb(248, 249, 250); text-decoration-thickness: initial; text-decoration-style: initial; text-decoration-color: initial; float: none; display: inline !important;&quot;&gt;itemfetch-server&lt;/span&gt;" style="text;whiteSpace=wrap;html=1;" parent="Ztl-mkWy_UMbe0xCkITb-1" vertex="1">
          <mxGeometry x="620" y="250" width="100" height="30" as="geometry" />
        </mxCell>
        <mxCell id="Ztl-mkWy_UMbe0xCkITb-64" value="hub/supplier" style="text;html=1;strokeColor=none;fillColor=none;align=center;verticalAlign=middle;whiteSpace=wrap;rounded=0;" parent="Ztl-mkWy_UMbe0xCkITb-1" vertex="1">
          <mxGeometry x="860" y="287" width="60" height="30" as="geometry" />
        </mxCell>
        <mxCell id="Ztl-mkWy_UMbe0xCkITb-65" value="消费processedMQ" style="rounded=1;whiteSpace=wrap;html=1;strokeColor=#1A1A1A;fillColor=#FFFFFF;" parent="Ztl-mkWy_UMbe0xCkITb-1" vertex="1">
          <mxGeometry x="1325" y="560" width="120" height="37" as="geometry" />
        </mxCell>
        <mxCell id="Ztl-mkWy_UMbe0xCkITb-66" value="补全依赖信息" style="rounded=1;whiteSpace=wrap;html=1;strokeColor=#1A1A1A;fillColor=#FFFFFF;" parent="Ztl-mkWy_UMbe0xCkITb-1" vertex="1">
          <mxGeometry x="1325" y="620" width="120" height="30.5" as="geometry" />
        </mxCell>
        <mxCell id="Ztl-mkWy_UMbe0xCkITb-67" style="edgeStyle=orthogonalEdgeStyle;rounded=1;jumpStyle=arc;orthogonalLoop=1;jettySize=auto;html=1;exitX=1;exitY=0.5;exitDx=0;exitDy=0;entryX=0;entryY=0.5;entryDx=0;entryDy=0;entryPerimeter=0;" parent="Ztl-mkWy_UMbe0xCkITb-1" source="Ztl-mkWy_UMbe0xCkITb-68" target="Ztl-mkWy_UMbe0xCkITb-90" edge="1">
          <mxGeometry relative="1" as="geometry" />
        </mxCell>
        <mxCell id="Ztl-mkWy_UMbe0xCkITb-68" value="Upsert DB" style="rounded=1;whiteSpace=wrap;html=1;strokeColor=#1A1A1A;fillColor=#FFFFFF;" parent="Ztl-mkWy_UMbe0xCkITb-1" vertex="1">
          <mxGeometry x="1325" y="668" width="120" height="40" as="geometry" />
        </mxCell>
        <mxCell id="Ztl-mkWy_UMbe0xCkITb-69" style="edgeStyle=orthogonalEdgeStyle;rounded=1;jumpStyle=arc;orthogonalLoop=1;jettySize=auto;html=1;exitX=1;exitY=0.5;exitDx=0;exitDy=0;entryX=0;entryY=0;entryDx=0;entryDy=41.25;entryPerimeter=0;" parent="Ztl-mkWy_UMbe0xCkITb-1" source="Ztl-mkWy_UMbe0xCkITb-70" target="Ztl-mkWy_UMbe0xCkITb-91" edge="1">
          <mxGeometry relative="1" as="geometry" />
        </mxCell>
        <mxCell id="Ztl-mkWy_UMbe0xCkITb-70" value="Upsert ES" style="rounded=1;whiteSpace=wrap;html=1;strokeColor=#1A1A1A;fillColor=#FFFFFF;" parent="Ztl-mkWy_UMbe0xCkITb-1" vertex="1">
          <mxGeometry x="1325" y="728" width="120" height="40" as="geometry" />
        </mxCell>
        <mxCell id="Ztl-mkWy_UMbe0xCkITb-71" style="edgeStyle=orthogonalEdgeStyle;rounded=1;jumpStyle=arc;orthogonalLoop=1;jettySize=auto;html=1;exitX=1;exitY=0.5;exitDx=0;exitDy=0;entryX=0;entryY=0.556;entryDx=0;entryDy=0;entryPerimeter=0;" parent="Ztl-mkWy_UMbe0xCkITb-1" source="Ztl-mkWy_UMbe0xCkITb-72" target="Ztl-mkWy_UMbe0xCkITb-2" edge="1">
          <mxGeometry relative="1" as="geometry" />
        </mxCell>
        <mxCell id="Ztl-mkWy_UMbe0xCkITb-72" value="Processed MQ" style="shape=process;whiteSpace=wrap;html=1;backgroundOutline=1;" parent="Ztl-mkWy_UMbe0xCkITb-1" vertex="1">
          <mxGeometry x="1190" y="640" width="90" height="40" as="geometry" />
        </mxCell>
        <mxCell id="Ztl-mkWy_UMbe0xCkITb-73" value="onlinedatasync-server" style="text;html=1;strokeColor=none;fillColor=none;align=center;verticalAlign=middle;whiteSpace=wrap;rounded=0;" parent="Ztl-mkWy_UMbe0xCkITb-1" vertex="1">
          <mxGeometry x="1310" y="520" width="150" height="30" as="geometry" />
        </mxCell>
        <mxCell id="Ztl-mkWy_UMbe0xCkITb-74" value="" style="group" parent="Ztl-mkWy_UMbe0xCkITb-1" vertex="1" connectable="0">
          <mxGeometry x="1000" y="570" width="160" height="270" as="geometry" />
        </mxCell>
        <mxCell id="Ztl-mkWy_UMbe0xCkITb-75" value="" style="rounded=0;whiteSpace=wrap;html=1;strokeColor=#d6b656;fillColor=#fff2cc;" parent="Ztl-mkWy_UMbe0xCkITb-74" vertex="1">
          <mxGeometry width="150" height="270" as="geometry" />
        </mxCell>
        <mxCell id="Ztl-mkWy_UMbe0xCkITb-76" value="消费rawMQ" style="rounded=1;whiteSpace=wrap;html=1;strokeColor=#1A1A1A;fillColor=#FFFFFF;" parent="Ztl-mkWy_UMbe0xCkITb-74" vertex="1">
          <mxGeometry x="20" y="35" width="110" height="40" as="geometry" />
        </mxCell>
        <mxCell id="Ztl-mkWy_UMbe0xCkITb-77" value="判断是否需要新增shopee" style="rounded=1;whiteSpace=wrap;html=1;strokeColor=#1A1A1A;fillColor=#FFFFFF;" parent="Ztl-mkWy_UMbe0xCkITb-74" vertex="1">
          <mxGeometry x="20" y="95" width="110" height="40" as="geometry" />
        </mxCell>
        <mxCell id="Ztl-mkWy_UMbe0xCkITb-78" value="mapping" style="rounded=1;whiteSpace=wrap;html=1;strokeColor=#1A1A1A;fillColor=#FFFFFF;" parent="Ztl-mkWy_UMbe0xCkITb-74" vertex="1">
          <mxGeometry x="20" y="155" width="110" height="30" as="geometry" />
        </mxCell>
        <mxCell id="Ztl-mkWy_UMbe0xCkITb-79" value="构造shopee content" style="rounded=1;whiteSpace=wrap;html=1;strokeColor=#1A1A1A;fillColor=#FFFFFF;" parent="Ztl-mkWy_UMbe0xCkITb-74" vertex="1">
          <mxGeometry x="20" y="205" width="110" height="40" as="geometry" />
        </mxCell>
        <mxCell id="Ztl-mkWy_UMbe0xCkITb-80" value="realtimecomputing-server" style="text;html=1;strokeColor=none;fillColor=none;align=center;verticalAlign=middle;whiteSpace=wrap;rounded=0;" parent="Ztl-mkWy_UMbe0xCkITb-74" vertex="1">
          <mxGeometry width="160" height="35" as="geometry" />
        </mxCell>
        <mxCell id="Ztl-mkWy_UMbe0xCkITb-81" style="edgeStyle=orthogonalEdgeStyle;rounded=1;jumpStyle=arc;orthogonalLoop=1;jettySize=auto;html=1;exitX=1;exitY=0.5;exitDx=0;exitDy=0;entryX=0;entryY=0.5;entryDx=0;entryDy=0;" parent="Ztl-mkWy_UMbe0xCkITb-1" source="Ztl-mkWy_UMbe0xCkITb-82" target="Ztl-mkWy_UMbe0xCkITb-87" edge="1">
          <mxGeometry relative="1" as="geometry" />
        </mxCell>
        <mxCell id="Ztl-mkWy_UMbe0xCkITb-82" value="image-MQ" style="shape=process;whiteSpace=wrap;html=1;backgroundOutline=1;strokeColor=#1A1A1A;fillColor=#FFFFFF;" parent="Ztl-mkWy_UMbe0xCkITb-1" vertex="1">
          <mxGeometry x="1100" y="880" width="90" height="40" as="geometry" />
        </mxCell>
        <mxCell id="Ztl-mkWy_UMbe0xCkITb-83" style="edgeStyle=orthogonalEdgeStyle;rounded=1;jumpStyle=arc;orthogonalLoop=1;jettySize=auto;html=1;exitX=0.5;exitY=1;exitDx=0;exitDy=0;entryX=0;entryY=0.5;entryDx=0;entryDy=0;" parent="Ztl-mkWy_UMbe0xCkITb-1" source="Ztl-mkWy_UMbe0xCkITb-75" target="Ztl-mkWy_UMbe0xCkITb-82" edge="1">
          <mxGeometry relative="1" as="geometry" />
        </mxCell>
        <mxCell id="Ztl-mkWy_UMbe0xCkITb-84" style="edgeStyle=orthogonalEdgeStyle;rounded=1;jumpStyle=arc;orthogonalLoop=1;jettySize=auto;html=1;exitX=0.5;exitY=0;exitDx=0;exitDy=0;entryX=0.5;entryY=1;entryDx=0;entryDy=0;" parent="Ztl-mkWy_UMbe0xCkITb-1" source="Ztl-mkWy_UMbe0xCkITb-87" target="Ztl-mkWy_UMbe0xCkITb-72" edge="1">
          <mxGeometry relative="1" as="geometry" />
        </mxCell>
        <mxCell id="Ztl-mkWy_UMbe0xCkITb-85" style="edgeStyle=orthogonalEdgeStyle;rounded=1;jumpStyle=arc;orthogonalLoop=1;jettySize=auto;html=1;exitX=1;exitY=0.5;exitDx=0;exitDy=0;entryX=0;entryY=0;entryDx=0;entryDy=37.5;entryPerimeter=0;" parent="Ztl-mkWy_UMbe0xCkITb-1" source="Ztl-mkWy_UMbe0xCkITb-87" target="Ztl-mkWy_UMbe0xCkITb-88" edge="1">
          <mxGeometry relative="1" as="geometry" />
        </mxCell>
        <mxCell id="Ztl-mkWy_UMbe0xCkITb-86" style="edgeStyle=orthogonalEdgeStyle;rounded=1;jumpStyle=arc;orthogonalLoop=1;jettySize=auto;html=1;exitX=1;exitY=0.75;exitDx=0;exitDy=0;entryX=0;entryY=0;entryDx=0;entryDy=37.5;entryPerimeter=0;" parent="Ztl-mkWy_UMbe0xCkITb-1" source="Ztl-mkWy_UMbe0xCkITb-87" target="Ztl-mkWy_UMbe0xCkITb-89" edge="1">
          <mxGeometry relative="1" as="geometry" />
        </mxCell>
        <mxCell id="Ztl-mkWy_UMbe0xCkITb-87" value="imageprocessing-server" style="rounded=0;whiteSpace=wrap;html=1;strokeColor=#d6b656;fillColor=#fff2cc;" parent="Ztl-mkWy_UMbe0xCkITb-1" vertex="1">
          <mxGeometry x="1220" y="870" width="140" height="60" as="geometry" />
        </mxCell>
        <mxCell id="Ztl-mkWy_UMbe0xCkITb-88" value="S3" style="shape=cylinder3;whiteSpace=wrap;html=1;boundedLbl=1;backgroundOutline=1;size=15;strokeColor=#1A1A1A;fillColor=#FFFFFF;" parent="Ztl-mkWy_UMbe0xCkITb-1" vertex="1">
          <mxGeometry x="1410" y="820" width="60" height="60" as="geometry" />
        </mxCell>
        <mxCell id="Ztl-mkWy_UMbe0xCkITb-89" value="CDN" style="shape=cylinder3;whiteSpace=wrap;html=1;boundedLbl=1;backgroundOutline=1;size=15;strokeColor=#1A1A1A;fillColor=#FFFFFF;" parent="Ztl-mkWy_UMbe0xCkITb-1" vertex="1">
          <mxGeometry x="1410" y="890" width="60" height="60" as="geometry" />
        </mxCell>
        <mxCell id="Ztl-mkWy_UMbe0xCkITb-90" value="hotelDB" style="shape=cylinder3;whiteSpace=wrap;html=1;boundedLbl=1;backgroundOutline=1;size=15;strokeColor=#1A1A1A;fillColor=#FFFFFF;" parent="Ztl-mkWy_UMbe0xCkITb-1" vertex="1">
          <mxGeometry x="1495" y="545" width="60" height="80" as="geometry" />
        </mxCell>
        <mxCell id="Ztl-mkWy_UMbe0xCkITb-91" value="ES" style="shape=cylinder3;whiteSpace=wrap;html=1;boundedLbl=1;backgroundOutline=1;size=15;strokeColor=#1A1A1A;fillColor=#FFFFFF;" parent="Ztl-mkWy_UMbe0xCkITb-1" vertex="1">
          <mxGeometry x="1495" y="660" width="60" height="65" as="geometry" />
        </mxCell>
      </root>
    </mxGraphModel>
  </diagram>
  <diagram id="TvMldELk9nfrU-0YNcL6" name="keywords">
    <mxGraphModel dx="1306" dy="836" grid="1" gridSize="10" guides="1" tooltips="1" connect="1" arrows="1" fold="1" page="1" pageScale="1" pageWidth="827" pageHeight="1169" math="0" shadow="0">
      <root>
        <mxCell id="EbKZ1tIX0Axqs2dhL0NS-0" />
        <mxCell id="EbKZ1tIX0Axqs2dhL0NS-1" parent="EbKZ1tIX0Axqs2dhL0NS-0" />
        <mxCell id="EbKZ1tIX0Axqs2dhL0NS-2" style="edgeStyle=orthogonalEdgeStyle;rounded=1;orthogonalLoop=1;jettySize=auto;html=1;exitX=0.5;exitY=1;exitDx=0;exitDy=0;entryX=0.5;entryY=0;entryDx=0;entryDy=0;" parent="EbKZ1tIX0Axqs2dhL0NS-1" source="EbKZ1tIX0Axqs2dhL0NS-3" target="EbKZ1tIX0Axqs2dhL0NS-10" edge="1">
          <mxGeometry relative="1" as="geometry" />
        </mxCell>
        <mxCell id="EbKZ1tIX0Axqs2dhL0NS-3" value="replace word&lt;br&gt;(搜索词替换）" style="rounded=0;whiteSpace=wrap;html=1;fillColor=#fff2cc;strokeColor=#d6b656;" parent="EbKZ1tIX0Axqs2dhL0NS-1" vertex="1">
          <mxGeometry x="170" y="20" width="120" height="60" as="geometry" />
        </mxCell>
        <mxCell id="EbKZ1tIX0Axqs2dhL0NS-4" style="edgeStyle=orthogonalEdgeStyle;rounded=1;orthogonalLoop=1;jettySize=auto;html=1;exitX=0.5;exitY=1;exitDx=0;exitDy=0;" parent="EbKZ1tIX0Axqs2dhL0NS-1" source="EbKZ1tIX0Axqs2dhL0NS-5" target="EbKZ1tIX0Axqs2dhL0NS-8" edge="1">
          <mxGeometry relative="1" as="geometry" />
        </mxCell>
        <mxCell id="EbKZ1tIX0Axqs2dhL0NS-5" value="ES 匹配召回" style="rounded=0;whiteSpace=wrap;html=1;" parent="EbKZ1tIX0Axqs2dhL0NS-1" vertex="1">
          <mxGeometry x="170" y="170" width="120" height="60" as="geometry" />
        </mxCell>
        <mxCell id="EbKZ1tIX0Axqs2dhL0NS-6" style="edgeStyle=orthogonalEdgeStyle;rounded=1;orthogonalLoop=1;jettySize=auto;html=1;exitX=0.5;exitY=1;exitDx=0;exitDy=0;entryX=0.6;entryY=-0.025;entryDx=0;entryDy=0;entryPerimeter=0;" parent="EbKZ1tIX0Axqs2dhL0NS-1" source="EbKZ1tIX0Axqs2dhL0NS-7" target="EbKZ1tIX0Axqs2dhL0NS-8" edge="1">
          <mxGeometry relative="1" as="geometry" />
        </mxCell>
        <mxCell id="EbKZ1tIX0Axqs2dhL0NS-7" value="DetectIntention&lt;br&gt;(意图识别）" style="rounded=0;whiteSpace=wrap;html=1;fillColor=#fff2cc;strokeColor=#d6b656;" parent="EbKZ1tIX0Axqs2dhL0NS-1" vertex="1">
          <mxGeometry x="340" y="170" width="120" height="60" as="geometry" />
        </mxCell>
        <mxCell id="EbKZ1tIX0Axqs2dhL0NS-8" value="ReRank&lt;br&gt;（搜索词重排）" style="rounded=0;whiteSpace=wrap;html=1;fillColor=#fff2cc;strokeColor=#d6b656;" parent="EbKZ1tIX0Axqs2dhL0NS-1" vertex="1">
          <mxGeometry x="250" y="290" width="120" height="60" as="geometry" />
        </mxCell>
        <mxCell id="EbKZ1tIX0Axqs2dhL0NS-9" style="edgeStyle=orthogonalEdgeStyle;rounded=1;orthogonalLoop=1;jettySize=auto;html=1;exitX=0.5;exitY=1;exitDx=0;exitDy=0;entryX=0.5;entryY=0;entryDx=0;entryDy=0;" parent="EbKZ1tIX0Axqs2dhL0NS-1" source="EbKZ1tIX0Axqs2dhL0NS-10" target="EbKZ1tIX0Axqs2dhL0NS-5" edge="1">
          <mxGeometry relative="1" as="geometry" />
        </mxCell>
        <mxCell id="EbKZ1tIX0Axqs2dhL0NS-10" value="NFC 编码" style="rounded=0;whiteSpace=wrap;html=1;fillColor=#fff2cc;strokeColor=#d6b656;" parent="EbKZ1tIX0Axqs2dhL0NS-1" vertex="1">
          <mxGeometry x="170" y="110" width="120" height="40" as="geometry" />
        </mxCell>
        <mxCell id="EbKZ1tIX0Axqs2dhL0NS-11" style="edgeStyle=orthogonalEdgeStyle;rounded=1;orthogonalLoop=1;jettySize=auto;html=1;exitX=0.5;exitY=1;exitDx=0;exitDy=0;entryX=0.5;entryY=0;entryDx=0;entryDy=0;" parent="EbKZ1tIX0Axqs2dhL0NS-1" source="EbKZ1tIX0Axqs2dhL0NS-12" target="EbKZ1tIX0Axqs2dhL0NS-18" edge="1">
          <mxGeometry relative="1" as="geometry" />
        </mxCell>
        <mxCell id="EbKZ1tIX0Axqs2dhL0NS-12" value="ES 分页召回" style="rounded=0;whiteSpace=wrap;html=1;" parent="EbKZ1tIX0Axqs2dhL0NS-1" vertex="1">
          <mxGeometry x="190" y="620" width="100" height="50" as="geometry" />
        </mxCell>
        <mxCell id="EbKZ1tIX0Axqs2dhL0NS-13" style="edgeStyle=orthogonalEdgeStyle;rounded=1;orthogonalLoop=1;jettySize=auto;html=1;exitX=0.5;exitY=1;exitDx=0;exitDy=0;entryX=0.5;entryY=0;entryDx=0;entryDy=0;" parent="EbKZ1tIX0Axqs2dhL0NS-1" source="EbKZ1tIX0Axqs2dhL0NS-14" target="EbKZ1tIX0Axqs2dhL0NS-16" edge="1">
          <mxGeometry relative="1" as="geometry" />
        </mxCell>
        <mxCell id="EbKZ1tIX0Axqs2dhL0NS-14" value="解析abtest参数&lt;br&gt;quality_score" style="rounded=0;whiteSpace=wrap;html=1;fillColor=#fff2cc;strokeColor=#d6b656;" parent="EbKZ1tIX0Axqs2dhL0NS-1" vertex="1">
          <mxGeometry x="190" y="470" width="100" height="50" as="geometry" />
        </mxCell>
        <mxCell id="EbKZ1tIX0Axqs2dhL0NS-15" style="edgeStyle=orthogonalEdgeStyle;rounded=1;orthogonalLoop=1;jettySize=auto;html=1;exitX=0.5;exitY=1;exitDx=0;exitDy=0;entryX=0.5;entryY=0;entryDx=0;entryDy=0;" parent="EbKZ1tIX0Axqs2dhL0NS-1" source="EbKZ1tIX0Axqs2dhL0NS-16" target="EbKZ1tIX0Axqs2dhL0NS-12" edge="1">
          <mxGeometry relative="1" as="geometry" />
        </mxCell>
        <mxCell id="EbKZ1tIX0Axqs2dhL0NS-16" value="构造ES DSL&amp;nbsp;" style="rounded=0;whiteSpace=wrap;html=1;" parent="EbKZ1tIX0Axqs2dhL0NS-1" vertex="1">
          <mxGeometry x="190" y="550" width="100" height="50" as="geometry" />
        </mxCell>
        <mxCell id="EbKZ1tIX0Axqs2dhL0NS-17" style="edgeStyle=orthogonalEdgeStyle;rounded=1;orthogonalLoop=1;jettySize=auto;html=1;exitX=0.5;exitY=1;exitDx=0;exitDy=0;" parent="EbKZ1tIX0Axqs2dhL0NS-1" source="EbKZ1tIX0Axqs2dhL0NS-18" target="EbKZ1tIX0Axqs2dhL0NS-34" edge="1">
          <mxGeometry relative="1" as="geometry" />
        </mxCell>
        <mxCell id="EbKZ1tIX0Axqs2dhL0NS-18" value="获取动态信息" style="rounded=0;whiteSpace=wrap;html=1;" parent="EbKZ1tIX0Axqs2dhL0NS-1" vertex="1">
          <mxGeometry x="190" y="690" width="100" height="50" as="geometry" />
        </mxCell>
        <mxCell id="EbKZ1tIX0Axqs2dhL0NS-19" style="edgeStyle=orthogonalEdgeStyle;rounded=1;orthogonalLoop=1;jettySize=auto;html=1;exitX=0;exitY=0.5;exitDx=0;exitDy=0;entryX=1;entryY=0.5;entryDx=0;entryDy=0;" parent="EbKZ1tIX0Axqs2dhL0NS-1" source="EbKZ1tIX0Axqs2dhL0NS-20" target="EbKZ1tIX0Axqs2dhL0NS-24" edge="1">
          <mxGeometry relative="1" as="geometry" />
        </mxCell>
        <mxCell id="EbKZ1tIX0Axqs2dhL0NS-20" value="cache" style="rounded=0;whiteSpace=wrap;html=1;fillColor=#fff2cc;strokeColor=#d6b656;" parent="EbKZ1tIX0Axqs2dhL0NS-1" vertex="1">
          <mxGeometry x="530" y="660" width="60" height="45" as="geometry" />
        </mxCell>
        <mxCell id="EbKZ1tIX0Axqs2dhL0NS-21" style="edgeStyle=orthogonalEdgeStyle;rounded=1;orthogonalLoop=1;jettySize=auto;html=1;exitX=0;exitY=0.5;exitDx=0;exitDy=0;entryX=1;entryY=0.5;entryDx=0;entryDy=0;" parent="EbKZ1tIX0Axqs2dhL0NS-1" source="EbKZ1tIX0Axqs2dhL0NS-22" target="EbKZ1tIX0Axqs2dhL0NS-20" edge="1">
          <mxGeometry relative="1" as="geometry" />
        </mxCell>
        <mxCell id="EbKZ1tIX0Axqs2dhL0NS-22" value="supplier service" style="rounded=0;whiteSpace=wrap;html=1;fillColor=#fff2cc;strokeColor=#d6b656;" parent="EbKZ1tIX0Axqs2dhL0NS-1" vertex="1">
          <mxGeometry x="610" y="660" width="90" height="45" as="geometry" />
        </mxCell>
        <mxCell id="EbKZ1tIX0Axqs2dhL0NS-23" style="edgeStyle=orthogonalEdgeStyle;rounded=1;orthogonalLoop=1;jettySize=auto;html=1;exitX=0;exitY=0.5;exitDx=0;exitDy=0;entryX=1;entryY=0.5;entryDx=0;entryDy=0;" parent="EbKZ1tIX0Axqs2dhL0NS-1" source="EbKZ1tIX0Axqs2dhL0NS-24" target="EbKZ1tIX0Axqs2dhL0NS-26" edge="1">
          <mxGeometry relative="1" as="geometry" />
        </mxCell>
        <mxCell id="EbKZ1tIX0Axqs2dhL0NS-24" value="adapter" style="rounded=0;whiteSpace=wrap;html=1;fillColor=#fff2cc;strokeColor=#d6b656;" parent="EbKZ1tIX0Axqs2dhL0NS-1" vertex="1">
          <mxGeometry x="450" y="660" width="60" height="45" as="geometry" />
        </mxCell>
        <mxCell id="EbKZ1tIX0Axqs2dhL0NS-25" style="edgeStyle=orthogonalEdgeStyle;rounded=1;orthogonalLoop=1;jettySize=auto;html=1;exitX=0;exitY=0.5;exitDx=0;exitDy=0;entryX=1;entryY=0.5;entryDx=0;entryDy=0;" parent="EbKZ1tIX0Axqs2dhL0NS-1" source="EbKZ1tIX0Axqs2dhL0NS-26" target="EbKZ1tIX0Axqs2dhL0NS-18" edge="1">
          <mxGeometry relative="1" as="geometry" />
        </mxCell>
        <mxCell id="EbKZ1tIX0Axqs2dhL0NS-26" value="aggregate" style="rounded=0;whiteSpace=wrap;html=1;fillColor=#fff2cc;strokeColor=#d6b656;" parent="EbKZ1tIX0Axqs2dhL0NS-1" vertex="1">
          <mxGeometry x="330" y="695" width="70" height="40" as="geometry" />
        </mxCell>
        <mxCell id="EbKZ1tIX0Axqs2dhL0NS-27" style="edgeStyle=orthogonalEdgeStyle;rounded=1;orthogonalLoop=1;jettySize=auto;html=1;exitX=0;exitY=0.5;exitDx=0;exitDy=0;entryX=1;entryY=0.5;entryDx=0;entryDy=0;" parent="EbKZ1tIX0Axqs2dhL0NS-1" source="EbKZ1tIX0Axqs2dhL0NS-28" target="EbKZ1tIX0Axqs2dhL0NS-32" edge="1">
          <mxGeometry relative="1" as="geometry" />
        </mxCell>
        <mxCell id="EbKZ1tIX0Axqs2dhL0NS-28" value="cache" style="rounded=0;whiteSpace=wrap;html=1;dashed=1;" parent="EbKZ1tIX0Axqs2dhL0NS-1" vertex="1">
          <mxGeometry x="530" y="725" width="60" height="45" as="geometry" />
        </mxCell>
        <mxCell id="EbKZ1tIX0Axqs2dhL0NS-29" style="edgeStyle=orthogonalEdgeStyle;rounded=1;orthogonalLoop=1;jettySize=auto;html=1;exitX=0;exitY=0.5;exitDx=0;exitDy=0;entryX=1;entryY=0.5;entryDx=0;entryDy=0;" parent="EbKZ1tIX0Axqs2dhL0NS-1" source="EbKZ1tIX0Axqs2dhL0NS-30" target="EbKZ1tIX0Axqs2dhL0NS-28" edge="1">
          <mxGeometry relative="1" as="geometry" />
        </mxCell>
        <mxCell id="EbKZ1tIX0Axqs2dhL0NS-30" value="supplier service" style="rounded=0;whiteSpace=wrap;html=1;dashed=1;" parent="EbKZ1tIX0Axqs2dhL0NS-1" vertex="1">
          <mxGeometry x="610" y="725" width="90" height="45" as="geometry" />
        </mxCell>
        <mxCell id="EbKZ1tIX0Axqs2dhL0NS-31" style="edgeStyle=orthogonalEdgeStyle;rounded=1;orthogonalLoop=1;jettySize=auto;html=1;exitX=0;exitY=0.5;exitDx=0;exitDy=0;entryX=1;entryY=0.75;entryDx=0;entryDy=0;" parent="EbKZ1tIX0Axqs2dhL0NS-1" source="EbKZ1tIX0Axqs2dhL0NS-32" target="EbKZ1tIX0Axqs2dhL0NS-26" edge="1">
          <mxGeometry relative="1" as="geometry" />
        </mxCell>
        <mxCell id="EbKZ1tIX0Axqs2dhL0NS-32" value="adapter" style="rounded=0;whiteSpace=wrap;html=1;dashed=1;" parent="EbKZ1tIX0Axqs2dhL0NS-1" vertex="1">
          <mxGeometry x="450" y="725" width="60" height="45" as="geometry" />
        </mxCell>
        <mxCell id="EbKZ1tIX0Axqs2dhL0NS-33" style="edgeStyle=orthogonalEdgeStyle;rounded=1;orthogonalLoop=1;jettySize=auto;html=1;exitX=0.5;exitY=1;exitDx=0;exitDy=0;" parent="EbKZ1tIX0Axqs2dhL0NS-1" source="EbKZ1tIX0Axqs2dhL0NS-34" target="EbKZ1tIX0Axqs2dhL0NS-40" edge="1">
          <mxGeometry relative="1" as="geometry" />
        </mxCell>
        <mxCell id="EbKZ1tIX0Axqs2dhL0NS-34" value="过滤" style="rounded=0;whiteSpace=wrap;html=1;" parent="EbKZ1tIX0Axqs2dhL0NS-1" vertex="1">
          <mxGeometry x="190" y="800" width="100" height="60" as="geometry" />
        </mxCell>
        <mxCell id="EbKZ1tIX0Axqs2dhL0NS-35" style="edgeStyle=orthogonalEdgeStyle;rounded=1;orthogonalLoop=1;jettySize=auto;html=1;exitX=0;exitY=0.5;exitDx=0;exitDy=0;entryX=1;entryY=0.5;entryDx=0;entryDy=0;" parent="EbKZ1tIX0Axqs2dhL0NS-1" source="EbKZ1tIX0Axqs2dhL0NS-36" target="EbKZ1tIX0Axqs2dhL0NS-34" edge="1">
          <mxGeometry relative="1" as="geometry" />
        </mxCell>
        <mxCell id="EbKZ1tIX0Axqs2dhL0NS-36" value="price filter" style="rounded=0;whiteSpace=wrap;html=1;" parent="EbKZ1tIX0Axqs2dhL0NS-1" vertex="1">
          <mxGeometry x="354" y="795" width="96" height="40" as="geometry" />
        </mxCell>
        <mxCell id="EbKZ1tIX0Axqs2dhL0NS-37" style="edgeStyle=orthogonalEdgeStyle;rounded=1;orthogonalLoop=1;jettySize=auto;html=1;exitX=0;exitY=0.5;exitDx=0;exitDy=0;entryX=1;entryY=0.75;entryDx=0;entryDy=0;" parent="EbKZ1tIX0Axqs2dhL0NS-1" source="EbKZ1tIX0Axqs2dhL0NS-38" target="EbKZ1tIX0Axqs2dhL0NS-34" edge="1">
          <mxGeometry relative="1" as="geometry" />
        </mxCell>
        <mxCell id="EbKZ1tIX0Axqs2dhL0NS-38" value="benefit filter" style="rounded=0;whiteSpace=wrap;html=1;" parent="EbKZ1tIX0Axqs2dhL0NS-1" vertex="1">
          <mxGeometry x="354" y="845" width="96" height="40" as="geometry" />
        </mxCell>
        <mxCell id="EbKZ1tIX0Axqs2dhL0NS-39" style="edgeStyle=orthogonalEdgeStyle;rounded=1;orthogonalLoop=1;jettySize=auto;html=1;exitX=0.5;exitY=1;exitDx=0;exitDy=0;entryX=0.5;entryY=0;entryDx=0;entryDy=0;" parent="EbKZ1tIX0Axqs2dhL0NS-1" source="EbKZ1tIX0Axqs2dhL0NS-40" target="EbKZ1tIX0Axqs2dhL0NS-49" edge="1">
          <mxGeometry relative="1" as="geometry" />
        </mxCell>
        <mxCell id="EbKZ1tIX0Axqs2dhL0NS-40" value="Markup" style="rounded=0;whiteSpace=wrap;html=1;fillColor=#fff2cc;strokeColor=#d6b656;" parent="EbKZ1tIX0Axqs2dhL0NS-1" vertex="1">
          <mxGeometry x="190" y="920" width="100" height="60" as="geometry" />
        </mxCell>
        <mxCell id="EbKZ1tIX0Axqs2dhL0NS-41" style="edgeStyle=orthogonalEdgeStyle;rounded=1;orthogonalLoop=1;jettySize=auto;html=1;exitX=0;exitY=0.5;exitDx=0;exitDy=0;entryX=1;entryY=0.5;entryDx=0;entryDy=0;" parent="EbKZ1tIX0Axqs2dhL0NS-1" source="EbKZ1tIX0Axqs2dhL0NS-42" target="EbKZ1tIX0Axqs2dhL0NS-46" edge="1">
          <mxGeometry relative="1" as="geometry" />
        </mxCell>
        <mxCell id="EbKZ1tIX0Axqs2dhL0NS-42" value="获取所有&lt;br&gt;mark rules" style="rounded=0;whiteSpace=wrap;html=1;fillColor=#fff2cc;strokeColor=#d6b656;" parent="EbKZ1tIX0Axqs2dhL0NS-1" vertex="1">
          <mxGeometry x="550" y="925" width="80" height="50" as="geometry" />
        </mxCell>
        <mxCell id="EbKZ1tIX0Axqs2dhL0NS-43" style="edgeStyle=orthogonalEdgeStyle;rounded=1;orthogonalLoop=1;jettySize=auto;html=1;exitX=0;exitY=0.5;exitDx=0;exitDy=0;entryX=1;entryY=0.5;entryDx=0;entryDy=0;" parent="EbKZ1tIX0Axqs2dhL0NS-1" source="EbKZ1tIX0Axqs2dhL0NS-44" target="EbKZ1tIX0Axqs2dhL0NS-42" edge="1">
          <mxGeometry relative="1" as="geometry" />
        </mxCell>
        <mxCell id="EbKZ1tIX0Axqs2dhL0NS-44" value="item-server" style="rounded=0;whiteSpace=wrap;html=1;" parent="EbKZ1tIX0Axqs2dhL0NS-1" vertex="1">
          <mxGeometry x="650" y="925" width="70" height="50" as="geometry" />
        </mxCell>
        <mxCell id="EbKZ1tIX0Axqs2dhL0NS-45" style="edgeStyle=orthogonalEdgeStyle;rounded=1;orthogonalLoop=1;jettySize=auto;html=1;exitX=0;exitY=0.5;exitDx=0;exitDy=0;entryX=1;entryY=0.5;entryDx=0;entryDy=0;" parent="EbKZ1tIX0Axqs2dhL0NS-1" source="EbKZ1tIX0Axqs2dhL0NS-46" target="EbKZ1tIX0Axqs2dhL0NS-48" edge="1">
          <mxGeometry relative="1" as="geometry" />
        </mxCell>
        <mxCell id="EbKZ1tIX0Axqs2dhL0NS-46" value="匹配hotel&lt;br&gt;高优规则" style="rounded=0;whiteSpace=wrap;html=1;fillColor=#fff2cc;strokeColor=#d6b656;" parent="EbKZ1tIX0Axqs2dhL0NS-1" vertex="1">
          <mxGeometry x="430" y="925" width="90" height="50" as="geometry" />
        </mxCell>
        <mxCell id="EbKZ1tIX0Axqs2dhL0NS-47" style="edgeStyle=orthogonalEdgeStyle;rounded=1;orthogonalLoop=1;jettySize=auto;html=1;exitX=0;exitY=0.5;exitDx=0;exitDy=0;" parent="EbKZ1tIX0Axqs2dhL0NS-1" source="EbKZ1tIX0Axqs2dhL0NS-48" target="EbKZ1tIX0Axqs2dhL0NS-40" edge="1">
          <mxGeometry relative="1" as="geometry" />
        </mxCell>
        <mxCell id="EbKZ1tIX0Axqs2dhL0NS-48" value="计算价格" style="rounded=0;whiteSpace=wrap;html=1;fillColor=#fff2cc;strokeColor=#d6b656;" parent="EbKZ1tIX0Axqs2dhL0NS-1" vertex="1">
          <mxGeometry x="330" y="925" width="70" height="50" as="geometry" />
        </mxCell>
        <mxCell id="EbKZ1tIX0Axqs2dhL0NS-49" value="本地Rerank" style="rounded=0;whiteSpace=wrap;html=1;" parent="EbKZ1tIX0Axqs2dhL0NS-1" vertex="1">
          <mxGeometry x="190" y="1020" width="100" height="50" as="geometry" />
        </mxCell>
        <mxCell id="EbKZ1tIX0Axqs2dhL0NS-50" style="edgeStyle=orthogonalEdgeStyle;rounded=1;orthogonalLoop=1;jettySize=auto;html=1;exitX=0;exitY=0.5;exitDx=0;exitDy=0;entryX=1;entryY=0.5;entryDx=0;entryDy=0;" parent="EbKZ1tIX0Axqs2dhL0NS-1" source="EbKZ1tIX0Axqs2dhL0NS-51" target="EbKZ1tIX0Axqs2dhL0NS-49" edge="1">
          <mxGeometry relative="1" as="geometry" />
        </mxCell>
        <mxCell id="EbKZ1tIX0Axqs2dhL0NS-51" value="Soldout&lt;br&gt;&amp;nbsp;沉底" style="rounded=0;whiteSpace=wrap;html=1;fillColor=#fff2cc;strokeColor=#d6b656;" parent="EbKZ1tIX0Axqs2dhL0NS-1" vertex="1">
          <mxGeometry x="330" y="1020" width="70" height="50" as="geometry" />
        </mxCell>
        <mxCell id="EbKZ1tIX0Axqs2dhL0NS-52" style="edgeStyle=orthogonalEdgeStyle;rounded=1;orthogonalLoop=1;jettySize=auto;html=1;exitX=0.5;exitY=1;exitDx=0;exitDy=0;" parent="EbKZ1tIX0Axqs2dhL0NS-1" source="EbKZ1tIX0Axqs2dhL0NS-53" target="EbKZ1tIX0Axqs2dhL0NS-59" edge="1">
          <mxGeometry relative="1" as="geometry" />
        </mxCell>
        <mxCell id="EbKZ1tIX0Axqs2dhL0NS-53" value="获取hotel basic info" style="rounded=0;whiteSpace=wrap;html=1;" parent="EbKZ1tIX0Axqs2dhL0NS-1" vertex="1">
          <mxGeometry x="970" y="215.75" width="130" height="50" as="geometry" />
        </mxCell>
        <mxCell id="EbKZ1tIX0Axqs2dhL0NS-54" style="edgeStyle=orthogonalEdgeStyle;rounded=1;orthogonalLoop=1;jettySize=auto;html=1;exitX=0;exitY=0.5;exitDx=0;exitDy=0;exitPerimeter=0;" parent="EbKZ1tIX0Axqs2dhL0NS-1" source="EbKZ1tIX0Axqs2dhL0NS-55" target="EbKZ1tIX0Axqs2dhL0NS-53" edge="1">
          <mxGeometry relative="1" as="geometry" />
        </mxCell>
        <mxCell id="EbKZ1tIX0Axqs2dhL0NS-55" value="redis" style="shape=cylinder3;whiteSpace=wrap;html=1;boundedLbl=1;backgroundOutline=1;size=15;" parent="EbKZ1tIX0Axqs2dhL0NS-1" vertex="1">
          <mxGeometry x="1190" y="205.75" width="50" height="70" as="geometry" />
        </mxCell>
        <mxCell id="EbKZ1tIX0Axqs2dhL0NS-56" style="edgeStyle=orthogonalEdgeStyle;rounded=1;orthogonalLoop=1;jettySize=auto;html=1;exitX=0;exitY=0;exitDx=0;exitDy=45;exitPerimeter=0;entryX=1;entryY=0.5;entryDx=0;entryDy=0;entryPerimeter=0;" parent="EbKZ1tIX0Axqs2dhL0NS-1" source="EbKZ1tIX0Axqs2dhL0NS-57" target="EbKZ1tIX0Axqs2dhL0NS-55" edge="1">
          <mxGeometry relative="1" as="geometry" />
        </mxCell>
        <mxCell id="EbKZ1tIX0Axqs2dhL0NS-57" value="DB" style="shape=cylinder3;whiteSpace=wrap;html=1;boundedLbl=1;backgroundOutline=1;size=15;" parent="EbKZ1tIX0Axqs2dhL0NS-1" vertex="1">
          <mxGeometry x="1315" y="195.75" width="50" height="70" as="geometry" />
        </mxCell>
        <mxCell id="EbKZ1tIX0Axqs2dhL0NS-58" style="edgeStyle=orthogonalEdgeStyle;rounded=1;orthogonalLoop=1;jettySize=auto;html=1;exitX=0.5;exitY=1;exitDx=0;exitDy=0;entryX=0.5;entryY=0;entryDx=0;entryDy=0;" parent="EbKZ1tIX0Axqs2dhL0NS-1" source="EbKZ1tIX0Axqs2dhL0NS-59" target="EbKZ1tIX0Axqs2dhL0NS-63" edge="1">
          <mxGeometry relative="1" as="geometry" />
        </mxCell>
        <mxCell id="EbKZ1tIX0Axqs2dhL0NS-59" value="异步任务&lt;br&gt;请求额外信息" style="rounded=0;whiteSpace=wrap;html=1;" parent="EbKZ1tIX0Axqs2dhL0NS-1" vertex="1">
          <mxGeometry x="970" y="340" width="130" height="50" as="geometry" />
        </mxCell>
        <mxCell id="EbKZ1tIX0Axqs2dhL0NS-60" style="edgeStyle=orthogonalEdgeStyle;rounded=1;orthogonalLoop=1;jettySize=auto;html=1;exitX=0;exitY=0.5;exitDx=0;exitDy=0;" parent="EbKZ1tIX0Axqs2dhL0NS-1" source="EbKZ1tIX0Axqs2dhL0NS-61" edge="1">
          <mxGeometry relative="1" as="geometry">
            <mxPoint x="1929" y="173.23809523809518" as="targetPoint" />
          </mxGeometry>
        </mxCell>
        <mxCell id="EbKZ1tIX0Axqs2dhL0NS-61" value="supplier &lt;br&gt;service" style="rounded=0;whiteSpace=wrap;html=1;" parent="EbKZ1tIX0Axqs2dhL0NS-1" vertex="1">
          <mxGeometry x="1945" y="149.75" width="70" height="47.25" as="geometry" />
        </mxCell>
        <mxCell id="EbKZ1tIX0Axqs2dhL0NS-62" style="edgeStyle=orthogonalEdgeStyle;rounded=1;orthogonalLoop=1;jettySize=auto;html=1;exitX=0.5;exitY=1;exitDx=0;exitDy=0;" parent="EbKZ1tIX0Axqs2dhL0NS-1" source="EbKZ1tIX0Axqs2dhL0NS-63" target="EbKZ1tIX0Axqs2dhL0NS-70" edge="1">
          <mxGeometry relative="1" as="geometry" />
        </mxCell>
        <mxCell id="EbKZ1tIX0Axqs2dhL0NS-63" value="获取hotel &lt;br&gt;pictures" style="rounded=0;whiteSpace=wrap;html=1;" parent="EbKZ1tIX0Axqs2dhL0NS-1" vertex="1">
          <mxGeometry x="968" y="479" width="132" height="50" as="geometry" />
        </mxCell>
        <mxCell id="EbKZ1tIX0Axqs2dhL0NS-64" style="edgeStyle=orthogonalEdgeStyle;rounded=1;orthogonalLoop=1;jettySize=auto;html=1;exitX=0;exitY=0.5;exitDx=0;exitDy=0;exitPerimeter=0;entryX=1;entryY=0.5;entryDx=0;entryDy=0;" parent="EbKZ1tIX0Axqs2dhL0NS-1" source="EbKZ1tIX0Axqs2dhL0NS-66" target="EbKZ1tIX0Axqs2dhL0NS-63" edge="1">
          <mxGeometry relative="1" as="geometry" />
        </mxCell>
        <mxCell id="EbKZ1tIX0Axqs2dhL0NS-65" style="edgeStyle=orthogonalEdgeStyle;rounded=1;orthogonalLoop=1;jettySize=auto;html=1;exitX=0;exitY=0;exitDx=0;exitDy=45;exitPerimeter=0;entryX=1;entryY=0.25;entryDx=0;entryDy=0;" parent="EbKZ1tIX0Axqs2dhL0NS-1" source="EbKZ1tIX0Axqs2dhL0NS-66" target="EbKZ1tIX0Axqs2dhL0NS-70" edge="1">
          <mxGeometry relative="1" as="geometry" />
        </mxCell>
        <mxCell id="EbKZ1tIX0Axqs2dhL0NS-66" value="redis" style="shape=cylinder3;whiteSpace=wrap;html=1;boundedLbl=1;backgroundOutline=1;size=15;" parent="EbKZ1tIX0Axqs2dhL0NS-1" vertex="1">
          <mxGeometry x="1185" y="505" width="50" height="70" as="geometry" />
        </mxCell>
        <mxCell id="EbKZ1tIX0Axqs2dhL0NS-67" style="edgeStyle=orthogonalEdgeStyle;rounded=1;orthogonalLoop=1;jettySize=auto;html=1;exitX=0;exitY=0.5;exitDx=0;exitDy=0;exitPerimeter=0;entryX=1;entryY=0;entryDx=0;entryDy=45;entryPerimeter=0;" parent="EbKZ1tIX0Axqs2dhL0NS-1" source="EbKZ1tIX0Axqs2dhL0NS-68" target="EbKZ1tIX0Axqs2dhL0NS-66" edge="1">
          <mxGeometry relative="1" as="geometry" />
        </mxCell>
        <mxCell id="EbKZ1tIX0Axqs2dhL0NS-68" value="DB" style="shape=cylinder3;whiteSpace=wrap;html=1;boundedLbl=1;backgroundOutline=1;size=15;" parent="EbKZ1tIX0Axqs2dhL0NS-1" vertex="1">
          <mxGeometry x="1277" y="514" width="50" height="70" as="geometry" />
        </mxCell>
        <mxCell id="EbKZ1tIX0Axqs2dhL0NS-69" style="edgeStyle=orthogonalEdgeStyle;rounded=1;orthogonalLoop=1;jettySize=auto;html=1;exitX=0.5;exitY=1;exitDx=0;exitDy=0;entryX=0.5;entryY=0;entryDx=0;entryDy=0;" parent="EbKZ1tIX0Axqs2dhL0NS-1" source="EbKZ1tIX0Axqs2dhL0NS-70" target="EbKZ1tIX0Axqs2dhL0NS-72" edge="1">
          <mxGeometry relative="1" as="geometry" />
        </mxCell>
        <mxCell id="EbKZ1tIX0Axqs2dhL0NS-70" value="根据请求语言&lt;br&gt;获取hotel多语言字段" style="rounded=0;whiteSpace=wrap;html=1;" parent="EbKZ1tIX0Axqs2dhL0NS-1" vertex="1">
          <mxGeometry x="969.25" y="595" width="127.5" height="50" as="geometry" />
        </mxCell>
        <mxCell id="EbKZ1tIX0Axqs2dhL0NS-71" style="edgeStyle=orthogonalEdgeStyle;rounded=1;orthogonalLoop=1;jettySize=auto;html=1;exitX=0.5;exitY=1;exitDx=0;exitDy=0;" parent="EbKZ1tIX0Axqs2dhL0NS-1" source="EbKZ1tIX0Axqs2dhL0NS-72" target="EbKZ1tIX0Axqs2dhL0NS-73" edge="1">
          <mxGeometry relative="1" as="geometry" />
        </mxCell>
        <mxCell id="EbKZ1tIX0Axqs2dhL0NS-72" value="等待异步任务&lt;br&gt;处理结束或超时" style="rounded=0;whiteSpace=wrap;html=1;" parent="EbKZ1tIX0Axqs2dhL0NS-1" vertex="1">
          <mxGeometry x="970.5" y="677" width="125" height="60" as="geometry" />
        </mxCell>
        <mxCell id="EbKZ1tIX0Axqs2dhL0NS-73" value="reviews" style="rounded=0;whiteSpace=wrap;html=1;fillColor=#fff2cc;strokeColor=#d6b656;" parent="EbKZ1tIX0Axqs2dhL0NS-1" vertex="1">
          <mxGeometry x="975" y="789.75" width="115" height="60" as="geometry" />
        </mxCell>
        <mxCell id="EbKZ1tIX0Axqs2dhL0NS-74" style="edgeStyle=orthogonalEdgeStyle;rounded=1;orthogonalLoop=1;jettySize=auto;html=1;exitX=0;exitY=0.5;exitDx=0;exitDy=0;entryX=0.993;entryY=0.175;entryDx=0;entryDy=0;entryPerimeter=0;" parent="EbKZ1tIX0Axqs2dhL0NS-1" source="EbKZ1tIX0Axqs2dhL0NS-75" target="EbKZ1tIX0Axqs2dhL0NS-73" edge="1">
          <mxGeometry relative="1" as="geometry" />
        </mxCell>
        <mxCell id="EbKZ1tIX0Axqs2dhL0NS-75" value="获取hotel全量review&lt;br&gt;本地排序,返回top3" style="rounded=0;whiteSpace=wrap;html=1;fillColor=#fff2cc;strokeColor=#d6b656;" parent="EbKZ1tIX0Axqs2dhL0NS-1" vertex="1">
          <mxGeometry x="1213.5" y="731" width="150" height="52.5" as="geometry" />
        </mxCell>
        <mxCell id="EbKZ1tIX0Axqs2dhL0NS-76" style="edgeStyle=orthogonalEdgeStyle;rounded=1;orthogonalLoop=1;jettySize=auto;html=1;exitX=0;exitY=0.5;exitDx=0;exitDy=0;entryX=1.014;entryY=0.425;entryDx=0;entryDy=0;entryPerimeter=0;" parent="EbKZ1tIX0Axqs2dhL0NS-1" source="EbKZ1tIX0Axqs2dhL0NS-77" target="EbKZ1tIX0Axqs2dhL0NS-73" edge="1">
          <mxGeometry relative="1" as="geometry" />
        </mxCell>
        <mxCell id="EbKZ1tIX0Axqs2dhL0NS-77" value="DB统计RatingLevelAmount&amp;nbsp;" style="rounded=0;whiteSpace=wrap;html=1;fillColor=#fff2cc;strokeColor=#d6b656;" parent="EbKZ1tIX0Axqs2dhL0NS-1" vertex="1">
          <mxGeometry x="1212.5" y="793.5" width="150" height="52.5" as="geometry" />
        </mxCell>
        <mxCell id="EbKZ1tIX0Axqs2dhL0NS-78" style="edgeStyle=orthogonalEdgeStyle;rounded=1;orthogonalLoop=1;jettySize=auto;html=1;exitX=0;exitY=0.5;exitDx=0;exitDy=0;entryX=1.007;entryY=0.6;entryDx=0;entryDy=0;entryPerimeter=0;" parent="EbKZ1tIX0Axqs2dhL0NS-1" source="EbKZ1tIX0Axqs2dhL0NS-79" target="EbKZ1tIX0Axqs2dhL0NS-73" edge="1">
          <mxGeometry relative="1" as="geometry">
            <mxPoint x="1152.5" y="833.5" as="targetPoint" />
          </mxGeometry>
        </mxCell>
        <mxCell id="EbKZ1tIX0Axqs2dhL0NS-79" value="获取subscore" style="rounded=0;whiteSpace=wrap;html=1;fillColor=#fff2cc;strokeColor=#d6b656;" parent="EbKZ1tIX0Axqs2dhL0NS-1" vertex="1">
          <mxGeometry x="1213.5" y="863.5" width="150" height="52.5" as="geometry" />
        </mxCell>
        <mxCell id="EbKZ1tIX0Axqs2dhL0NS-80" style="edgeStyle=orthogonalEdgeStyle;rounded=1;orthogonalLoop=1;jettySize=auto;html=1;exitX=0;exitY=0.5;exitDx=0;exitDy=0;exitPerimeter=0;" parent="EbKZ1tIX0Axqs2dhL0NS-1" source="EbKZ1tIX0Axqs2dhL0NS-82" target="EbKZ1tIX0Axqs2dhL0NS-85" edge="1">
          <mxGeometry relative="1" as="geometry" />
        </mxCell>
        <mxCell id="EbKZ1tIX0Axqs2dhL0NS-81" style="edgeStyle=orthogonalEdgeStyle;rounded=1;orthogonalLoop=1;jettySize=auto;html=1;exitX=0.5;exitY=1;exitDx=0;exitDy=0;exitPerimeter=0;" parent="EbKZ1tIX0Axqs2dhL0NS-1" source="EbKZ1tIX0Axqs2dhL0NS-82" target="EbKZ1tIX0Axqs2dhL0NS-77" edge="1">
          <mxGeometry relative="1" as="geometry">
            <Array as="points">
              <mxPoint x="1557.5" y="828.5" />
            </Array>
          </mxGeometry>
        </mxCell>
        <mxCell id="EbKZ1tIX0Axqs2dhL0NS-82" value="DB" style="shape=cylinder3;whiteSpace=wrap;html=1;boundedLbl=1;backgroundOutline=1;size=15;" parent="EbKZ1tIX0Axqs2dhL0NS-1" vertex="1">
          <mxGeometry x="1532.5" y="738.5" width="50" height="70" as="geometry" />
        </mxCell>
        <mxCell id="EbKZ1tIX0Axqs2dhL0NS-83" style="edgeStyle=orthogonalEdgeStyle;rounded=1;orthogonalLoop=1;jettySize=auto;html=1;exitX=0;exitY=0.5;exitDx=0;exitDy=0;exitPerimeter=0;" parent="EbKZ1tIX0Axqs2dhL0NS-1" source="EbKZ1tIX0Axqs2dhL0NS-85" target="EbKZ1tIX0Axqs2dhL0NS-75" edge="1">
          <mxGeometry relative="1" as="geometry" />
        </mxCell>
        <mxCell id="EbKZ1tIX0Axqs2dhL0NS-84" style="edgeStyle=orthogonalEdgeStyle;rounded=1;orthogonalLoop=1;jettySize=auto;html=1;exitX=0;exitY=0.5;exitDx=0;exitDy=0;exitPerimeter=0;entryX=1;entryY=0.5;entryDx=0;entryDy=0;" parent="EbKZ1tIX0Axqs2dhL0NS-1" source="EbKZ1tIX0Axqs2dhL0NS-85" target="EbKZ1tIX0Axqs2dhL0NS-79" edge="1">
          <mxGeometry relative="1" as="geometry" />
        </mxCell>
        <mxCell id="EbKZ1tIX0Axqs2dhL0NS-85" value="redis" style="shape=cylinder3;whiteSpace=wrap;html=1;boundedLbl=1;backgroundOutline=1;size=15;" parent="EbKZ1tIX0Axqs2dhL0NS-1" vertex="1">
          <mxGeometry x="1432.5" y="738.5" width="60" height="70" as="geometry" />
        </mxCell>
        <mxCell id="EbKZ1tIX0Axqs2dhL0NS-86" style="edgeStyle=orthogonalEdgeStyle;rounded=1;orthogonalLoop=1;jettySize=auto;html=1;exitX=0;exitY=0.5;exitDx=0;exitDy=0;" parent="EbKZ1tIX0Axqs2dhL0NS-1" source="EbKZ1tIX0Axqs2dhL0NS-87" edge="1">
          <mxGeometry relative="1" as="geometry">
            <mxPoint x="1852" y="172.05952380952385" as="targetPoint" />
          </mxGeometry>
        </mxCell>
        <mxCell id="EbKZ1tIX0Axqs2dhL0NS-87" value="adaptor" style="rounded=0;whiteSpace=wrap;html=1;fillColor=#fff2cc;strokeColor=#d6b656;" parent="EbKZ1tIX0Axqs2dhL0NS-1" vertex="1">
          <mxGeometry x="1867" y="149.75" width="60" height="45" as="geometry" />
        </mxCell>
        <mxCell id="EbKZ1tIX0Axqs2dhL0NS-88" style="edgeStyle=orthogonalEdgeStyle;rounded=0;orthogonalLoop=1;jettySize=auto;html=1;exitX=0;exitY=0.5;exitDx=0;exitDy=0;entryX=1;entryY=0.5;entryDx=0;entryDy=0;" parent="EbKZ1tIX0Axqs2dhL0NS-1" source="EbKZ1tIX0Axqs2dhL0NS-89" target="EbKZ1tIX0Axqs2dhL0NS-91" edge="1">
          <mxGeometry relative="1" as="geometry" />
        </mxCell>
        <mxCell id="EbKZ1tIX0Axqs2dhL0NS-89" value="hourroom&lt;br&gt;filter" style="rounded=0;whiteSpace=wrap;html=1;" parent="EbKZ1tIX0Axqs2dhL0NS-1" vertex="1">
          <mxGeometry x="1783" y="148.75" width="70" height="47.5" as="geometry" />
        </mxCell>
        <mxCell id="EbKZ1tIX0Axqs2dhL0NS-90" style="edgeStyle=orthogonalEdgeStyle;rounded=1;orthogonalLoop=1;jettySize=auto;html=1;exitX=0;exitY=0.5;exitDx=0;exitDy=0;" parent="EbKZ1tIX0Axqs2dhL0NS-1" source="EbKZ1tIX0Axqs2dhL0NS-91" edge="1">
          <mxGeometry relative="1" as="geometry">
            <mxPoint x="1673" y="172.21428571428578" as="targetPoint" />
          </mxGeometry>
        </mxCell>
        <mxCell id="EbKZ1tIX0Axqs2dhL0NS-91" value="benefits&lt;br&gt;filter" style="rounded=0;whiteSpace=wrap;html=1;" parent="EbKZ1tIX0Axqs2dhL0NS-1" vertex="1">
          <mxGeometry x="1693" y="148" width="70" height="47.5" as="geometry" />
        </mxCell>
        <mxCell id="EbKZ1tIX0Axqs2dhL0NS-92" style="edgeStyle=orthogonalEdgeStyle;rounded=1;orthogonalLoop=1;jettySize=auto;html=1;exitX=0;exitY=0.5;exitDx=0;exitDy=0;entryX=1;entryY=0.5;entryDx=0;entryDy=0;" parent="EbKZ1tIX0Axqs2dhL0NS-1" source="EbKZ1tIX0Axqs2dhL0NS-93" target="EbKZ1tIX0Axqs2dhL0NS-95" edge="1">
          <mxGeometry relative="1" as="geometry" />
        </mxCell>
        <mxCell id="EbKZ1tIX0Axqs2dhL0NS-93" value="provider sku&lt;br&gt;aggregate" style="rounded=0;whiteSpace=wrap;html=1;" parent="EbKZ1tIX0Axqs2dhL0NS-1" vertex="1">
          <mxGeometry x="1593" y="148" width="80" height="50" as="geometry" />
        </mxCell>
        <mxCell id="EbKZ1tIX0Axqs2dhL0NS-94" style="edgeStyle=orthogonalEdgeStyle;rounded=1;orthogonalLoop=1;jettySize=auto;html=1;exitX=0;exitY=0.5;exitDx=0;exitDy=0;" parent="EbKZ1tIX0Axqs2dhL0NS-1" source="EbKZ1tIX0Axqs2dhL0NS-95" target="EbKZ1tIX0Axqs2dhL0NS-97" edge="1">
          <mxGeometry relative="1" as="geometry">
            <mxPoint x="1437" y="226" as="targetPoint" />
            <Array as="points">
              <mxPoint x="1436" y="174" />
              <mxPoint x="1436" y="340" />
            </Array>
          </mxGeometry>
        </mxCell>
        <mxCell id="EbKZ1tIX0Axqs2dhL0NS-95" value="每个master room&lt;br&gt;sku 价格排序&lt;br&gt;取top10" style="rounded=0;whiteSpace=wrap;html=1;" parent="EbKZ1tIX0Axqs2dhL0NS-1" vertex="1">
          <mxGeometry x="1467" y="147" width="100" height="53.5" as="geometry" />
        </mxCell>
        <mxCell id="EbKZ1tIX0Axqs2dhL0NS-96" style="edgeStyle=orthogonalEdgeStyle;rounded=1;orthogonalLoop=1;jettySize=auto;html=1;exitX=0.5;exitY=1;exitDx=0;exitDy=0;entryX=0.5;entryY=0;entryDx=0;entryDy=0;" parent="EbKZ1tIX0Axqs2dhL0NS-1" source="EbKZ1tIX0Axqs2dhL0NS-97" target="EbKZ1tIX0Axqs2dhL0NS-125" edge="1">
          <mxGeometry relative="1" as="geometry" />
        </mxCell>
        <mxCell id="EbKZ1tIX0Axqs2dhL0NS-97" value="shopee mater room 聚合" style="rounded=0;whiteSpace=wrap;html=1;fillColor=#fff2cc;strokeColor=#d6b656;" parent="EbKZ1tIX0Axqs2dhL0NS-1" vertex="1">
          <mxGeometry x="1639" y="332" width="88" height="48" as="geometry" />
        </mxCell>
        <mxCell id="EbKZ1tIX0Axqs2dhL0NS-98" style="edgeStyle=orthogonalEdgeStyle;rounded=1;orthogonalLoop=1;jettySize=auto;html=1;exitX=0;exitY=0.5;exitDx=0;exitDy=0;entryX=1;entryY=0.5;entryDx=0;entryDy=0;fillColor=#eeeeee;strokeColor=#36393d;" parent="EbKZ1tIX0Axqs2dhL0NS-1" source="EbKZ1tIX0Axqs2dhL0NS-99" target="EbKZ1tIX0Axqs2dhL0NS-101" edge="1">
          <mxGeometry relative="1" as="geometry" />
        </mxCell>
        <mxCell id="EbKZ1tIX0Axqs2dhL0NS-99" value="supplier &lt;br&gt;service" style="rounded=0;whiteSpace=wrap;html=1;fillColor=#eeeeee;strokeColor=#36393d;" parent="EbKZ1tIX0Axqs2dhL0NS-1" vertex="1">
          <mxGeometry x="1946" y="227.75" width="69" height="46.25" as="geometry" />
        </mxCell>
        <mxCell id="EbKZ1tIX0Axqs2dhL0NS-100" style="edgeStyle=orthogonalEdgeStyle;rounded=1;orthogonalLoop=1;jettySize=auto;html=1;exitX=0;exitY=0.5;exitDx=0;exitDy=0;fillColor=#eeeeee;strokeColor=#36393d;" parent="EbKZ1tIX0Axqs2dhL0NS-1" source="EbKZ1tIX0Axqs2dhL0NS-101" edge="1">
          <mxGeometry relative="1" as="geometry">
            <mxPoint x="1851" y="250.05952380952385" as="targetPoint" />
          </mxGeometry>
        </mxCell>
        <mxCell id="EbKZ1tIX0Axqs2dhL0NS-101" value="adaptor" style="rounded=0;whiteSpace=wrap;html=1;fillColor=#eeeeee;strokeColor=#36393d;" parent="EbKZ1tIX0Axqs2dhL0NS-1" vertex="1">
          <mxGeometry x="1866" y="227.75" width="60" height="45" as="geometry" />
        </mxCell>
        <mxCell id="EbKZ1tIX0Axqs2dhL0NS-102" style="edgeStyle=orthogonalEdgeStyle;rounded=0;orthogonalLoop=1;jettySize=auto;html=1;exitX=0;exitY=0.5;exitDx=0;exitDy=0;entryX=1;entryY=0.5;entryDx=0;entryDy=0;fillColor=#eeeeee;strokeColor=#36393d;" parent="EbKZ1tIX0Axqs2dhL0NS-1" source="EbKZ1tIX0Axqs2dhL0NS-103" target="EbKZ1tIX0Axqs2dhL0NS-105" edge="1">
          <mxGeometry relative="1" as="geometry" />
        </mxCell>
        <mxCell id="EbKZ1tIX0Axqs2dhL0NS-103" value="hourroom&lt;br&gt;filter" style="rounded=0;whiteSpace=wrap;html=1;fillColor=#eeeeee;strokeColor=#36393d;" parent="EbKZ1tIX0Axqs2dhL0NS-1" vertex="1">
          <mxGeometry x="1782" y="226.75" width="70" height="47.5" as="geometry" />
        </mxCell>
        <mxCell id="EbKZ1tIX0Axqs2dhL0NS-104" style="edgeStyle=orthogonalEdgeStyle;rounded=1;orthogonalLoop=1;jettySize=auto;html=1;exitX=0;exitY=0.5;exitDx=0;exitDy=0;fillColor=#eeeeee;strokeColor=#36393d;" parent="EbKZ1tIX0Axqs2dhL0NS-1" source="EbKZ1tIX0Axqs2dhL0NS-105" edge="1">
          <mxGeometry relative="1" as="geometry">
            <mxPoint x="1672" y="250.21428571428578" as="targetPoint" />
          </mxGeometry>
        </mxCell>
        <mxCell id="EbKZ1tIX0Axqs2dhL0NS-105" value="benefits&lt;br&gt;filter" style="rounded=0;whiteSpace=wrap;html=1;fillColor=#eeeeee;strokeColor=#36393d;" parent="EbKZ1tIX0Axqs2dhL0NS-1" vertex="1">
          <mxGeometry x="1692" y="226" width="70" height="47.5" as="geometry" />
        </mxCell>
        <mxCell id="EbKZ1tIX0Axqs2dhL0NS-106" style="edgeStyle=orthogonalEdgeStyle;rounded=1;orthogonalLoop=1;jettySize=auto;html=1;exitX=0;exitY=0.5;exitDx=0;exitDy=0;entryX=1;entryY=0.5;entryDx=0;entryDy=0;fillColor=#eeeeee;strokeColor=#36393d;" parent="EbKZ1tIX0Axqs2dhL0NS-1" source="EbKZ1tIX0Axqs2dhL0NS-107" target="EbKZ1tIX0Axqs2dhL0NS-109" edge="1">
          <mxGeometry relative="1" as="geometry" />
        </mxCell>
        <mxCell id="EbKZ1tIX0Axqs2dhL0NS-107" value="provider sku&lt;br&gt;aggregate" style="rounded=0;whiteSpace=wrap;html=1;fillColor=#eeeeee;strokeColor=#36393d;" parent="EbKZ1tIX0Axqs2dhL0NS-1" vertex="1">
          <mxGeometry x="1592" y="226" width="80" height="50" as="geometry" />
        </mxCell>
        <mxCell id="EbKZ1tIX0Axqs2dhL0NS-108" style="edgeStyle=orthogonalEdgeStyle;rounded=1;orthogonalLoop=1;jettySize=auto;html=1;exitX=0;exitY=0.5;exitDx=0;exitDy=0;entryX=0.5;entryY=0;entryDx=0;entryDy=0;" parent="EbKZ1tIX0Axqs2dhL0NS-1" source="EbKZ1tIX0Axqs2dhL0NS-109" target="EbKZ1tIX0Axqs2dhL0NS-97" edge="1">
          <mxGeometry relative="1" as="geometry">
            <mxPoint x="1747" y="324" as="targetPoint" />
          </mxGeometry>
        </mxCell>
        <mxCell id="EbKZ1tIX0Axqs2dhL0NS-109" value="每个master room&lt;br&gt;sku 价格排序&lt;br&gt;取top10" style="rounded=0;whiteSpace=wrap;html=1;fillColor=#eeeeee;strokeColor=#36393d;" parent="EbKZ1tIX0Axqs2dhL0NS-1" vertex="1">
          <mxGeometry x="1466" y="225" width="100" height="53.5" as="geometry" />
        </mxCell>
        <mxCell id="EbKZ1tIX0Axqs2dhL0NS-110" style="edgeStyle=orthogonalEdgeStyle;rounded=1;orthogonalLoop=1;jettySize=auto;html=1;exitX=0;exitY=0.5;exitDx=0;exitDy=0;entryX=1;entryY=0.5;entryDx=0;entryDy=0;" parent="EbKZ1tIX0Axqs2dhL0NS-1" source="EbKZ1tIX0Axqs2dhL0NS-111" target="EbKZ1tIX0Axqs2dhL0NS-113" edge="1">
          <mxGeometry relative="1" as="geometry" />
        </mxCell>
        <mxCell id="EbKZ1tIX0Axqs2dhL0NS-111" value="assemble &lt;br&gt;房型静态信息" style="rounded=0;whiteSpace=wrap;html=1;" parent="EbKZ1tIX0Axqs2dhL0NS-1" vertex="1">
          <mxGeometry x="1532.5" y="398" width="83" height="52" as="geometry" />
        </mxCell>
        <mxCell id="EbKZ1tIX0Axqs2dhL0NS-112" style="edgeStyle=orthogonalEdgeStyle;rounded=1;orthogonalLoop=1;jettySize=auto;html=1;exitX=0;exitY=0.5;exitDx=0;exitDy=0;entryX=1;entryY=0.5;entryDx=0;entryDy=0;" parent="EbKZ1tIX0Axqs2dhL0NS-1" source="EbKZ1tIX0Axqs2dhL0NS-113" target="EbKZ1tIX0Axqs2dhL0NS-115" edge="1">
          <mxGeometry relative="1" as="geometry" />
        </mxCell>
        <mxCell id="EbKZ1tIX0Axqs2dhL0NS-113" value="主房型sort" style="rounded=0;whiteSpace=wrap;html=1;" parent="EbKZ1tIX0Axqs2dhL0NS-1" vertex="1">
          <mxGeometry x="1443" y="397.5" width="69" height="51" as="geometry" />
        </mxCell>
        <mxCell id="EbKZ1tIX0Axqs2dhL0NS-114" style="edgeStyle=orthogonalEdgeStyle;rounded=1;orthogonalLoop=1;jettySize=auto;html=1;exitX=0;exitY=0.5;exitDx=0;exitDy=0;entryX=1;entryY=0.5;entryDx=0;entryDy=0;" parent="EbKZ1tIX0Axqs2dhL0NS-1" source="EbKZ1tIX0Axqs2dhL0NS-115" target="EbKZ1tIX0Axqs2dhL0NS-117" edge="1">
          <mxGeometry relative="1" as="geometry" />
        </mxCell>
        <mxCell id="EbKZ1tIX0Axqs2dhL0NS-115" value="markup" style="rounded=0;whiteSpace=wrap;html=1;fillColor=#fff2cc;strokeColor=#d6b656;" parent="EbKZ1tIX0Axqs2dhL0NS-1" vertex="1">
          <mxGeometry x="1329" y="343" width="73" height="46" as="geometry" />
        </mxCell>
        <mxCell id="EbKZ1tIX0Axqs2dhL0NS-116" style="edgeStyle=orthogonalEdgeStyle;rounded=1;orthogonalLoop=1;jettySize=auto;html=1;exitX=0;exitY=0.5;exitDx=0;exitDy=0;" parent="EbKZ1tIX0Axqs2dhL0NS-1" source="EbKZ1tIX0Axqs2dhL0NS-117" target="EbKZ1tIX0Axqs2dhL0NS-120" edge="1">
          <mxGeometry relative="1" as="geometry" />
        </mxCell>
        <mxCell id="EbKZ1tIX0Axqs2dhL0NS-117" value="&amp;nbsp; markup&lt;br&gt;之后sort" style="rounded=0;whiteSpace=wrap;html=1;fillColor=#fff2cc;strokeColor=#d6b656;" parent="EbKZ1tIX0Axqs2dhL0NS-1" vertex="1">
          <mxGeometry x="1245" y="343" width="65" height="47" as="geometry" />
        </mxCell>
        <mxCell id="EbKZ1tIX0Axqs2dhL0NS-118" style="edgeStyle=orthogonalEdgeStyle;rounded=1;orthogonalLoop=1;jettySize=auto;html=1;exitX=0;exitY=0.5;exitDx=0;exitDy=0;entryX=1;entryY=0.5;entryDx=0;entryDy=0;" parent="EbKZ1tIX0Axqs2dhL0NS-1" source="EbKZ1tIX0Axqs2dhL0NS-120" target="EbKZ1tIX0Axqs2dhL0NS-59" edge="1">
          <mxGeometry relative="1" as="geometry" />
        </mxCell>
        <mxCell id="EbKZ1tIX0Axqs2dhL0NS-119" style="edgeStyle=orthogonalEdgeStyle;rounded=1;orthogonalLoop=1;jettySize=auto;html=1;exitX=0.5;exitY=1;exitDx=0;exitDy=0;entryX=0.5;entryY=0;entryDx=0;entryDy=0;entryPerimeter=0;" parent="EbKZ1tIX0Axqs2dhL0NS-1" source="EbKZ1tIX0Axqs2dhL0NS-120" target="EbKZ1tIX0Axqs2dhL0NS-66" edge="1">
          <mxGeometry relative="1" as="geometry" />
        </mxCell>
        <mxCell id="EbKZ1tIX0Axqs2dhL0NS-120" value="set cache&lt;br&gt;（未加价）" style="rounded=0;whiteSpace=wrap;html=1;" parent="EbKZ1tIX0Axqs2dhL0NS-1" vertex="1">
          <mxGeometry x="1142" y="341" width="73" height="50" as="geometry" />
        </mxCell>
        <mxCell id="EbKZ1tIX0Axqs2dhL0NS-121" style="edgeStyle=orthogonalEdgeStyle;rounded=1;orthogonalLoop=1;jettySize=auto;html=1;exitX=0;exitY=0.5;exitDx=0;exitDy=0;entryX=1;entryY=0.5;entryDx=0;entryDy=0;" parent="EbKZ1tIX0Axqs2dhL0NS-1" source="EbKZ1tIX0Axqs2dhL0NS-123" target="EbKZ1tIX0Axqs2dhL0NS-61" edge="1">
          <mxGeometry relative="1" as="geometry" />
        </mxCell>
        <mxCell id="EbKZ1tIX0Axqs2dhL0NS-122" style="edgeStyle=orthogonalEdgeStyle;rounded=1;orthogonalLoop=1;jettySize=auto;html=1;exitX=0;exitY=0.75;exitDx=0;exitDy=0;entryX=1;entryY=0.75;entryDx=0;entryDy=0;" parent="EbKZ1tIX0Axqs2dhL0NS-1" source="EbKZ1tIX0Axqs2dhL0NS-123" target="EbKZ1tIX0Axqs2dhL0NS-99" edge="1">
          <mxGeometry relative="1" as="geometry" />
        </mxCell>
        <mxCell id="EbKZ1tIX0Axqs2dhL0NS-123" value="查询ES&lt;br&gt;哪些供应商提供&lt;br&gt;shopee hotel" style="rounded=0;whiteSpace=wrap;html=1;fillColor=#fff2cc;strokeColor=#d6b656;" parent="EbKZ1tIX0Axqs2dhL0NS-1" vertex="1">
          <mxGeometry x="2054" y="158" width="52" height="95" as="geometry" />
        </mxCell>
        <mxCell id="EbKZ1tIX0Axqs2dhL0NS-124" style="edgeStyle=orthogonalEdgeStyle;rounded=1;orthogonalLoop=1;jettySize=auto;html=1;exitX=0;exitY=0.5;exitDx=0;exitDy=0;entryX=1;entryY=0.5;entryDx=0;entryDy=0;" parent="EbKZ1tIX0Axqs2dhL0NS-1" source="EbKZ1tIX0Axqs2dhL0NS-125" target="EbKZ1tIX0Axqs2dhL0NS-111" edge="1">
          <mxGeometry relative="1" as="geometry" />
        </mxCell>
        <mxCell id="EbKZ1tIX0Axqs2dhL0NS-125" value="动态sku聚合" style="rounded=0;whiteSpace=wrap;html=1;fillColor=#f8cecc;strokeColor=#b85450;" parent="EbKZ1tIX0Axqs2dhL0NS-1" vertex="1">
          <mxGeometry x="1642" y="400" width="84" height="46" as="geometry" />
        </mxCell>
        <mxCell id="EbKZ1tIX0Axqs2dhL0NS-126" value="" style="shape=flexArrow;endArrow=classic;html=1;rounded=1;width=13.333333333333332;endSize=6.855555555555555;endWidth=16.296296296296298;" parent="EbKZ1tIX0Axqs2dhL0NS-1" edge="1">
          <mxGeometry width="50" height="50" relative="1" as="geometry">
            <mxPoint x="1035" y="137" as="sourcePoint" />
            <mxPoint x="1035.44" y="212" as="targetPoint" />
          </mxGeometry>
        </mxCell>
        <mxCell id="EbKZ1tIX0Axqs2dhL0NS-127" value="fullfillement&lt;br&gt;信息组装&lt;br&gt;（包含原价、加价）" style="rounded=0;whiteSpace=wrap;html=1;" parent="EbKZ1tIX0Axqs2dhL0NS-1" vertex="1">
          <mxGeometry x="1786" y="737" width="111" height="54.5" as="geometry" />
        </mxCell>
        <mxCell id="EbKZ1tIX0Axqs2dhL0NS-128" style="edgeStyle=orthogonalEdgeStyle;rounded=1;orthogonalLoop=1;jettySize=auto;html=1;exitX=0;exitY=0.5;exitDx=0;exitDy=0;exitPerimeter=0;" parent="EbKZ1tIX0Axqs2dhL0NS-1" source="EbKZ1tIX0Axqs2dhL0NS-129" target="EbKZ1tIX0Axqs2dhL0NS-135" edge="1">
          <mxGeometry relative="1" as="geometry" />
        </mxCell>
        <mxCell id="EbKZ1tIX0Axqs2dhL0NS-129" value="缓存的动态信息" style="shape=cylinder3;whiteSpace=wrap;html=1;boundedLbl=1;backgroundOutline=1;size=15;" parent="EbKZ1tIX0Axqs2dhL0NS-1" vertex="1">
          <mxGeometry x="2099" y="672" width="60" height="78" as="geometry" />
        </mxCell>
        <mxCell id="EbKZ1tIX0Axqs2dhL0NS-130" style="edgeStyle=orthogonalEdgeStyle;rounded=1;orthogonalLoop=1;jettySize=auto;html=1;exitX=0;exitY=0;exitDx=0;exitDy=52.5;exitPerimeter=0;entryX=1;entryY=0.75;entryDx=0;entryDy=0;" parent="EbKZ1tIX0Axqs2dhL0NS-1" source="EbKZ1tIX0Axqs2dhL0NS-131" target="EbKZ1tIX0Axqs2dhL0NS-127" edge="1">
          <mxGeometry relative="1" as="geometry">
            <Array as="points">
              <mxPoint x="1930" y="839" />
              <mxPoint x="1930" y="778" />
            </Array>
          </mxGeometry>
        </mxCell>
        <mxCell id="EbKZ1tIX0Axqs2dhL0NS-131" value="缓存的房型静态信息" style="shape=cylinder3;whiteSpace=wrap;html=1;boundedLbl=1;backgroundOutline=1;size=15;" parent="EbKZ1tIX0Axqs2dhL0NS-1" vertex="1">
          <mxGeometry x="1995" y="786" width="60" height="80" as="geometry" />
        </mxCell>
        <mxCell id="EbKZ1tIX0Axqs2dhL0NS-132" style="edgeStyle=orthogonalEdgeStyle;rounded=1;orthogonalLoop=1;jettySize=auto;html=1;exitX=0;exitY=0.5;exitDx=0;exitDy=0;exitPerimeter=0;" parent="EbKZ1tIX0Axqs2dhL0NS-1" source="EbKZ1tIX0Axqs2dhL0NS-133" edge="1">
          <mxGeometry relative="1" as="geometry">
            <mxPoint x="2056" y="828" as="targetPoint" />
          </mxGeometry>
        </mxCell>
        <mxCell id="EbKZ1tIX0Axqs2dhL0NS-133" value="缓存的房型静态信息" style="shape=cylinder3;whiteSpace=wrap;html=1;boundedLbl=1;backgroundOutline=1;size=15;" parent="EbKZ1tIX0Axqs2dhL0NS-1" vertex="1">
          <mxGeometry x="2093" y="788" width="60" height="80" as="geometry" />
        </mxCell>
        <mxCell id="EbKZ1tIX0Axqs2dhL0NS-134" style="edgeStyle=orthogonalEdgeStyle;rounded=1;orthogonalLoop=1;jettySize=auto;html=1;exitX=0;exitY=0.5;exitDx=0;exitDy=0;entryX=1;entryY=0.25;entryDx=0;entryDy=0;" parent="EbKZ1tIX0Axqs2dhL0NS-1" source="EbKZ1tIX0Axqs2dhL0NS-135" target="EbKZ1tIX0Axqs2dhL0NS-127" edge="1">
          <mxGeometry relative="1" as="geometry" />
        </mxCell>
        <mxCell id="EbKZ1tIX0Axqs2dhL0NS-135" value="markup" style="rounded=0;whiteSpace=wrap;html=1;fillColor=#fff2cc;strokeColor=#d6b656;" parent="EbKZ1tIX0Axqs2dhL0NS-1" vertex="1">
          <mxGeometry x="1976" y="679" width="80" height="64" as="geometry" />
        </mxCell>
        <mxCell id="EbKZ1tIX0Axqs2dhL0NS-136" value="GetReviews" style="rounded=0;whiteSpace=wrap;html=1;" parent="EbKZ1tIX0Axqs2dhL0NS-1" vertex="1">
          <mxGeometry x="1465" y="1062" width="104" height="52" as="geometry" />
        </mxCell>
        <mxCell id="EbKZ1tIX0Axqs2dhL0NS-137" style="edgeStyle=orthogonalEdgeStyle;rounded=1;orthogonalLoop=1;jettySize=auto;html=1;exitX=0;exitY=0.5;exitDx=0;exitDy=0;exitPerimeter=0;" parent="EbKZ1tIX0Axqs2dhL0NS-1" source="EbKZ1tIX0Axqs2dhL0NS-138" target="EbKZ1tIX0Axqs2dhL0NS-140" edge="1">
          <mxGeometry relative="1" as="geometry" />
        </mxCell>
        <mxCell id="EbKZ1tIX0Axqs2dhL0NS-138" value="DB" style="shape=cylinder3;whiteSpace=wrap;html=1;boundedLbl=1;backgroundOutline=1;size=15;" parent="EbKZ1tIX0Axqs2dhL0NS-1" vertex="1">
          <mxGeometry x="1884" y="1049" width="60" height="80" as="geometry" />
        </mxCell>
        <mxCell id="EbKZ1tIX0Axqs2dhL0NS-139" style="edgeStyle=orthogonalEdgeStyle;rounded=1;orthogonalLoop=1;jettySize=auto;html=1;exitX=0;exitY=0.5;exitDx=0;exitDy=0;entryX=1;entryY=0.5;entryDx=0;entryDy=0;" parent="EbKZ1tIX0Axqs2dhL0NS-1" source="EbKZ1tIX0Axqs2dhL0NS-140" target="EbKZ1tIX0Axqs2dhL0NS-142" edge="1">
          <mxGeometry relative="1" as="geometry" />
        </mxCell>
        <mxCell id="EbKZ1tIX0Axqs2dhL0NS-140" value="DB 分页（50）" style="rounded=0;whiteSpace=wrap;html=1;" parent="EbKZ1tIX0Axqs2dhL0NS-1" vertex="1">
          <mxGeometry x="1745" y="1063" width="90" height="53" as="geometry" />
        </mxCell>
        <mxCell id="EbKZ1tIX0Axqs2dhL0NS-141" style="edgeStyle=orthogonalEdgeStyle;rounded=1;orthogonalLoop=1;jettySize=auto;html=1;exitX=0;exitY=0.5;exitDx=0;exitDy=0;" parent="EbKZ1tIX0Axqs2dhL0NS-1" source="EbKZ1tIX0Axqs2dhL0NS-142" target="EbKZ1tIX0Axqs2dhL0NS-136" edge="1">
          <mxGeometry relative="1" as="geometry" />
        </mxCell>
        <mxCell id="EbKZ1tIX0Axqs2dhL0NS-142" value="本地排序" style="rounded=0;whiteSpace=wrap;html=1;" parent="EbKZ1tIX0Axqs2dhL0NS-1" vertex="1">
          <mxGeometry x="1621" y="1063" width="83" height="52" as="geometry" />
        </mxCell>
      </root>
    </mxGraphModel>
  </diagram>
  <diagram id="sXLMkAW1Wmg_aarPDIhd" name="ideal_logical_architecture">
    <mxGraphModel dx="1306" dy="836" grid="1" gridSize="10" guides="1" tooltips="1" connect="1" arrows="1" fold="1" page="1" pageScale="1" pageWidth="827" pageHeight="1169" math="0" shadow="0">
      <root>
        <mxCell id="0" />
        <mxCell id="1" parent="0" />
        <mxCell id="q1Ef50vEH1lfMhAiaY33-123" value="pull" style="edgeStyle=elbowEdgeStyle;rounded=1;orthogonalLoop=1;jettySize=auto;elbow=horizontal;html=1;exitX=0.75;exitY=1;exitDx=0;exitDy=0;entryX=0.75;entryY=0;entryDx=0;entryDy=0;" parent="1" source="q1Ef50vEH1lfMhAiaY33-109" target="q1Ef50vEH1lfMhAiaY33-8" edge="1">
          <mxGeometry relative="1" as="geometry">
            <Array as="points">
              <mxPoint x="259.5" y="680" />
            </Array>
          </mxGeometry>
        </mxCell>
        <mxCell id="q1Ef50vEH1lfMhAiaY33-109" value="" style="rounded=1;whiteSpace=wrap;html=1;fillColor=#dae8fc;strokeColor=#6c8ebf;" parent="1" vertex="1">
          <mxGeometry x="170" y="520" width="140" height="110" as="geometry" />
        </mxCell>
        <mxCell id="q1Ef50vEH1lfMhAiaY33-1" value="" style="rounded=1;whiteSpace=wrap;html=1;fillColor=#E7F9E6;strokeColor=#FCFCFC;" parent="1" vertex="1">
          <mxGeometry x="420" y="310" width="450" height="210" as="geometry" />
        </mxCell>
        <mxCell id="q1Ef50vEH1lfMhAiaY33-2" value="" style="rounded=0;whiteSpace=wrap;html=1;fillColor=#fff2cc;strokeColor=#d6b656;" parent="1" vertex="1">
          <mxGeometry x="107" y="130" width="313" height="81.25" as="geometry" />
        </mxCell>
        <mxCell id="q1Ef50vEH1lfMhAiaY33-116" style="edgeStyle=elbowEdgeStyle;rounded=1;orthogonalLoop=1;jettySize=auto;elbow=vertical;html=1;exitX=0.5;exitY=1;exitDx=0;exitDy=0;entryX=0.229;entryY=-0.024;entryDx=0;entryDy=0;entryPerimeter=0;" parent="1" source="q1Ef50vEH1lfMhAiaY33-4" target="q1Ef50vEH1lfMhAiaY33-8" edge="1">
          <mxGeometry relative="1" as="geometry">
            <Array as="points">
              <mxPoint x="110" y="660" />
            </Array>
          </mxGeometry>
        </mxCell>
        <mxCell id="q1Ef50vEH1lfMhAiaY33-4" value="" style="rounded=0;whiteSpace=wrap;html=1;fillColor=#fff2cc;strokeColor=#d6b656;" parent="1" vertex="1">
          <mxGeometry x="30" y="543" width="119.75" height="77" as="geometry" />
        </mxCell>
        <mxCell id="q1Ef50vEH1lfMhAiaY33-122" value="push&lt;br&gt;" style="edgeStyle=elbowEdgeStyle;rounded=1;orthogonalLoop=1;jettySize=auto;elbow=horizontal;html=1;exitX=0.5;exitY=0;exitDx=0;exitDy=0;entryX=0.3;entryY=1.014;entryDx=0;entryDy=0;entryPerimeter=0;" parent="1" source="q1Ef50vEH1lfMhAiaY33-8" target="q1Ef50vEH1lfMhAiaY33-109" edge="1">
          <mxGeometry relative="1" as="geometry">
            <Array as="points">
              <mxPoint x="197.5" y="650" />
              <mxPoint x="207.5" y="660" />
              <mxPoint x="197.5" y="660" />
              <mxPoint x="207.5" y="660" />
            </Array>
          </mxGeometry>
        </mxCell>
        <mxCell id="q1Ef50vEH1lfMhAiaY33-124" style="edgeStyle=orthogonalEdgeStyle;rounded=1;orthogonalLoop=1;jettySize=auto;html=1;exitX=0.75;exitY=1;exitDx=0;exitDy=0;elbow=vertical;" parent="1" source="q1Ef50vEH1lfMhAiaY33-8" target="q1Ef50vEH1lfMhAiaY33-25" edge="1">
          <mxGeometry relative="1" as="geometry" />
        </mxCell>
        <mxCell id="q1Ef50vEH1lfMhAiaY33-140" style="edgeStyle=orthogonalEdgeStyle;rounded=1;orthogonalLoop=1;jettySize=auto;html=1;exitX=1;exitY=0.5;exitDx=0;exitDy=0;elbow=vertical;" parent="1" source="q1Ef50vEH1lfMhAiaY33-8" edge="1">
          <mxGeometry relative="1" as="geometry">
            <mxPoint x="369.79999999999995" y="888" as="targetPoint" />
          </mxGeometry>
        </mxCell>
        <mxCell id="q1Ef50vEH1lfMhAiaY33-8" value="" style="rounded=0;whiteSpace=wrap;html=1;fillColor=#fff2cc;strokeColor=#d6b656;" parent="1" vertex="1">
          <mxGeometry x="50" y="700" width="279.5" height="84.76" as="geometry" />
        </mxCell>
        <mxCell id="q1Ef50vEH1lfMhAiaY33-10" style="edgeStyle=elbowEdgeStyle;rounded=1;jumpStyle=arc;orthogonalLoop=1;jettySize=auto;elbow=vertical;html=1;exitX=1;exitY=0.5;exitDx=0;exitDy=0;entryX=0;entryY=0.25;entryDx=0;entryDy=0;" parent="1" source="q1Ef50vEH1lfMhAiaY33-11" edge="1">
          <mxGeometry relative="1" as="geometry">
            <mxPoint x="692.5" y="793.3575000000001" as="targetPoint" />
          </mxGeometry>
        </mxCell>
        <mxCell id="q1Ef50vEH1lfMhAiaY33-138" style="edgeStyle=orthogonalEdgeStyle;rounded=1;orthogonalLoop=1;jettySize=auto;html=1;exitX=0.5;exitY=0;exitDx=0;exitDy=0;entryX=0.5;entryY=1;entryDx=0;entryDy=0;elbow=vertical;" parent="1" source="q1Ef50vEH1lfMhAiaY33-11" target="q1Ef50vEH1lfMhAiaY33-24" edge="1">
          <mxGeometry relative="1" as="geometry" />
        </mxCell>
        <mxCell id="q1Ef50vEH1lfMhAiaY33-11" value="" style="rounded=0;whiteSpace=wrap;html=1;fillColor=#fff2cc;strokeColor=#d6b656;" parent="1" vertex="1">
          <mxGeometry x="441.5" y="739.25" width="222.75" height="110.99" as="geometry" />
        </mxCell>
        <mxCell id="q1Ef50vEH1lfMhAiaY33-12" style="edgeStyle=elbowEdgeStyle;rounded=1;orthogonalLoop=1;jettySize=auto;html=1;exitX=0;exitY=0.25;exitDx=0;exitDy=0;entryX=0.5;entryY=1;entryDx=0;entryDy=0;entryPerimeter=0;" parent="1" source="q1Ef50vEH1lfMhAiaY33-14" target="q1Ef50vEH1lfMhAiaY33-27" edge="1">
          <mxGeometry relative="1" as="geometry">
            <Array as="points">
              <mxPoint x="470" y="480" />
              <mxPoint x="500" y="480" />
            </Array>
          </mxGeometry>
        </mxCell>
        <mxCell id="q1Ef50vEH1lfMhAiaY33-13" style="edgeStyle=orthogonalEdgeStyle;rounded=1;orthogonalLoop=1;jettySize=auto;html=1;exitX=0.5;exitY=0;exitDx=0;exitDy=0;entryX=0.5;entryY=1;entryDx=0;entryDy=0;entryPerimeter=0;" parent="1" source="q1Ef50vEH1lfMhAiaY33-14" target="q1Ef50vEH1lfMhAiaY33-29" edge="1">
          <mxGeometry relative="1" as="geometry">
            <mxPoint x="646.25" y="520" as="targetPoint" />
          </mxGeometry>
        </mxCell>
        <mxCell id="q1Ef50vEH1lfMhAiaY33-14" value="" style="rounded=0;whiteSpace=wrap;html=1;fillColor=#fff2cc;strokeColor=#d6b656;" parent="1" vertex="1">
          <mxGeometry x="558.75" y="540" width="176.25" height="70" as="geometry" />
        </mxCell>
        <mxCell id="q1Ef50vEH1lfMhAiaY33-15" style="edgeStyle=orthogonalEdgeStyle;rounded=1;orthogonalLoop=1;jettySize=auto;html=1;exitX=1;exitY=0.5;exitDx=0;exitDy=0;entryX=0.5;entryY=1;entryDx=0;entryDy=0;entryPerimeter=0;" parent="1" source="q1Ef50vEH1lfMhAiaY33-18" target="q1Ef50vEH1lfMhAiaY33-26" edge="1">
          <mxGeometry relative="1" as="geometry" />
        </mxCell>
        <mxCell id="q1Ef50vEH1lfMhAiaY33-16" style="edgeStyle=elbowEdgeStyle;rounded=1;orthogonalLoop=1;jettySize=auto;html=1;exitX=0.25;exitY=0;exitDx=0;exitDy=0;entryX=0.5;entryY=0;entryDx=0;entryDy=0;" parent="1" source="q1Ef50vEH1lfMhAiaY33-18" target="q1Ef50vEH1lfMhAiaY33-24" edge="1">
          <mxGeometry relative="1" as="geometry">
            <Array as="points">
              <mxPoint x="788" y="749.24" />
              <mxPoint x="762" y="749.24" />
            </Array>
          </mxGeometry>
        </mxCell>
        <mxCell id="q1Ef50vEH1lfMhAiaY33-17" style="edgeStyle=elbowEdgeStyle;rounded=1;orthogonalLoop=1;jettySize=auto;html=1;exitX=0.5;exitY=0;exitDx=0;exitDy=0;entryX=0.5;entryY=1;entryDx=0;entryDy=0;entryPerimeter=0;" parent="1" source="q1Ef50vEH1lfMhAiaY33-18" target="q1Ef50vEH1lfMhAiaY33-32" edge="1">
          <mxGeometry relative="1" as="geometry" />
        </mxCell>
        <mxCell id="q1Ef50vEH1lfMhAiaY33-18" value="" style="rounded=0;whiteSpace=wrap;html=1;fillColor=#fff2cc;strokeColor=#d6b656;" parent="1" vertex="1">
          <mxGeometry x="744.5" y="769.24" width="175" height="60" as="geometry" />
        </mxCell>
        <mxCell id="q1Ef50vEH1lfMhAiaY33-20" value="" style="shape=process;whiteSpace=wrap;html=1;backgroundOutline=1;" parent="1" vertex="1">
          <mxGeometry x="682" y="786.73" width="40" height="22.51" as="geometry" />
        </mxCell>
        <mxCell id="q1Ef50vEH1lfMhAiaY33-21" value="supplier-service&lt;br&gt;动态信息查询" style="rounded=0;whiteSpace=wrap;html=1;fillColor=#f8cecc;strokeColor=#b85450;" parent="1" vertex="1">
          <mxGeometry x="880" y="340" width="120" height="60" as="geometry" />
        </mxCell>
        <mxCell id="q1Ef50vEH1lfMhAiaY33-22" value="supplier-service&lt;br&gt;" style="rounded=0;whiteSpace=wrap;html=1;fillColor=#f8cecc;strokeColor=#b85450;" parent="1" vertex="1">
          <mxGeometry x="49.5" y="820" width="120.5" height="60" as="geometry" />
        </mxCell>
        <mxCell id="q1Ef50vEH1lfMhAiaY33-23" style="edgeStyle=elbowEdgeStyle;rounded=1;jumpStyle=arc;orthogonalLoop=1;jettySize=auto;elbow=vertical;html=1;exitX=0;exitY=0.5;exitDx=0;exitDy=0;entryX=0.5;entryY=1;entryDx=0;entryDy=0;" parent="1" source="q1Ef50vEH1lfMhAiaY33-24" target="q1Ef50vEH1lfMhAiaY33-14" edge="1">
          <mxGeometry relative="1" as="geometry" />
        </mxCell>
        <mxCell id="q1Ef50vEH1lfMhAiaY33-24" value="" style="shape=process;whiteSpace=wrap;html=1;backgroundOutline=1;rotation=90;" parent="1" vertex="1">
          <mxGeometry x="663.87" y="684.24" width="30" height="49.99" as="geometry" />
        </mxCell>
        <mxCell id="q1Ef50vEH1lfMhAiaY33-25" value="hbase" style="shape=cylinder3;whiteSpace=wrap;html=1;boundedLbl=1;backgroundOutline=1;size=15;fillColor=#d5e8d4;strokeColor=#82b366;" parent="1" vertex="1">
          <mxGeometry x="227.5" y="810" width="60" height="70" as="geometry" />
        </mxCell>
        <mxCell id="q1Ef50vEH1lfMhAiaY33-26" value="s3" style="shape=cylinder3;whiteSpace=wrap;html=1;boundedLbl=1;backgroundOutline=1;size=15;fillColor=#d5e8d4;strokeColor=#82b366;" parent="1" vertex="1">
          <mxGeometry x="962" y="679.24" width="60" height="70" as="geometry" />
        </mxCell>
        <mxCell id="q1Ef50vEH1lfMhAiaY33-27" value="ES" style="shape=cylinder3;whiteSpace=wrap;html=1;boundedLbl=1;backgroundOutline=1;size=15;fillColor=#d5e8d4;strokeColor=#82b366;" parent="1" vertex="1">
          <mxGeometry x="440" y="345" width="60" height="70" as="geometry" />
        </mxCell>
        <mxCell id="q1Ef50vEH1lfMhAiaY33-28" style="edgeStyle=orthogonalEdgeStyle;rounded=1;orthogonalLoop=1;jettySize=auto;html=1;exitX=0.5;exitY=0;exitDx=0;exitDy=0;exitPerimeter=0;entryX=0.5;entryY=1;entryDx=0;entryDy=0;entryPerimeter=0;" parent="1" source="q1Ef50vEH1lfMhAiaY33-29" target="q1Ef50vEH1lfMhAiaY33-31" edge="1">
          <mxGeometry relative="1" as="geometry" />
        </mxCell>
        <mxCell id="q1Ef50vEH1lfMhAiaY33-29" value="DB" style="shape=cylinder3;whiteSpace=wrap;html=1;boundedLbl=1;backgroundOutline=1;size=15;fillColor=#d5e8d4;strokeColor=#82b366;" parent="1" vertex="1">
          <mxGeometry x="616.25" y="430" width="60" height="60" as="geometry" />
        </mxCell>
        <mxCell id="q1Ef50vEH1lfMhAiaY33-30" style="edgeStyle=elbowEdgeStyle;rounded=1;jumpStyle=arc;orthogonalLoop=1;jettySize=auto;elbow=vertical;html=1;exitX=0.25;exitY=0;exitDx=0;exitDy=0;entryX=0;entryY=0.5;entryDx=0;entryDy=0;entryPerimeter=0;" parent="1" source="q1Ef50vEH1lfMhAiaY33-77" target="q1Ef50vEH1lfMhAiaY33-31" edge="1">
          <mxGeometry relative="1" as="geometry">
            <Array as="points">
              <mxPoint x="598" y="380" />
            </Array>
          </mxGeometry>
        </mxCell>
        <mxCell id="q1Ef50vEH1lfMhAiaY33-31" value="Redis" style="shape=cylinder3;whiteSpace=wrap;html=1;boundedLbl=1;backgroundOutline=1;size=15;fillColor=#d5e8d4;strokeColor=#82b366;" parent="1" vertex="1">
          <mxGeometry x="613.75" y="345" width="60" height="60" as="geometry" />
        </mxCell>
        <mxCell id="q1Ef50vEH1lfMhAiaY33-32" value="CDN files" style="shape=cylinder3;whiteSpace=wrap;html=1;boundedLbl=1;backgroundOutline=1;size=15;fillColor=#d5e8d4;strokeColor=#82b366;" parent="1" vertex="1">
          <mxGeometry x="770" y="335" width="60" height="70" as="geometry" />
        </mxCell>
        <mxCell id="q1Ef50vEH1lfMhAiaY33-33" value="RawMQ" style="text;html=1;align=center;verticalAlign=middle;resizable=0;points=[];autosize=1;strokeColor=none;fillColor=none;" parent="1" vertex="1">
          <mxGeometry x="329.5" y="770" width="70" height="30" as="geometry" />
        </mxCell>
        <mxCell id="q1Ef50vEH1lfMhAiaY33-34" value="PictureMQ" style="text;html=1;align=center;verticalAlign=middle;resizable=0;points=[];autosize=1;strokeColor=none;fillColor=none;" parent="1" vertex="1">
          <mxGeometry x="662" y="749.24" width="80" height="30" as="geometry" />
        </mxCell>
        <mxCell id="q1Ef50vEH1lfMhAiaY33-35" value="ProcessedMQ" style="text;html=1;align=center;verticalAlign=middle;resizable=0;points=[];autosize=1;strokeColor=none;fillColor=none;" parent="1" vertex="1">
          <mxGeometry x="535" y="610" width="100" height="30" as="geometry" />
        </mxCell>
        <mxCell id="q1Ef50vEH1lfMhAiaY33-36" style="edgeStyle=orthogonalEdgeStyle;rounded=1;orthogonalLoop=1;jettySize=auto;html=1;exitX=0.5;exitY=1;exitDx=0;exitDy=0;entryX=0.145;entryY=0;entryDx=0;entryDy=4.35;entryPerimeter=0;" parent="1" source="q1Ef50vEH1lfMhAiaY33-37" target="q1Ef50vEH1lfMhAiaY33-27" edge="1">
          <mxGeometry relative="1" as="geometry" />
        </mxCell>
        <mxCell id="q1Ef50vEH1lfMhAiaY33-37" value="current_city&lt;br&gt;匹配" style="rounded=1;whiteSpace=wrap;html=1;" parent="1" vertex="1">
          <mxGeometry x="124.5" y="153.75" width="80" height="47.5" as="geometry" />
        </mxCell>
        <mxCell id="q1Ef50vEH1lfMhAiaY33-38" style="edgeStyle=orthogonalEdgeStyle;rounded=1;orthogonalLoop=1;jettySize=auto;html=1;exitX=0.5;exitY=1;exitDx=0;exitDy=0;entryX=0.855;entryY=0;entryDx=0;entryDy=4.35;entryPerimeter=0;" parent="1" source="q1Ef50vEH1lfMhAiaY33-41" target="q1Ef50vEH1lfMhAiaY33-27" edge="1">
          <mxGeometry relative="1" as="geometry">
            <Array as="points">
              <mxPoint x="350" y="240" />
              <mxPoint x="491" y="240" />
            </Array>
          </mxGeometry>
        </mxCell>
        <mxCell id="q1Ef50vEH1lfMhAiaY33-39" style="edgeStyle=orthogonalEdgeStyle;rounded=1;orthogonalLoop=1;jettySize=auto;html=1;exitX=0.5;exitY=1;exitDx=0;exitDy=0;entryX=0.5;entryY=0;entryDx=0;entryDy=0;jumpStyle=arc;" parent="1" source="q1Ef50vEH1lfMhAiaY33-41" target="q1Ef50vEH1lfMhAiaY33-57" edge="1">
          <mxGeometry relative="1" as="geometry">
            <Array as="points">
              <mxPoint x="350" y="240" />
              <mxPoint x="190" y="240" />
            </Array>
          </mxGeometry>
        </mxCell>
        <mxCell id="q1Ef50vEH1lfMhAiaY33-40" style="edgeStyle=elbowEdgeStyle;rounded=1;jumpStyle=arc;orthogonalLoop=1;jettySize=auto;elbow=vertical;html=1;exitX=0.5;exitY=1;exitDx=0;exitDy=0;entryX=0.5;entryY=0;entryDx=0;entryDy=0;" parent="1" source="q1Ef50vEH1lfMhAiaY33-41" target="q1Ef50vEH1lfMhAiaY33-58" edge="1">
          <mxGeometry relative="1" as="geometry" />
        </mxCell>
        <mxCell id="q1Ef50vEH1lfMhAiaY33-41" value="search&lt;br&gt;酒店搜索" style="rounded=1;whiteSpace=wrap;html=1;" parent="1" vertex="1">
          <mxGeometry x="304.5" y="153.75" width="90" height="47.5" as="geometry" />
        </mxCell>
        <mxCell id="q1Ef50vEH1lfMhAiaY33-42" style="edgeStyle=orthogonalEdgeStyle;rounded=1;orthogonalLoop=1;jettySize=auto;html=1;exitX=0.5;exitY=1;exitDx=0;exitDy=0;entryX=0.5;entryY=0;entryDx=0;entryDy=0;entryPerimeter=0;jumpStyle=arc;" parent="1" source="q1Ef50vEH1lfMhAiaY33-43" target="q1Ef50vEH1lfMhAiaY33-27" edge="1">
          <mxGeometry relative="1" as="geometry">
            <Array as="points">
              <mxPoint x="255" y="260" />
              <mxPoint x="470" y="260" />
            </Array>
          </mxGeometry>
        </mxCell>
        <mxCell id="q1Ef50vEH1lfMhAiaY33-43" value="keywords&lt;br&gt;目的地推荐" style="rounded=1;whiteSpace=wrap;html=1;" parent="1" vertex="1">
          <mxGeometry x="214.5" y="153.75" width="80" height="47.5" as="geometry" />
        </mxCell>
        <mxCell id="q1Ef50vEH1lfMhAiaY33-44" value="" style="rounded=0;whiteSpace=wrap;html=1;fillColor=#fff2cc;strokeColor=#d6b656;" parent="1" vertex="1">
          <mxGeometry x="450" y="130" width="550" height="80" as="geometry" />
        </mxCell>
        <mxCell id="q1Ef50vEH1lfMhAiaY33-45" style="edgeStyle=elbowEdgeStyle;rounded=1;jumpStyle=arc;orthogonalLoop=1;jettySize=auto;elbow=vertical;html=1;exitX=0.5;exitY=1;exitDx=0;exitDy=0;entryX=0.145;entryY=0;entryDx=0;entryDy=4.35;entryPerimeter=0;" parent="1" source="q1Ef50vEH1lfMhAiaY33-46" target="q1Ef50vEH1lfMhAiaY33-31" edge="1">
          <mxGeometry relative="1" as="geometry">
            <Array as="points">
              <mxPoint x="640" y="280" />
              <mxPoint x="560" y="280" />
            </Array>
          </mxGeometry>
        </mxCell>
        <mxCell id="q1Ef50vEH1lfMhAiaY33-46" value="details&lt;br&gt;详情" style="rounded=1;whiteSpace=wrap;html=1;" parent="1" vertex="1">
          <mxGeometry x="467.5" y="153.75" width="80" height="47.5" as="geometry" />
        </mxCell>
        <mxCell id="q1Ef50vEH1lfMhAiaY33-47" style="edgeStyle=orthogonalEdgeStyle;rounded=1;orthogonalLoop=1;jettySize=auto;html=1;exitX=0.5;exitY=1;exitDx=0;exitDy=0;entryX=0.75;entryY=0;entryDx=0;entryDy=0;" parent="1" source="q1Ef50vEH1lfMhAiaY33-48" target="q1Ef50vEH1lfMhAiaY33-21" edge="1">
          <mxGeometry relative="1" as="geometry">
            <Array as="points">
              <mxPoint x="693" y="260" />
              <mxPoint x="960" y="260" />
            </Array>
          </mxGeometry>
        </mxCell>
        <mxCell id="q1Ef50vEH1lfMhAiaY33-48" value="Precheck&lt;br&gt;酒店搜索" style="rounded=1;whiteSpace=wrap;html=1;" parent="1" vertex="1">
          <mxGeometry x="642" y="152.75" width="90" height="47.5" as="geometry" />
        </mxCell>
        <mxCell id="q1Ef50vEH1lfMhAiaY33-49" style="edgeStyle=orthogonalEdgeStyle;rounded=1;orthogonalLoop=1;jettySize=auto;html=1;exitX=0.5;exitY=1;exitDx=0;exitDy=0;entryX=0.5;entryY=0;entryDx=0;entryDy=0;" parent="1" source="q1Ef50vEH1lfMhAiaY33-50" target="q1Ef50vEH1lfMhAiaY33-21" edge="1">
          <mxGeometry relative="1" as="geometry" />
        </mxCell>
        <mxCell id="q1Ef50vEH1lfMhAiaY33-50" value="extraInfo&lt;br&gt;房型详情" style="rounded=1;whiteSpace=wrap;html=1;" parent="1" vertex="1">
          <mxGeometry x="557" y="152.75" width="80" height="47.5" as="geometry" />
        </mxCell>
        <mxCell id="q1Ef50vEH1lfMhAiaY33-51" style="edgeStyle=orthogonalEdgeStyle;orthogonalLoop=1;jettySize=auto;html=1;exitX=0.5;exitY=1;exitDx=0;exitDy=0;entryX=0.855;entryY=0;entryDx=0;entryDy=4.35;entryPerimeter=0;jumpStyle=arc;rounded=1;" parent="1" source="q1Ef50vEH1lfMhAiaY33-52" target="q1Ef50vEH1lfMhAiaY33-31" edge="1">
          <mxGeometry relative="1" as="geometry">
            <Array as="points">
              <mxPoint x="790" y="280" />
              <mxPoint x="636" y="280" />
            </Array>
          </mxGeometry>
        </mxCell>
        <mxCell id="q1Ef50vEH1lfMhAiaY33-52" value="FullfillmentInfo&lt;br&gt;发货信息" style="rounded=1;whiteSpace=wrap;html=1;" parent="1" vertex="1">
          <mxGeometry x="740" y="152.75" width="81" height="47.25" as="geometry" />
        </mxCell>
        <mxCell id="q1Ef50vEH1lfMhAiaY33-53" style="edgeStyle=elbowEdgeStyle;rounded=1;orthogonalLoop=1;jettySize=auto;html=1;exitX=0.5;exitY=1;exitDx=0;exitDy=0;entryX=1;entryY=0.5;entryDx=0;entryDy=0;entryPerimeter=0;elbow=vertical;jumpStyle=arc;" parent="1" source="q1Ef50vEH1lfMhAiaY33-54" target="q1Ef50vEH1lfMhAiaY33-29" edge="1">
          <mxGeometry relative="1" as="geometry">
            <Array as="points">
              <mxPoint x="810" y="460" />
            </Array>
          </mxGeometry>
        </mxCell>
        <mxCell id="q1Ef50vEH1lfMhAiaY33-54" value="reviews" style="rounded=1;whiteSpace=wrap;html=1;" parent="1" vertex="1">
          <mxGeometry x="831" y="152.75" width="70" height="47.25" as="geometry" />
        </mxCell>
        <mxCell id="q1Ef50vEH1lfMhAiaY33-55" style="edgeStyle=orthogonalEdgeStyle;rounded=1;orthogonalLoop=1;jettySize=auto;html=1;exitX=1;exitY=0.5;exitDx=0;exitDy=0;entryX=1;entryY=1;entryDx=0;entryDy=-15;entryPerimeter=0;jumpStyle=arc;" parent="1" source="q1Ef50vEH1lfMhAiaY33-56" target="q1Ef50vEH1lfMhAiaY33-29" edge="1">
          <mxGeometry relative="1" as="geometry" />
        </mxCell>
        <mxCell id="q1Ef50vEH1lfMhAiaY33-56" value="Gallery" style="rounded=1;whiteSpace=wrap;html=1;" parent="1" vertex="1">
          <mxGeometry x="920" y="153.75" width="70" height="46.25" as="geometry" />
        </mxCell>
        <mxCell id="q1Ef50vEH1lfMhAiaY33-57" value="supplier-service&lt;br&gt;动态信息查询" style="rounded=0;whiteSpace=wrap;html=1;fillColor=#f8cecc;strokeColor=#b85450;" parent="1" vertex="1">
          <mxGeometry x="130" y="340" width="120" height="60" as="geometry" />
        </mxCell>
        <mxCell id="q1Ef50vEH1lfMhAiaY33-58" value="" style="rounded=0;whiteSpace=wrap;html=1;fillColor=#fff2cc;strokeColor=#d6b656;" parent="1" vertex="1">
          <mxGeometry x="289.5" y="340" width="120" height="60" as="geometry" />
        </mxCell>
        <mxCell id="q1Ef50vEH1lfMhAiaY33-59" value="listing-server" style="text;html=1;strokeColor=none;fillColor=none;align=center;verticalAlign=middle;whiteSpace=wrap;rounded=0;" parent="1" vertex="1">
          <mxGeometry x="110" y="130" width="100" height="20" as="geometry" />
        </mxCell>
        <mxCell id="q1Ef50vEH1lfMhAiaY33-60" value="item-server" style="text;html=1;strokeColor=none;fillColor=none;align=center;verticalAlign=middle;whiteSpace=wrap;rounded=0;" parent="1" vertex="1">
          <mxGeometry x="455" y="130" width="100" height="20" as="geometry" />
        </mxCell>
        <mxCell id="q1Ef50vEH1lfMhAiaY33-61" value="元数据映射" style="rounded=1;whiteSpace=wrap;html=1;" parent="1" vertex="1">
          <mxGeometry x="317" y="360" width="65" height="30" as="geometry" />
        </mxCell>
        <mxCell id="q1Ef50vEH1lfMhAiaY33-62" value="metadata-server" style="text;html=1;strokeColor=none;fillColor=none;align=center;verticalAlign=middle;whiteSpace=wrap;rounded=0;" parent="1" vertex="1">
          <mxGeometry x="294.5" y="340" width="105" height="20" as="geometry" />
        </mxCell>
        <mxCell id="q1Ef50vEH1lfMhAiaY33-64" value="xxl-job" style="text;html=1;strokeColor=none;fillColor=none;align=center;verticalAlign=middle;whiteSpace=wrap;rounded=0;" parent="1" vertex="1">
          <mxGeometry x="35" y="543" width="90" height="23" as="geometry" />
        </mxCell>
        <mxCell id="q1Ef50vEH1lfMhAiaY33-65" value="job 拆分 task&lt;br&gt;分发" style="rounded=1;whiteSpace=wrap;html=1;" parent="1" vertex="1">
          <mxGeometry x="54.5" y="734.74" width="95.25" height="40" as="geometry" />
        </mxCell>
        <mxCell id="q1Ef50vEH1lfMhAiaY33-67" value="itemfetch-server" style="text;html=1;strokeColor=none;fillColor=none;align=center;verticalAlign=middle;whiteSpace=wrap;rounded=0;" parent="1" vertex="1">
          <mxGeometry x="70.5" y="703.74" width="90" height="31" as="geometry" />
        </mxCell>
        <mxCell id="q1Ef50vEH1lfMhAiaY33-126" style="edgeStyle=orthogonalEdgeStyle;rounded=1;orthogonalLoop=1;jettySize=auto;html=1;exitX=1;exitY=0.25;exitDx=0;exitDy=0;entryX=0.002;entryY=0.658;entryDx=0;entryDy=0;entryPerimeter=0;elbow=vertical;" parent="1" target="q1Ef50vEH1lfMhAiaY33-11" edge="1">
          <mxGeometry relative="1" as="geometry">
            <mxPoint x="414" y="812.3575000000001" as="sourcePoint" />
          </mxGeometry>
        </mxCell>
        <mxCell id="q1Ef50vEH1lfMhAiaY33-70" value="Hotel mapping" style="rounded=1;whiteSpace=wrap;html=1;" parent="1" vertex="1">
          <mxGeometry x="452" y="810.24" width="102.25" height="32.26" as="geometry" />
        </mxCell>
        <mxCell id="q1Ef50vEH1lfMhAiaY33-71" value="Room Mapping" style="rounded=1;whiteSpace=wrap;html=1;" parent="1" vertex="1">
          <mxGeometry x="561.75" y="810.24" width="90" height="32.26" as="geometry" />
        </mxCell>
        <mxCell id="q1Ef50vEH1lfMhAiaY33-72" value="area mapping" style="rounded=1;whiteSpace=wrap;html=1;" parent="1" vertex="1">
          <mxGeometry x="452" y="770.24" width="102.25" height="32.25" as="geometry" />
        </mxCell>
        <mxCell id="q1Ef50vEH1lfMhAiaY33-73" value="meta mapping" style="rounded=1;whiteSpace=wrap;html=1;" parent="1" vertex="1">
          <mxGeometry x="559.25" y="771.22" width="95" height="29.02" as="geometry" />
        </mxCell>
        <mxCell id="q1Ef50vEH1lfMhAiaY33-74" value="realtime-computing-server" style="text;html=1;strokeColor=none;fillColor=none;align=center;verticalAlign=middle;whiteSpace=wrap;rounded=0;" parent="1" vertex="1">
          <mxGeometry x="450.75" y="745.24" width="151" height="18" as="geometry" />
        </mxCell>
        <mxCell id="q1Ef50vEH1lfMhAiaY33-75" value="图片下载、裁剪、上传" style="rounded=1;whiteSpace=wrap;html=1;" parent="1" vertex="1">
          <mxGeometry x="761.75" y="793.98" width="140.5" height="30" as="geometry" />
        </mxCell>
        <mxCell id="q1Ef50vEH1lfMhAiaY33-76" value="&lt;meta charset=&quot;utf-8&quot;&gt;&lt;span style=&quot;color: rgb(0, 0, 0); font-family: Helvetica; font-size: 12px; font-style: normal; font-variant-ligatures: normal; font-variant-caps: normal; font-weight: 400; letter-spacing: normal; orphans: 2; text-align: center; text-indent: 0px; text-transform: none; widows: 2; word-spacing: 0px; -webkit-text-stroke-width: 0px; background-color: rgb(248, 249, 250); text-decoration-thickness: initial; text-decoration-style: initial; text-decoration-color: initial; float: none; display: inline !important;&quot;&gt;imageprocessing-server&lt;/span&gt;" style="text;whiteSpace=wrap;html=1;" parent="1" vertex="1">
          <mxGeometry x="752" y="769.24" width="160" height="40" as="geometry" />
        </mxCell>
        <mxCell id="q1Ef50vEH1lfMhAiaY33-77" value="&lt;meta charset=&quot;utf-8&quot;&gt;&lt;span style=&quot;color: rgb(0, 0, 0); font-family: Helvetica; font-size: 12px; font-style: normal; font-variant-ligatures: normal; font-variant-caps: normal; font-weight: 400; letter-spacing: normal; orphans: 2; text-align: center; text-indent: 0px; text-transform: none; widows: 2; word-spacing: 0px; -webkit-text-stroke-width: 0px; background-color: rgb(248, 249, 250); text-decoration-thickness: initial; text-decoration-style: initial; text-decoration-color: initial; float: none; display: inline !important;&quot;&gt;onelinedatasync-server&lt;/span&gt;" style="text;whiteSpace=wrap;html=1;" parent="1" vertex="1">
          <mxGeometry x="563.75" y="540" width="136.25" height="33" as="geometry" />
        </mxCell>
        <mxCell id="q1Ef50vEH1lfMhAiaY33-78" value="数据消费，同步" style="rounded=1;whiteSpace=wrap;html=1;" parent="1" vertex="1">
          <mxGeometry x="593.75" y="570" width="106.25" height="30" as="geometry" />
        </mxCell>
        <mxCell id="q1Ef50vEH1lfMhAiaY33-79" value="" style="points=[[0.145,0.145,0],[0.5,0,0],[0.855,0.145,0],[1,0.5,0],[0.855,0.855,0],[0.5,1,0],[0.145,0.855,0],[0,0.5,0]];shape=mxgraph.bpmn.event;html=1;verticalLabelPosition=bottom;labelBackgroundColor=#ffffff;verticalAlign=top;align=center;perimeter=ellipsePerimeter;outlineConnect=0;aspect=fixed;outline=eventNonint;symbol=timer;" parent="1" vertex="1">
          <mxGeometry x="40" y="566" width="40" height="40" as="geometry" />
        </mxCell>
        <mxCell id="q1Ef50vEH1lfMhAiaY33-80" value="定时调度" style="text;html=1;strokeColor=none;fillColor=none;align=center;verticalAlign=middle;whiteSpace=wrap;rounded=0;" parent="1" vertex="1">
          <mxGeometry x="79.75" y="569.5" width="60" height="30" as="geometry" />
        </mxCell>
        <mxCell id="q1Ef50vEH1lfMhAiaY33-82" value="lmstfy&lt;br&gt;延时队列" style="shape=process;whiteSpace=wrap;html=1;backgroundOutline=1;" parent="1" vertex="1">
          <mxGeometry x="184.5" y="535" width="110" height="35" as="geometry" />
        </mxCell>
        <mxCell id="q1Ef50vEH1lfMhAiaY33-91" value="retry" style="rounded=0;whiteSpace=wrap;html=1;" parent="1" vertex="1">
          <mxGeometry x="249" y="720.99" width="54.5" height="21.27" as="geometry" />
        </mxCell>
        <mxCell id="q1Ef50vEH1lfMhAiaY33-92" value="ratelimit" style="rounded=0;whiteSpace=wrap;html=1;" parent="1" vertex="1">
          <mxGeometry x="250" y="754.74" width="55.12" height="20" as="geometry" />
        </mxCell>
        <mxCell id="q1Ef50vEH1lfMhAiaY33-94" value="lmstfy&lt;br&gt;延时队列" style="shape=process;whiteSpace=wrap;html=1;backgroundOutline=1;" parent="1" vertex="1">
          <mxGeometry x="184.5" y="580" width="110" height="35" as="geometry" />
        </mxCell>
        <mxCell id="q1Ef50vEH1lfMhAiaY33-106" style="edgeStyle=orthogonalEdgeStyle;rounded=1;orthogonalLoop=1;jettySize=auto;html=1;exitX=0.5;exitY=1;exitDx=0;exitDy=0;" parent="1" source="q1Ef50vEH1lfMhAiaY33-104" target="q1Ef50vEH1lfMhAiaY33-22" edge="1">
          <mxGeometry relative="1" as="geometry" />
        </mxCell>
        <mxCell id="q1Ef50vEH1lfMhAiaY33-104" value="fetch-content" style="rounded=1;whiteSpace=wrap;html=1;" parent="1" vertex="1">
          <mxGeometry x="160.5" y="734.74" width="79" height="40" as="geometry" />
        </mxCell>
        <mxCell id="h1lXgUi2YGFBA8fjU0Bh-3" style="edgeStyle=orthogonalEdgeStyle;rounded=0;orthogonalLoop=1;jettySize=auto;html=1;exitX=0.5;exitY=1;exitDx=0;exitDy=0;entryX=0.5;entryY=0;entryDx=0;entryDy=0;" edge="1" parent="1" source="h1lXgUi2YGFBA8fjU0Bh-1" target="h1lXgUi2YGFBA8fjU0Bh-2">
          <mxGeometry relative="1" as="geometry" />
        </mxCell>
        <mxCell id="h1lXgUi2YGFBA8fjU0Bh-1" value="checkout下单" style="rounded=1;whiteSpace=wrap;html=1;" vertex="1" parent="1">
          <mxGeometry x="1170" y="170" width="120" height="60" as="geometry" />
        </mxCell>
        <mxCell id="h1lXgUi2YGFBA8fjU0Bh-2" value="snowfake &lt;br&gt;生成订单id" style="rounded=0;whiteSpace=wrap;html=1;" vertex="1" parent="1">
          <mxGeometry x="1170" y="280" width="120" height="60" as="geometry" />
        </mxCell>
        <mxCell id="h1lXgUi2YGFBA8fjU0Bh-4" value="paynow 支付" style="rounded=1;whiteSpace=wrap;html=1;" vertex="1" parent="1">
          <mxGeometry x="1450" y="170" width="120" height="60" as="geometry" />
        </mxCell>
      </root>
    </mxGraphModel>
  </diagram>
</mxfile>
